STARTFONT 2.1
FONT -wiktorb-leggie-Medium-R-Normal--12----C--ISO10646-1
SIZE 4 72 72
FONTBOUNDINGBOX 12 12 0 -2
STARTPROPERTIES 17
DEFAULT_CHAR 65535
CHARSET_ENCODING "1"
CHARSET_REGISTRY "ISO10646"
SPACING "C"
FONT_ASCENT 10
FONT_DESCENT 2
X_HEIGHT 5
WEIGHT_NAME "Medium"
SLANT "R"
SETWIDTH_NAME "Normal"
PIXEL_SIZE 12
CAP_HEIGHT 7
COPYRIGHT "2012-2016 Wiktor W Brodlo. Released under SIL OFL"
COMMENT "Please visit https://wiktorb.eu/leggie"
FONT "leggie"
FOUNDRY "wiktorb"
AVERAGE_WIDTH 60
ENDPROPERTIES
CHARS 1708
STARTCHAR SPACE
ENCODING 32
SWIDTH 1500 0
DWIDTH 6 0
BBX 1 1 5 -2
BITMAP
00
ENDCHAR
STARTCHAR EXCLAMATION
ENCODING 33
SWIDTH 1500 0
DWIDTH 6 0
BBX 1 7 3 0
BITMAP
80
80
80
80
80
00
80
ENDCHAR
STARTCHAR QUOTATION
ENCODING 34
SWIDTH 1500 0
DWIDTH 6 0
BBX 3 3 2 5
BITMAP
A0
A0
A0
ENDCHAR
STARTCHAR NUMBER
ENCODING 35
SWIDTH 1500 0
DWIDTH 6 0
BBX 5 7 1 0
BITMAP
50
50
F8
50
F8
50
50
ENDCHAR
STARTCHAR DOLLAR
ENCODING 36
SWIDTH 1500 0
DWIDTH 6 0
BBX 5 9 1 -1
BITMAP
10
78
80
80
70
08
08
F0
40
ENDCHAR
STARTCHAR PERCENT
ENCODING 37
SWIDTH 1500 0
DWIDTH 6 0
BBX 5 7 1 0
BITMAP
40
A8
50
20
50
A8
10
ENDCHAR
STARTCHAR AMPERSAND
ENCODING 38
SWIDTH 1500 0
DWIDTH 6 0
BBX 5 7 1 0
BITMAP
60
90
90
60
88
90
68
ENDCHAR
STARTCHAR APOSTROPHE
ENCODING 39
SWIDTH 1500 0
DWIDTH 6 0
BBX 1 3 3 5
BITMAP
80
80
80
ENDCHAR
STARTCHAR LEFT
ENCODING 40
SWIDTH 1500 0
DWIDTH 6 0
BBX 2 11 3 -2
BITMAP
40
80
80
80
80
80
80
80
80
80
40
ENDCHAR
STARTCHAR RIGHT
ENCODING 41
SWIDTH 1500 0
DWIDTH 6 0
BBX 2 11 2 -2
BITMAP
80
40
40
40
40
40
40
40
40
40
80
ENDCHAR
STARTCHAR ASTERISK
ENCODING 42
SWIDTH 1500 0
DWIDTH 6 0
BBX 5 5 1 1
BITMAP
50
20
F8
20
50
ENDCHAR
STARTCHAR PLUS
ENCODING 43
SWIDTH 1500 0
DWIDTH 6 0
BBX 5 5 1 1
BITMAP
20
20
F8
20
20
ENDCHAR
STARTCHAR COMMA
ENCODING 44
SWIDTH 1500 0
DWIDTH 6 0
BBX 2 2 2 -1
BITMAP
40
80
ENDCHAR
STARTCHAR HYPHEN-MINUS
ENCODING 45
SWIDTH 1500 0
DWIDTH 6 0
BBX 5 1 1 3
BITMAP
F8
ENDCHAR
STARTCHAR FULL
ENCODING 46
SWIDTH 1500 0
DWIDTH 6 0
BBX 1 1 3 0
BITMAP
80
ENDCHAR
STARTCHAR SOLIDUS
ENCODING 47
SWIDTH 1500 0
DWIDTH 6 0
BBX 5 10 1 -2
BITMAP
08
08
10
10
20
20
40
40
80
80
ENDCHAR
STARTCHAR DIGIT
ENCODING 48
SWIDTH 1500 0
DWIDTH 6 0
BBX 5 7 1 0
BITMAP
70
88
98
A8
C8
88
70
ENDCHAR
STARTCHAR DIGIT
ENCODING 49
SWIDTH 1500 0
DWIDTH 6 0
BBX 3 7 2 0
BITMAP
20
60
A0
20
20
20
20
ENDCHAR
STARTCHAR DIGIT
ENCODING 50
SWIDTH 1500 0
DWIDTH 6 0
BBX 5 7 1 0
BITMAP
F0
08
08
10
20
40
F8
ENDCHAR
STARTCHAR DIGIT
ENCODING 51
SWIDTH 1500 0
DWIDTH 6 0
BBX 5 7 1 0
BITMAP
F0
08
08
30
08
08
F0
ENDCHAR
STARTCHAR DIGIT
ENCODING 52
SWIDTH 1500 0
DWIDTH 6 0
BBX 5 7 1 0
BITMAP
08
18
28
48
F8
08
08
ENDCHAR
STARTCHAR DIGIT
ENCODING 53
SWIDTH 1500 0
DWIDTH 6 0
BBX 5 7 1 0
BITMAP
F8
80
F0
08
08
08
F0
ENDCHAR
STARTCHAR DIGIT
ENCODING 54
SWIDTH 1500 0
DWIDTH 6 0
BBX 5 7 1 0
BITMAP
70
80
F0
88
88
88
70
ENDCHAR
STARTCHAR DIGIT
ENCODING 55
SWIDTH 1500 0
DWIDTH 6 0
BBX 5 7 1 0
BITMAP
F8
08
08
10
20
20
20
ENDCHAR
STARTCHAR DIGIT
ENCODING 56
SWIDTH 1500 0
DWIDTH 6 0
BBX 5 7 1 0
BITMAP
70
88
88
70
88
88
70
ENDCHAR
STARTCHAR DIGIT
ENCODING 57
SWIDTH 1500 0
DWIDTH 6 0
BBX 5 7 1 0
BITMAP
70
88
88
88
78
08
70
ENDCHAR
STARTCHAR COLON
ENCODING 58
SWIDTH 1500 0
DWIDTH 6 0
BBX 1 5 3 0
BITMAP
80
00
00
00
80
ENDCHAR
STARTCHAR SEMICOLON
ENCODING 59
SWIDTH 1500 0
DWIDTH 6 0
BBX 2 6 2 -1
BITMAP
40
00
00
00
40
80
ENDCHAR
STARTCHAR LESS-THAN
ENCODING 60
SWIDTH 1500 0
DWIDTH 6 0
BBX 5 9 1 -1
BITMAP
08
10
20
40
80
40
20
10
08
ENDCHAR
STARTCHAR EQUALS
ENCODING 61
SWIDTH 1500 0
DWIDTH 6 0
BBX 5 3 1 2
BITMAP
F8
00
F8
ENDCHAR
STARTCHAR GREATER-THAN
ENCODING 62
SWIDTH 1500 0
DWIDTH 6 0
BBX 5 9 1 -1
BITMAP
80
40
20
10
08
10
20
40
80
ENDCHAR
STARTCHAR QUESTION
ENCODING 63
SWIDTH 1500 0
DWIDTH 6 0
BBX 5 7 1 0
BITMAP
F0
08
08
10
20
00
20
ENDCHAR
STARTCHAR COMMERCIAL
ENCODING 64
SWIDTH 1500 0
DWIDTH 6 0
BBX 5 8 1 -1
BITMAP
70
88
B8
C8
C8
B0
80
70
ENDCHAR
STARTCHAR LATIN
ENCODING 65
SWIDTH 1500 0
DWIDTH 6 0
BBX 5 7 1 0
BITMAP
70
88
88
88
F8
88
88
ENDCHAR
STARTCHAR LATIN
ENCODING 66
SWIDTH 1500 0
DWIDTH 6 0
BBX 5 7 1 0
BITMAP
F0
88
88
F0
88
88
F0
ENDCHAR
STARTCHAR LATIN
ENCODING 67
SWIDTH 1500 0
DWIDTH 6 0
BBX 5 7 1 0
BITMAP
78
80
80
80
80
80
78
ENDCHAR
STARTCHAR LATIN
ENCODING 68
SWIDTH 1500 0
DWIDTH 6 0
BBX 5 7 1 0
BITMAP
F0
88
88
88
88
88
F0
ENDCHAR
STARTCHAR LATIN
ENCODING 69
SWIDTH 1500 0
DWIDTH 6 0
BBX 5 7 1 0
BITMAP
F8
80
80
E0
80
80
F8
ENDCHAR
STARTCHAR LATIN
ENCODING 70
SWIDTH 1500 0
DWIDTH 6 0
BBX 5 7 1 0
BITMAP
F8
80
80
E0
80
80
80
ENDCHAR
STARTCHAR LATIN
ENCODING 71
SWIDTH 1500 0
DWIDTH 6 0
BBX 5 7 1 0
BITMAP
78
80
80
98
88
88
78
ENDCHAR
STARTCHAR LATIN
ENCODING 72
SWIDTH 1500 0
DWIDTH 6 0
BBX 5 7 1 0
BITMAP
88
88
88
F8
88
88
88
ENDCHAR
STARTCHAR LATIN
ENCODING 73
SWIDTH 1500 0
DWIDTH 6 0
BBX 3 7 2 0
BITMAP
E0
40
40
40
40
40
E0
ENDCHAR
STARTCHAR LATIN
ENCODING 74
SWIDTH 1500 0
DWIDTH 6 0
BBX 5 7 1 0
BITMAP
08
08
08
08
08
88
70
ENDCHAR
STARTCHAR LATIN
ENCODING 75
SWIDTH 1500 0
DWIDTH 6 0
BBX 5 7 1 0
BITMAP
88
90
A0
C0
A0
90
88
ENDCHAR
STARTCHAR LATIN
ENCODING 76
SWIDTH 1500 0
DWIDTH 6 0
BBX 5 7 1 0
BITMAP
80
80
80
80
80
80
F8
ENDCHAR
STARTCHAR LATIN
ENCODING 77
SWIDTH 1500 0
DWIDTH 6 0
BBX 5 7 1 0
BITMAP
88
D8
A8
88
88
88
88
ENDCHAR
STARTCHAR LATIN
ENCODING 78
SWIDTH 1500 0
DWIDTH 6 0
BBX 5 7 1 0
BITMAP
88
88
C8
A8
98
88
88
ENDCHAR
STARTCHAR LATIN
ENCODING 79
SWIDTH 1500 0
DWIDTH 6 0
BBX 5 7 1 0
BITMAP
70
88
88
88
88
88
70
ENDCHAR
STARTCHAR LATIN
ENCODING 80
SWIDTH 1500 0
DWIDTH 6 0
BBX 5 7 1 0
BITMAP
F0
88
88
88
F0
80
80
ENDCHAR
STARTCHAR LATIN
ENCODING 81
SWIDTH 1500 0
DWIDTH 6 0
BBX 5 7 1 0
BITMAP
70
88
88
88
88
90
68
ENDCHAR
STARTCHAR LATIN
ENCODING 82
SWIDTH 1500 0
DWIDTH 6 0
BBX 5 7 1 0
BITMAP
F0
88
88
88
F0
90
88
ENDCHAR
STARTCHAR LATIN
ENCODING 83
SWIDTH 1500 0
DWIDTH 6 0
BBX 5 7 1 0
BITMAP
78
80
80
70
08
08
F0
ENDCHAR
STARTCHAR LATIN
ENCODING 84
SWIDTH 1500 0
DWIDTH 6 0
BBX 5 7 1 0
BITMAP
F8
20
20
20
20
20
20
ENDCHAR
STARTCHAR LATIN
ENCODING 85
SWIDTH 1500 0
DWIDTH 6 0
BBX 5 7 1 0
BITMAP
88
88
88
88
88
88
70
ENDCHAR
STARTCHAR LATIN
ENCODING 86
SWIDTH 1500 0
DWIDTH 6 0
BBX 5 7 1 0
BITMAP
88
88
88
88
50
50
20
ENDCHAR
STARTCHAR LATIN
ENCODING 87
SWIDTH 1500 0
DWIDTH 6 0
BBX 5 7 1 0
BITMAP
88
88
88
88
A8
D8
88
ENDCHAR
STARTCHAR LATIN
ENCODING 88
SWIDTH 1500 0
DWIDTH 6 0
BBX 5 7 1 0
BITMAP
88
88
50
20
50
88
88
ENDCHAR
STARTCHAR LATIN
ENCODING 89
SWIDTH 1500 0
DWIDTH 6 0
BBX 5 7 1 0
BITMAP
88
88
50
20
20
20
20
ENDCHAR
STARTCHAR LATIN
ENCODING 90
SWIDTH 1500 0
DWIDTH 6 0
BBX 5 7 1 0
BITMAP
F8
08
10
20
40
80
F8
ENDCHAR
STARTCHAR LEFT
ENCODING 91
SWIDTH 1500 0
DWIDTH 6 0
BBX 2 11 3 -2
BITMAP
C0
80
80
80
80
80
80
80
80
80
C0
ENDCHAR
STARTCHAR REVERSE
ENCODING 92
SWIDTH 1500 0
DWIDTH 6 0
BBX 5 10 1 -2
BITMAP
80
80
40
40
20
20
10
10
08
08
ENDCHAR
STARTCHAR RIGHT
ENCODING 93
SWIDTH 1500 0
DWIDTH 6 0
BBX 2 11 2 -2
BITMAP
C0
40
40
40
40
40
40
40
40
40
C0
ENDCHAR
STARTCHAR CIRCUMFLEX
ENCODING 94
SWIDTH 1500 0
DWIDTH 6 0
BBX 5 3 1 5
BITMAP
20
50
88
ENDCHAR
STARTCHAR LOW
ENCODING 95
SWIDTH 1500 0
DWIDTH 6 0
BBX 5 1 1 -1
BITMAP
F8
ENDCHAR
STARTCHAR GRAVE
ENCODING 96
SWIDTH 1500 0
DWIDTH 6 0
BBX 3 3 2 5
BITMAP
80
40
20
ENDCHAR
STARTCHAR LATIN
ENCODING 97
SWIDTH 1500 0
DWIDTH 6 0
BBX 5 5 1 0
BITMAP
70
08
78
88
78
ENDCHAR
STARTCHAR LATIN
ENCODING 98
SWIDTH 1500 0
DWIDTH 6 0
BBX 5 8 1 0
BITMAP
80
80
80
F0
88
88
88
F0
ENDCHAR
STARTCHAR LATIN
ENCODING 99
SWIDTH 1500 0
DWIDTH 6 0
BBX 5 5 1 0
BITMAP
78
80
80
80
78
ENDCHAR
STARTCHAR LATIN
ENCODING 100
SWIDTH 1500 0
DWIDTH 6 0
BBX 5 8 1 0
BITMAP
08
08
08
78
88
88
88
78
ENDCHAR
STARTCHAR LATIN
ENCODING 101
SWIDTH 1500 0
DWIDTH 6 0
BBX 5 5 1 0
BITMAP
70
88
F8
80
70
ENDCHAR
STARTCHAR LATIN
ENCODING 102
SWIDTH 1500 0
DWIDTH 6 0
BBX 3 8 2 0
BITMAP
60
80
80
C0
80
80
80
80
ENDCHAR
STARTCHAR LATIN
ENCODING 103
SWIDTH 1500 0
DWIDTH 6 0
BBX 5 7 1 -2
BITMAP
78
88
88
88
78
08
30
ENDCHAR
STARTCHAR LATIN
ENCODING 104
SWIDTH 1500 0
DWIDTH 6 0
BBX 5 8 1 0
BITMAP
80
80
80
F0
88
88
88
88
ENDCHAR
STARTCHAR LATIN
ENCODING 105
SWIDTH 1500 0
DWIDTH 6 0
BBX 2 7 2 0
BITMAP
40
00
C0
40
40
40
40
ENDCHAR
STARTCHAR LATIN
ENCODING 106
SWIDTH 1500 0
DWIDTH 6 0
BBX 2 9 2 -2
BITMAP
40
00
C0
40
40
40
40
40
80
ENDCHAR
STARTCHAR LATIN
ENCODING 107
SWIDTH 1500 0
DWIDTH 6 0
BBX 4 8 2 0
BITMAP
80
80
80
90
A0
C0
A0
90
ENDCHAR
STARTCHAR LATIN
ENCODING 108
SWIDTH 1500 0
DWIDTH 6 0
BBX 3 8 2 0
BITMAP
80
80
80
80
80
80
80
60
ENDCHAR
STARTCHAR LATIN
ENCODING 109
SWIDTH 1500 0
DWIDTH 6 0
BBX 5 5 1 0
BITMAP
D0
A8
A8
A8
88
ENDCHAR
STARTCHAR LATIN
ENCODING 110
SWIDTH 1500 0
DWIDTH 6 0
BBX 5 5 1 0
BITMAP
F0
88
88
88
88
ENDCHAR
STARTCHAR LATIN
ENCODING 111
SWIDTH 1500 0
DWIDTH 6 0
BBX 5 5 1 0
BITMAP
70
88
88
88
70
ENDCHAR
STARTCHAR LATIN
ENCODING 112
SWIDTH 1500 0
DWIDTH 6 0
BBX 5 7 1 -2
BITMAP
F0
88
88
88
F0
80
80
ENDCHAR
STARTCHAR LATIN
ENCODING 113
SWIDTH 1500 0
DWIDTH 6 0
BBX 5 7 1 -2
BITMAP
78
88
88
88
78
08
08
ENDCHAR
STARTCHAR LATIN
ENCODING 114
SWIDTH 1500 0
DWIDTH 6 0
BBX 5 5 1 0
BITMAP
B8
C0
80
80
80
ENDCHAR
STARTCHAR LATIN
ENCODING 115
SWIDTH 1500 0
DWIDTH 6 0
BBX 5 5 1 0
BITMAP
78
80
70
08
F0
ENDCHAR
STARTCHAR LATIN
ENCODING 116
SWIDTH 1500 0
DWIDTH 6 0
BBX 4 8 1 0
BITMAP
40
40
40
E0
40
40
40
30
ENDCHAR
STARTCHAR LATIN
ENCODING 117
SWIDTH 1500 0
DWIDTH 6 0
BBX 5 5 1 0
BITMAP
88
88
88
88
78
ENDCHAR
STARTCHAR LATIN
ENCODING 118
SWIDTH 1500 0
DWIDTH 6 0
BBX 5 5 1 0
BITMAP
88
88
50
50
20
ENDCHAR
STARTCHAR LATIN
ENCODING 119
SWIDTH 1500 0
DWIDTH 6 0
BBX 5 5 1 0
BITMAP
88
88
A8
D8
88
ENDCHAR
STARTCHAR LATIN
ENCODING 120
SWIDTH 1500 0
DWIDTH 6 0
BBX 5 5 1 0
BITMAP
88
50
20
50
88
ENDCHAR
STARTCHAR LATIN
ENCODING 121
SWIDTH 1500 0
DWIDTH 6 0
BBX 5 7 1 -2
BITMAP
88
88
88
88
78
08
30
ENDCHAR
STARTCHAR LATIN
ENCODING 122
SWIDTH 1500 0
DWIDTH 6 0
BBX 5 5 1 0
BITMAP
F8
10
20
40
F8
ENDCHAR
STARTCHAR LEFT
ENCODING 123
SWIDTH 1500 0
DWIDTH 6 0
BBX 3 11 2 -2
BITMAP
20
40
40
40
40
80
40
40
40
40
20
ENDCHAR
STARTCHAR VERTICAL
ENCODING 124
SWIDTH 1500 0
DWIDTH 6 0
BBX 1 12 3 -2
BITMAP
80
80
80
80
80
80
80
80
80
80
80
80
ENDCHAR
STARTCHAR RIGHT
ENCODING 125
SWIDTH 1500 0
DWIDTH 6 0
BBX 3 11 2 -2
BITMAP
80
40
40
40
40
20
40
40
40
40
80
ENDCHAR
STARTCHAR TILDE
ENCODING 126
SWIDTH 1500 0
DWIDTH 6 0
BBX 6 2 0 2
BITMAP
64
98
ENDCHAR
STARTCHAR NO-BREAK
ENCODING 160
SWIDTH 1500 0
DWIDTH 6 0
BBX 1 1 5 -2
BITMAP
00
ENDCHAR
STARTCHAR INVERTED
ENCODING 161
SWIDTH 1500 0
DWIDTH 6 0
BBX 1 7 3 -2
BITMAP
80
00
80
80
80
80
80
ENDCHAR
STARTCHAR CENT
ENCODING 162
SWIDTH 1500 0
DWIDTH 6 0
BBX 5 7 1 -1
BITMAP
10
78
80
80
80
78
20
ENDCHAR
STARTCHAR POUND
ENCODING 163
SWIDTH 1500 0
DWIDTH 6 0
BBX 5 7 1 0
BITMAP
30
40
40
E0
40
40
F8
ENDCHAR
STARTCHAR CURRENCY
ENCODING 164
SWIDTH 1500 0
DWIDTH 6 0
BBX 5 5 1 1
BITMAP
88
70
50
70
88
ENDCHAR
STARTCHAR YEN
ENCODING 165
SWIDTH 1500 0
DWIDTH 6 0
BBX 5 7 1 0
BITMAP
88
88
50
20
70
20
20
ENDCHAR
STARTCHAR BROKEN
ENCODING 166
SWIDTH 1500 0
DWIDTH 6 0
BBX 1 12 3 -2
BITMAP
80
80
80
80
80
00
00
80
80
80
80
80
ENDCHAR
STARTCHAR SECTION
ENCODING 167
SWIDTH 1500 0
DWIDTH 6 0
BBX 5 11 1 -2
BITMAP
78
80
80
70
88
88
88
70
08
08
F0
ENDCHAR
STARTCHAR DIAERESIS
ENCODING 168
SWIDTH 1500 0
DWIDTH 6 0
BBX 3 1 2 8
BITMAP
A0
ENDCHAR
STARTCHAR COPYRIGHT
ENCODING 169
SWIDTH 1500 0
DWIDTH 6 0
BBX 5 8 1 -1
BITMAP
70
88
B8
C8
C8
B8
88
70
ENDCHAR
STARTCHAR FEMININE
ENCODING 170
SWIDTH 1500 0
DWIDTH 6 0
BBX 5 5 1 3
BITMAP
70
08
78
88
78
ENDCHAR
STARTCHAR LEFT-POINTING
ENCODING 171
SWIDTH 1500 0
DWIDTH 6 0
BBX 5 5 1 1
BITMAP
28
50
A0
50
28
ENDCHAR
STARTCHAR NOT
ENCODING 172
SWIDTH 1500 0
DWIDTH 6 0
BBX 5 2 1 2
BITMAP
F8
08
ENDCHAR
STARTCHAR SOFT
ENCODING 173
SWIDTH 1500 0
DWIDTH 6 0
BBX 3 1 2 3
BITMAP
E0
ENDCHAR
STARTCHAR REGISTERED
ENCODING 174
SWIDTH 1500 0
DWIDTH 6 0
BBX 5 8 1 2
BITMAP
70
88
E8
D8
E8
D8
88
70
ENDCHAR
STARTCHAR MACRON
ENCODING 175
SWIDTH 1500 0
DWIDTH 6 0
BBX 5 1 1 7
BITMAP
F8
ENDCHAR
STARTCHAR DEGREE
ENCODING 176
SWIDTH 1500 0
DWIDTH 6 0
BBX 3 3 2 4
BITMAP
40
A0
40
ENDCHAR
STARTCHAR PLUS-MINUS
ENCODING 177
SWIDTH 1500 0
DWIDTH 6 0
BBX 5 7 1 0
BITMAP
20
20
F8
20
20
00
F8
ENDCHAR
STARTCHAR SUPERSCRIPT
ENCODING 178
SWIDTH 1500 0
DWIDTH 6 0
BBX 5 7 1 3
BITMAP
F0
08
08
10
20
40
F8
ENDCHAR
STARTCHAR SUPERSCRIPT
ENCODING 179
SWIDTH 1500 0
DWIDTH 6 0
BBX 5 7 1 3
BITMAP
F0
08
08
30
08
08
F0
ENDCHAR
STARTCHAR ACUTE
ENCODING 180
SWIDTH 1500 0
DWIDTH 6 0
BBX 3 3 2 5
BITMAP
20
40
80
ENDCHAR
STARTCHAR MICRO
ENCODING 181
SWIDTH 1500 0
DWIDTH 6 0
BBX 5 7 1 -2
BITMAP
88
88
88
88
F0
80
80
ENDCHAR
STARTCHAR PILCROW
ENCODING 182
SWIDTH 1500 0
DWIDTH 6 0
BBX 5 8 1 0
BITMAP
78
E8
E8
E8
68
28
28
28
ENDCHAR
STARTCHAR MIDDLE
ENCODING 183
SWIDTH 1500 0
DWIDTH 6 0
BBX 1 1 3 3
BITMAP
80
ENDCHAR
STARTCHAR CEDILLA
ENCODING 184
SWIDTH 1500 0
DWIDTH 6 0
BBX 2 2 2 -2
BITMAP
40
80
ENDCHAR
STARTCHAR SUPERSCRIPT
ENCODING 185
SWIDTH 1500 0
DWIDTH 6 0
BBX 3 7 2 3
BITMAP
20
60
A0
20
20
20
20
ENDCHAR
STARTCHAR MASCULINE
ENCODING 186
SWIDTH 1500 0
DWIDTH 6 0
BBX 5 5 1 3
BITMAP
70
88
88
88
70
ENDCHAR
STARTCHAR RIGHT-POINTING
ENCODING 187
SWIDTH 1500 0
DWIDTH 6 0
BBX 5 5 1 1
BITMAP
A0
50
28
50
A0
ENDCHAR
STARTCHAR VULGAR
ENCODING 188
SWIDTH 1500 0
DWIDTH 6 0
BBX 5 11 1 -2
BITMAP
40
C0
40
40
40
48
18
28
78
08
08
ENDCHAR
STARTCHAR VULGAR
ENCODING 189
SWIDTH 1500 0
DWIDTH 6 0
BBX 5 11 1 -2
BITMAP
40
C0
40
40
40
70
08
08
10
20
78
ENDCHAR
STARTCHAR VULGAR
ENCODING 190
SWIDTH 1500 0
DWIDTH 6 0
BBX 5 11 1 -2
BITMAP
E0
10
60
10
10
E8
18
28
78
08
08
ENDCHAR
STARTCHAR INVERTED
ENCODING 191
SWIDTH 1500 0
DWIDTH 6 0
BBX 5 7 1 -2
BITMAP
20
00
20
40
80
80
78
ENDCHAR
STARTCHAR LATIN
ENCODING 192
SWIDTH 1500 0
DWIDTH 6 0
BBX 5 10 1 0
BITMAP
40
20
00
70
88
88
88
F8
88
88
ENDCHAR
STARTCHAR LATIN
ENCODING 193
SWIDTH 1500 0
DWIDTH 6 0
BBX 5 10 1 0
BITMAP
10
20
00
70
88
88
88
F8
88
88
ENDCHAR
STARTCHAR LATIN
ENCODING 194
SWIDTH 1500 0
DWIDTH 6 0
BBX 5 10 1 0
BITMAP
20
50
00
70
88
88
88
F8
88
88
ENDCHAR
STARTCHAR LATIN
ENCODING 195
SWIDTH 1500 0
DWIDTH 6 0
BBX 5 10 1 0
BITMAP
28
50
00
70
88
88
88
F8
88
88
ENDCHAR
STARTCHAR LATIN
ENCODING 196
SWIDTH 1500 0
DWIDTH 6 0
BBX 5 9 1 0
BITMAP
50
00
70
88
88
88
F8
88
88
ENDCHAR
STARTCHAR LATIN
ENCODING 197
SWIDTH 1500 0
DWIDTH 6 0
BBX 5 10 1 0
BITMAP
20
50
20
70
88
88
88
F8
88
88
ENDCHAR
STARTCHAR LATIN
ENCODING 198
SWIDTH 1500 0
DWIDTH 6 0
BBX 5 7 1 0
BITMAP
78
A0
A0
B0
E0
A0
B8
ENDCHAR
STARTCHAR LATIN
ENCODING 199
SWIDTH 1500 0
DWIDTH 6 0
BBX 5 9 1 -2
BITMAP
78
80
80
80
80
80
78
10
30
ENDCHAR
STARTCHAR LATIN
ENCODING 200
SWIDTH 1500 0
DWIDTH 6 0
BBX 5 10 1 0
BITMAP
40
20
00
F8
80
80
E0
80
80
F8
ENDCHAR
STARTCHAR LATIN
ENCODING 201
SWIDTH 1500 0
DWIDTH 6 0
BBX 5 10 1 0
BITMAP
10
20
00
F8
80
80
E0
80
80
F8
ENDCHAR
STARTCHAR LATIN
ENCODING 202
SWIDTH 1500 0
DWIDTH 6 0
BBX 5 10 1 0
BITMAP
20
50
00
F8
80
80
E0
80
80
F8
ENDCHAR
STARTCHAR LATIN
ENCODING 203
SWIDTH 1500 0
DWIDTH 6 0
BBX 5 9 1 0
BITMAP
50
00
F8
80
80
E0
80
80
F8
ENDCHAR
STARTCHAR LATIN
ENCODING 204
SWIDTH 1500 0
DWIDTH 6 0
BBX 3 10 2 0
BITMAP
80
40
00
E0
40
40
40
40
40
E0
ENDCHAR
STARTCHAR LATIN
ENCODING 205
SWIDTH 1500 0
DWIDTH 6 0
BBX 3 10 2 0
BITMAP
20
40
00
E0
40
40
40
40
40
E0
ENDCHAR
STARTCHAR LATIN
ENCODING 206
SWIDTH 1500 0
DWIDTH 6 0
BBX 3 10 2 0
BITMAP
40
A0
00
E0
40
40
40
40
40
E0
ENDCHAR
STARTCHAR LATIN
ENCODING 207
SWIDTH 1500 0
DWIDTH 6 0
BBX 3 9 2 0
BITMAP
A0
00
E0
40
40
40
40
40
E0
ENDCHAR
STARTCHAR LATIN
ENCODING 208
SWIDTH 1500 0
DWIDTH 6 0
BBX 6 7 0 0
BITMAP
78
44
44
F4
44
44
78
ENDCHAR
STARTCHAR LATIN
ENCODING 209
SWIDTH 1500 0
DWIDTH 6 0
BBX 5 10 1 0
BITMAP
28
50
00
88
88
C8
A8
98
88
88
ENDCHAR
STARTCHAR LATIN
ENCODING 210
SWIDTH 1500 0
DWIDTH 6 0
BBX 5 10 1 0
BITMAP
40
20
00
70
88
88
88
88
88
70
ENDCHAR
STARTCHAR LATIN
ENCODING 211
SWIDTH 1500 0
DWIDTH 6 0
BBX 5 10 1 0
BITMAP
10
20
00
70
88
88
88
88
88
70
ENDCHAR
STARTCHAR LATIN
ENCODING 212
SWIDTH 1500 0
DWIDTH 6 0
BBX 5 10 1 0
BITMAP
20
50
00
70
88
88
88
88
88
70
ENDCHAR
STARTCHAR LATIN
ENCODING 213
SWIDTH 1500 0
DWIDTH 6 0
BBX 5 10 1 0
BITMAP
28
50
00
70
88
88
88
88
88
70
ENDCHAR
STARTCHAR LATIN
ENCODING 214
SWIDTH 1500 0
DWIDTH 6 0
BBX 5 9 1 0
BITMAP
50
00
70
88
88
88
88
88
70
ENDCHAR
STARTCHAR MULTIPLICATION
ENCODING 215
SWIDTH 1500 0
DWIDTH 6 0
BBX 5 5 1 1
BITMAP
88
50
20
50
88
ENDCHAR
STARTCHAR LATIN
ENCODING 216
SWIDTH 1500 0
DWIDTH 6 0
BBX 5 7 1 0
BITMAP
78
98
98
A8
C8
C8
F0
ENDCHAR
STARTCHAR LATIN
ENCODING 217
SWIDTH 1500 0
DWIDTH 6 0
BBX 5 10 1 0
BITMAP
40
20
00
88
88
88
88
88
88
70
ENDCHAR
STARTCHAR LATIN
ENCODING 218
SWIDTH 1500 0
DWIDTH 6 0
BBX 5 10 1 0
BITMAP
10
20
00
88
88
88
88
88
88
70
ENDCHAR
STARTCHAR LATIN
ENCODING 219
SWIDTH 1500 0
DWIDTH 6 0
BBX 5 10 1 0
BITMAP
20
50
00
88
88
88
88
88
88
70
ENDCHAR
STARTCHAR LATIN
ENCODING 220
SWIDTH 1500 0
DWIDTH 6 0
BBX 5 9 1 0
BITMAP
50
00
88
88
88
88
88
88
70
ENDCHAR
STARTCHAR LATIN
ENCODING 221
SWIDTH 1500 0
DWIDTH 6 0
BBX 5 10 1 0
BITMAP
10
20
00
88
88
50
20
20
20
20
ENDCHAR
STARTCHAR LATIN
ENCODING 222
SWIDTH 1500 0
DWIDTH 6 0
BBX 5 7 1 0
BITMAP
80
F0
88
88
88
F0
80
ENDCHAR
STARTCHAR LATIN
ENCODING 223
SWIDTH 1500 0
DWIDTH 6 0
BBX 5 8 1 0
BITMAP
60
90
90
A0
90
88
88
B0
ENDCHAR
STARTCHAR LATIN
ENCODING 224
SWIDTH 1500 0
DWIDTH 6 0
BBX 5 8 1 0
BITMAP
40
20
00
70
08
78
88
78
ENDCHAR
STARTCHAR LATIN
ENCODING 225
SWIDTH 1500 0
DWIDTH 6 0
BBX 5 8 1 0
BITMAP
10
20
00
70
08
78
88
78
ENDCHAR
STARTCHAR LATIN
ENCODING 226
SWIDTH 1500 0
DWIDTH 6 0
BBX 5 8 1 0
BITMAP
20
50
00
70
08
78
88
78
ENDCHAR
STARTCHAR LATIN
ENCODING 227
SWIDTH 1500 0
DWIDTH 6 0
BBX 5 8 1 0
BITMAP
28
50
00
70
08
78
88
78
ENDCHAR
STARTCHAR LATIN
ENCODING 228
SWIDTH 1500 0
DWIDTH 6 0
BBX 5 7 1 0
BITMAP
50
00
70
08
78
88
78
ENDCHAR
STARTCHAR LATIN
ENCODING 229
SWIDTH 1500 0
DWIDTH 6 0
BBX 5 9 1 0
BITMAP
20
50
20
00
70
08
78
88
78
ENDCHAR
STARTCHAR LATIN
ENCODING 230
SWIDTH 1500 0
DWIDTH 6 0
BBX 6 5 0 0
BITMAP
68
14
7C
90
6C
ENDCHAR
STARTCHAR LATIN
ENCODING 231
SWIDTH 1500 0
DWIDTH 6 0
BBX 5 7 1 -2
BITMAP
78
80
80
80
78
10
20
ENDCHAR
STARTCHAR LATIN
ENCODING 232
SWIDTH 1500 0
DWIDTH 6 0
BBX 5 8 1 0
BITMAP
40
20
00
70
88
F8
80
70
ENDCHAR
STARTCHAR LATIN
ENCODING 233
SWIDTH 1500 0
DWIDTH 6 0
BBX 5 8 1 0
BITMAP
10
20
00
70
88
F8
80
70
ENDCHAR
STARTCHAR LATIN
ENCODING 234
SWIDTH 1500 0
DWIDTH 6 0
BBX 5 8 1 0
BITMAP
20
50
00
70
88
F8
80
70
ENDCHAR
STARTCHAR LATIN
ENCODING 235
SWIDTH 1500 0
DWIDTH 6 0
BBX 5 7 1 0
BITMAP
50
00
70
88
F8
80
70
ENDCHAR
STARTCHAR LATIN
ENCODING 236
SWIDTH 1500 0
DWIDTH 6 0
BBX 2 8 2 0
BITMAP
80
40
00
C0
40
40
40
40
ENDCHAR
STARTCHAR LATIN
ENCODING 237
SWIDTH 1500 0
DWIDTH 6 0
BBX 3 8 2 0
BITMAP
20
40
00
C0
40
40
40
40
ENDCHAR
STARTCHAR LATIN
ENCODING 238
SWIDTH 1500 0
DWIDTH 6 0
BBX 3 8 2 0
BITMAP
40
A0
00
C0
40
40
40
40
ENDCHAR
STARTCHAR LATIN
ENCODING 239
SWIDTH 1500 0
DWIDTH 6 0
BBX 3 7 2 0
BITMAP
A0
00
C0
40
40
40
40
ENDCHAR
STARTCHAR LATIN
ENCODING 240
SWIDTH 1500 0
DWIDTH 6 0
BBX 5 9 1 0
BITMAP
50
20
50
08
78
88
88
88
70
ENDCHAR
STARTCHAR LATIN
ENCODING 241
SWIDTH 1500 0
DWIDTH 6 0
BBX 5 8 1 0
BITMAP
50
A0
00
F0
88
88
88
88
ENDCHAR
STARTCHAR LATIN
ENCODING 242
SWIDTH 1500 0
DWIDTH 6 0
BBX 5 8 1 0
BITMAP
40
20
00
70
88
88
88
70
ENDCHAR
STARTCHAR LATIN
ENCODING 243
SWIDTH 1500 0
DWIDTH 6 0
BBX 5 8 1 0
BITMAP
10
20
00
70
88
88
88
70
ENDCHAR
STARTCHAR LATIN
ENCODING 244
SWIDTH 1500 0
DWIDTH 6 0
BBX 5 8 1 0
BITMAP
20
50
00
70
88
88
88
70
ENDCHAR
STARTCHAR LATIN
ENCODING 245
SWIDTH 1500 0
DWIDTH 6 0
BBX 5 8 1 0
BITMAP
28
50
00
70
88
88
88
70
ENDCHAR
STARTCHAR LATIN
ENCODING 246
SWIDTH 1500 0
DWIDTH 6 0
BBX 5 7 1 0
BITMAP
50
00
70
88
88
88
70
ENDCHAR
STARTCHAR DIVISION
ENCODING 247
SWIDTH 1500 0
DWIDTH 6 0
BBX 5 5 1 1
BITMAP
20
00
F8
00
20
ENDCHAR
STARTCHAR LATIN
ENCODING 248
SWIDTH 1500 0
DWIDTH 6 0
BBX 5 5 1 0
BITMAP
78
98
A8
C8
F0
ENDCHAR
STARTCHAR LATIN
ENCODING 249
SWIDTH 1500 0
DWIDTH 6 0
BBX 5 8 1 0
BITMAP
40
20
00
88
88
88
88
78
ENDCHAR
STARTCHAR LATIN
ENCODING 250
SWIDTH 1500 0
DWIDTH 6 0
BBX 5 8 1 0
BITMAP
10
20
00
88
88
88
88
78
ENDCHAR
STARTCHAR LATIN
ENCODING 251
SWIDTH 1500 0
DWIDTH 6 0
BBX 5 8 1 0
BITMAP
20
50
00
88
88
88
88
78
ENDCHAR
STARTCHAR LATIN
ENCODING 252
SWIDTH 1500 0
DWIDTH 6 0
BBX 5 7 1 0
BITMAP
50
00
88
88
88
88
78
ENDCHAR
STARTCHAR LATIN
ENCODING 253
SWIDTH 1500 0
DWIDTH 6 0
BBX 5 10 1 -2
BITMAP
10
20
00
88
88
88
88
78
08
30
ENDCHAR
STARTCHAR LATIN
ENCODING 254
SWIDTH 1500 0
DWIDTH 6 0
BBX 5 9 1 -2
BITMAP
80
80
F0
88
88
88
F0
80
80
ENDCHAR
STARTCHAR LATIN
ENCODING 255
SWIDTH 1500 0
DWIDTH 6 0
BBX 5 9 1 -2
BITMAP
50
00
88
88
88
88
78
08
30
ENDCHAR
STARTCHAR LATIN
ENCODING 256
SWIDTH 1500 0
DWIDTH 6 0
BBX 5 9 1 0
BITMAP
70
00
70
88
88
88
F8
88
88
ENDCHAR
STARTCHAR LATIN
ENCODING 257
SWIDTH 1500 0
DWIDTH 6 0
BBX 5 7 1 0
BITMAP
70
00
70
08
78
88
78
ENDCHAR
STARTCHAR LATIN
ENCODING 258
SWIDTH 1500 0
DWIDTH 6 0
BBX 5 10 1 0
BITMAP
88
70
00
70
88
88
88
F8
88
88
ENDCHAR
STARTCHAR LATIN
ENCODING 259
SWIDTH 1500 0
DWIDTH 6 0
BBX 5 8 1 0
BITMAP
48
30
00
70
08
78
88
78
ENDCHAR
STARTCHAR LATIN
ENCODING 260
SWIDTH 1500 0
DWIDTH 6 0
BBX 5 9 1 -2
BITMAP
70
88
88
88
F8
88
88
10
08
ENDCHAR
STARTCHAR LATIN
ENCODING 261
SWIDTH 1500 0
DWIDTH 6 0
BBX 5 7 1 -2
BITMAP
70
08
78
88
78
10
08
ENDCHAR
STARTCHAR LATIN
ENCODING 262
SWIDTH 1500 0
DWIDTH 6 0
BBX 5 10 1 0
BITMAP
10
20
00
78
80
80
80
80
80
78
ENDCHAR
STARTCHAR LATIN
ENCODING 263
SWIDTH 1500 0
DWIDTH 6 0
BBX 5 8 1 0
BITMAP
10
20
00
78
80
80
80
78
ENDCHAR
STARTCHAR LATIN
ENCODING 264
SWIDTH 1500 0
DWIDTH 6 0
BBX 5 10 1 0
BITMAP
20
50
00
78
80
80
80
80
80
78
ENDCHAR
STARTCHAR LATIN
ENCODING 265
SWIDTH 1500 0
DWIDTH 6 0
BBX 5 8 1 0
BITMAP
20
50
00
78
80
80
80
78
ENDCHAR
STARTCHAR LATIN
ENCODING 266
SWIDTH 1500 0
DWIDTH 6 0
BBX 5 9 1 0
BITMAP
20
00
78
80
80
80
80
80
78
ENDCHAR
STARTCHAR LATIN
ENCODING 267
SWIDTH 1500 0
DWIDTH 6 0
BBX 5 7 1 0
BITMAP
20
00
78
80
80
80
78
ENDCHAR
STARTCHAR LATIN
ENCODING 268
SWIDTH 1500 0
DWIDTH 6 0
BBX 5 10 1 0
BITMAP
50
20
00
78
80
80
80
80
80
78
ENDCHAR
STARTCHAR LATIN
ENCODING 269
SWIDTH 1500 0
DWIDTH 6 0
BBX 5 8 1 0
BITMAP
50
20
00
78
80
80
80
78
ENDCHAR
STARTCHAR LATIN
ENCODING 270
SWIDTH 1500 0
DWIDTH 6 0
BBX 5 10 1 0
BITMAP
50
20
00
F0
88
88
88
88
88
F0
ENDCHAR
STARTCHAR LATIN
ENCODING 271
SWIDTH 1500 0
DWIDTH 6 0
BBX 5 10 1 0
BITMAP
08
10
00
08
08
78
88
88
88
78
ENDCHAR
STARTCHAR LATIN
ENCODING 272
SWIDTH 1500 0
DWIDTH 6 0
BBX 6 7 0 0
BITMAP
78
44
44
F4
44
44
78
ENDCHAR
STARTCHAR LATIN
ENCODING 273
SWIDTH 1500 0
DWIDTH 6 0
BBX 5 8 1 0
BITMAP
08
38
08
78
88
88
88
78
ENDCHAR
STARTCHAR LATIN
ENCODING 274
SWIDTH 1500 0
DWIDTH 6 0
BBX 5 9 1 0
BITMAP
70
00
F8
80
80
E0
80
80
F8
ENDCHAR
STARTCHAR LATIN
ENCODING 275
SWIDTH 1500 0
DWIDTH 6 0
BBX 5 7 1 0
BITMAP
70
00
70
88
F8
80
70
ENDCHAR
STARTCHAR LATIN
ENCODING 276
SWIDTH 1500 0
DWIDTH 6 0
BBX 5 10 1 0
BITMAP
88
70
00
F8
80
80
E0
80
80
F8
ENDCHAR
STARTCHAR LATIN
ENCODING 277
SWIDTH 1500 0
DWIDTH 6 0
BBX 5 8 1 0
BITMAP
88
70
00
70
88
F8
80
70
ENDCHAR
STARTCHAR LATIN
ENCODING 278
SWIDTH 1500 0
DWIDTH 6 0
BBX 5 9 1 0
BITMAP
20
00
F8
80
80
E0
80
80
F8
ENDCHAR
STARTCHAR LATIN
ENCODING 279
SWIDTH 1500 0
DWIDTH 6 0
BBX 5 7 1 0
BITMAP
20
00
70
88
F8
80
70
ENDCHAR
STARTCHAR LATIN
ENCODING 280
SWIDTH 1500 0
DWIDTH 6 0
BBX 5 9 1 -2
BITMAP
F8
80
80
E0
80
80
F8
10
08
ENDCHAR
STARTCHAR LATIN
ENCODING 281
SWIDTH 1500 0
DWIDTH 6 0
BBX 5 7 1 -2
BITMAP
70
88
F8
80
70
10
08
ENDCHAR
STARTCHAR LATIN
ENCODING 282
SWIDTH 1500 0
DWIDTH 6 0
BBX 5 10 1 0
BITMAP
50
20
00
F8
80
80
E0
80
80
F8
ENDCHAR
STARTCHAR LATIN
ENCODING 283
SWIDTH 1500 0
DWIDTH 6 0
BBX 5 8 1 0
BITMAP
50
20
00
70
88
F8
80
70
ENDCHAR
STARTCHAR LATIN
ENCODING 284
SWIDTH 1500 0
DWIDTH 6 0
BBX 5 10 1 0
BITMAP
20
50
00
78
80
80
98
88
88
78
ENDCHAR
STARTCHAR LATIN
ENCODING 285
SWIDTH 1500 0
DWIDTH 6 0
BBX 5 10 1 -2
BITMAP
20
50
00
78
88
88
88
78
08
30
ENDCHAR
STARTCHAR LATIN
ENCODING 286
SWIDTH 1500 0
DWIDTH 6 0
BBX 5 10 1 0
BITMAP
48
30
00
78
80
80
98
88
88
78
ENDCHAR
STARTCHAR LATIN
ENCODING 287
SWIDTH 1500 0
DWIDTH 6 0
BBX 5 10 1 -2
BITMAP
48
30
00
78
88
88
88
78
08
30
ENDCHAR
STARTCHAR LATIN
ENCODING 288
SWIDTH 1500 0
DWIDTH 6 0
BBX 5 9 1 0
BITMAP
20
00
78
80
80
98
88
88
78
ENDCHAR
STARTCHAR LATIN
ENCODING 289
SWIDTH 1500 0
DWIDTH 6 0
BBX 5 9 1 -2
BITMAP
20
00
78
88
88
88
78
08
30
ENDCHAR
STARTCHAR LATIN
ENCODING 290
SWIDTH 1500 0
DWIDTH 6 0
BBX 5 9 1 -2
BITMAP
78
80
80
98
88
88
78
10
20
ENDCHAR
STARTCHAR LATIN
ENCODING 291
SWIDTH 1500 0
DWIDTH 6 0
BBX 5 10 1 -2
BITMAP
10
20
00
78
88
88
88
78
08
30
ENDCHAR
STARTCHAR LATIN
ENCODING 292
SWIDTH 1500 0
DWIDTH 6 0
BBX 5 10 1 0
BITMAP
20
50
00
88
88
88
F8
88
88
88
ENDCHAR
STARTCHAR LATIN
ENCODING 293
SWIDTH 1500 0
DWIDTH 6 0
BBX 5 10 1 0
BITMAP
20
50
80
80
80
F0
88
88
88
88
ENDCHAR
STARTCHAR LATIN
ENCODING 294
SWIDTH 1500 0
DWIDTH 6 0
BBX 5 7 1 0
BITMAP
88
F8
88
F8
88
88
88
ENDCHAR
STARTCHAR LATIN
ENCODING 295
SWIDTH 1500 0
DWIDTH 6 0
BBX 5 8 1 0
BITMAP
80
E0
80
F0
88
88
88
88
ENDCHAR
STARTCHAR LATIN
ENCODING 296
SWIDTH 1500 0
DWIDTH 6 0
BBX 4 10 2 0
BITMAP
50
A0
00
E0
40
40
40
40
40
E0
ENDCHAR
STARTCHAR LATIN
ENCODING 297
SWIDTH 1500 0
DWIDTH 6 0
BBX 4 8 1 0
BITMAP
50
A0
00
60
20
20
20
20
ENDCHAR
STARTCHAR LATIN
ENCODING 298
SWIDTH 1500 0
DWIDTH 6 0
BBX 3 9 2 0
BITMAP
E0
00
E0
40
40
40
40
40
E0
ENDCHAR
STARTCHAR LATIN
ENCODING 299
SWIDTH 1500 0
DWIDTH 6 0
BBX 2 7 2 0
BITMAP
C0
00
C0
40
40
40
40
ENDCHAR
STARTCHAR LATIN
ENCODING 300
SWIDTH 1500 0
DWIDTH 6 0
BBX 5 10 1 0
BITMAP
88
70
00
70
20
20
20
20
20
70
ENDCHAR
STARTCHAR LATIN
ENCODING 301
SWIDTH 1500 0
DWIDTH 6 0
BBX 4 8 1 0
BITMAP
90
60
00
60
20
20
20
20
ENDCHAR
STARTCHAR LATIN
ENCODING 302
SWIDTH 1500 0
DWIDTH 6 0
BBX 3 9 2 -2
BITMAP
E0
40
40
40
40
40
E0
40
20
ENDCHAR
STARTCHAR LATIN
ENCODING 303
SWIDTH 1500 0
DWIDTH 6 0
BBX 3 9 2 -2
BITMAP
40
00
C0
40
40
40
40
40
20
ENDCHAR
STARTCHAR LATIN
ENCODING 304
SWIDTH 1500 0
DWIDTH 6 0
BBX 3 9 2 0
BITMAP
40
00
E0
40
40
40
40
40
E0
ENDCHAR
STARTCHAR LATIN
ENCODING 305
SWIDTH 1500 0
DWIDTH 6 0
BBX 2 5 2 0
BITMAP
C0
40
40
40
40
ENDCHAR
STARTCHAR LATIN
ENCODING 306
SWIDTH 1500 0
DWIDTH 6 0
BBX 5 7 1 0
BITMAP
E8
48
48
48
48
48
F0
ENDCHAR
STARTCHAR LATIN
ENCODING 307
SWIDTH 1500 0
DWIDTH 6 0
BBX 5 9 1 -2
BITMAP
48
00
D8
48
48
48
48
08
10
ENDCHAR
STARTCHAR LATIN
ENCODING 308
SWIDTH 1500 0
DWIDTH 6 0
BBX 5 10 1 0
BITMAP
10
28
00
08
08
08
08
08
88
70
ENDCHAR
STARTCHAR LATIN
ENCODING 309
SWIDTH 1500 0
DWIDTH 6 0
BBX 3 10 2 -2
BITMAP
40
A0
00
C0
40
40
40
40
40
80
ENDCHAR
STARTCHAR LATIN
ENCODING 310
SWIDTH 1500 0
DWIDTH 6 0
BBX 5 9 1 -2
BITMAP
88
90
A0
C0
A0
90
88
20
40
ENDCHAR
STARTCHAR LATIN
ENCODING 311
SWIDTH 1500 0
DWIDTH 6 0
BBX 4 10 2 -2
BITMAP
80
80
80
90
A0
C0
A0
90
20
40
ENDCHAR
STARTCHAR LATIN
ENCODING 312
SWIDTH 1500 0
DWIDTH 6 0
BBX 4 5 2 0
BITMAP
90
A0
C0
A0
90
ENDCHAR
STARTCHAR LATIN
ENCODING 313
SWIDTH 1500 0
DWIDTH 6 0
BBX 5 10 1 0
BITMAP
40
80
00
80
80
80
80
80
80
F8
ENDCHAR
STARTCHAR LATIN
ENCODING 314
SWIDTH 1500 0
DWIDTH 6 0
BBX 3 10 2 0
BITMAP
40
80
00
80
80
80
80
80
80
60
ENDCHAR
STARTCHAR LATIN
ENCODING 315
SWIDTH 1500 0
DWIDTH 6 0
BBX 5 9 1 -2
BITMAP
80
80
80
80
80
80
F8
20
40
ENDCHAR
STARTCHAR LATIN
ENCODING 316
SWIDTH 1500 0
DWIDTH 6 0
BBX 3 10 2 -2
BITMAP
80
80
80
80
80
80
80
60
40
80
ENDCHAR
STARTCHAR LATIN
ENCODING 317
SWIDTH 1500 0
DWIDTH 6 0
BBX 5 7 1 0
BITMAP
90
A0
80
80
80
80
F8
ENDCHAR
STARTCHAR LATIN
ENCODING 318
SWIDTH 1500 0
DWIDTH 6 0
BBX 4 8 2 0
BITMAP
90
A0
80
80
80
80
80
60
ENDCHAR
STARTCHAR LATIN
ENCODING 319
SWIDTH 1500 0
DWIDTH 6 0
BBX 5 7 1 0
BITMAP
80
80
90
80
80
80
F8
ENDCHAR
STARTCHAR LATIN
ENCODING 320
SWIDTH 1500 0
DWIDTH 6 0
BBX 3 8 2 0
BITMAP
80
80
A0
80
80
80
80
60
ENDCHAR
STARTCHAR LATIN
ENCODING 321
SWIDTH 1500 0
DWIDTH 6 0
BBX 6 7 0 0
BITMAP
40
50
60
40
C0
40
7C
ENDCHAR
STARTCHAR LATIN
ENCODING 322
SWIDTH 1500 0
DWIDTH 6 0
BBX 4 8 1 0
BITMAP
40
40
40
60
C0
40
40
30
ENDCHAR
STARTCHAR LATIN
ENCODING 323
SWIDTH 1500 0
DWIDTH 6 0
BBX 5 10 1 0
BITMAP
10
20
00
88
88
C8
A8
98
88
88
ENDCHAR
STARTCHAR LATIN
ENCODING 324
SWIDTH 1500 0
DWIDTH 6 0
BBX 5 8 1 0
BITMAP
10
20
00
F0
88
88
88
88
ENDCHAR
STARTCHAR LATIN
ENCODING 325
SWIDTH 1500 0
DWIDTH 6 0
BBX 5 9 1 -2
BITMAP
88
88
C8
A8
98
88
88
20
40
ENDCHAR
STARTCHAR LATIN
ENCODING 326
SWIDTH 1500 0
DWIDTH 6 0
BBX 5 7 1 -2
BITMAP
F0
88
88
88
88
20
40
ENDCHAR
STARTCHAR LATIN
ENCODING 327
SWIDTH 1500 0
DWIDTH 6 0
BBX 5 10 1 0
BITMAP
50
20
00
88
88
C8
A8
98
88
88
ENDCHAR
STARTCHAR LATIN
ENCODING 328
SWIDTH 1500 0
DWIDTH 6 0
BBX 5 8 1 0
BITMAP
50
20
00
F0
88
88
88
88
ENDCHAR
STARTCHAR LATIN
ENCODING 329
SWIDTH 1500 0
DWIDTH 6 0
BBX 6 7 0 0
BITMAP
40
80
78
44
44
44
44
ENDCHAR
STARTCHAR LATIN
ENCODING 330
SWIDTH 1500 0
DWIDTH 6 0
BBX 5 9 1 -2
BITMAP
88
88
C8
A8
98
88
88
08
10
ENDCHAR
STARTCHAR LATIN
ENCODING 331
SWIDTH 1500 0
DWIDTH 6 0
BBX 5 7 1 -2
BITMAP
F0
88
88
88
88
08
10
ENDCHAR
STARTCHAR LATIN
ENCODING 332
SWIDTH 1500 0
DWIDTH 6 0
BBX 5 9 1 0
BITMAP
70
00
70
88
88
88
88
88
70
ENDCHAR
STARTCHAR LATIN
ENCODING 333
SWIDTH 1500 0
DWIDTH 6 0
BBX 5 7 1 0
BITMAP
70
00
70
88
88
88
70
ENDCHAR
STARTCHAR LATIN
ENCODING 334
SWIDTH 1500 0
DWIDTH 6 0
BBX 5 10 1 0
BITMAP
88
70
00
70
88
88
88
88
88
70
ENDCHAR
STARTCHAR LATIN
ENCODING 335
SWIDTH 1500 0
DWIDTH 6 0
BBX 5 8 1 0
BITMAP
88
70
00
70
88
88
88
70
ENDCHAR
STARTCHAR LATIN
ENCODING 336
SWIDTH 1500 0
DWIDTH 6 0
BBX 5 10 1 0
BITMAP
48
90
00
70
88
88
88
88
88
70
ENDCHAR
STARTCHAR LATIN
ENCODING 337
SWIDTH 1500 0
DWIDTH 6 0
BBX 5 8 1 0
BITMAP
48
90
00
70
88
88
88
70
ENDCHAR
STARTCHAR LATIN
ENCODING 338
SWIDTH 1500 0
DWIDTH 6 0
BBX 5 7 1 0
BITMAP
78
A0
A0
B0
A0
A0
78
ENDCHAR
STARTCHAR LATIN
ENCODING 339
SWIDTH 1500 0
DWIDTH 6 0
BBX 5 5 1 0
BITMAP
50
A8
B8
A0
50
ENDCHAR
STARTCHAR LATIN
ENCODING 340
SWIDTH 1500 0
DWIDTH 6 0
BBX 5 10 1 0
BITMAP
10
20
00
F0
88
88
88
F0
90
88
ENDCHAR
STARTCHAR LATIN
ENCODING 341
SWIDTH 1500 0
DWIDTH 6 0
BBX 5 8 1 0
BITMAP
10
20
00
B8
C0
80
80
80
ENDCHAR
STARTCHAR LATIN
ENCODING 342
SWIDTH 1500 0
DWIDTH 6 0
BBX 5 9 1 -2
BITMAP
F0
88
88
88
F0
90
88
20
40
ENDCHAR
STARTCHAR LATIN
ENCODING 343
SWIDTH 1500 0
DWIDTH 6 0
BBX 5 7 1 -2
BITMAP
B8
C0
80
80
80
40
80
ENDCHAR
STARTCHAR LATIN
ENCODING 344
SWIDTH 1500 0
DWIDTH 6 0
BBX 5 10 1 0
BITMAP
50
20
00
F0
88
88
88
F0
90
88
ENDCHAR
STARTCHAR LATIN
ENCODING 345
SWIDTH 1500 0
DWIDTH 6 0
BBX 5 8 1 0
BITMAP
50
20
00
B8
C0
80
80
80
ENDCHAR
STARTCHAR LATIN
ENCODING 346
SWIDTH 1500 0
DWIDTH 6 0
BBX 5 10 1 0
BITMAP
10
20
00
78
80
80
70
08
08
F0
ENDCHAR
STARTCHAR LATIN
ENCODING 347
SWIDTH 1500 0
DWIDTH 6 0
BBX 5 8 1 0
BITMAP
10
20
00
78
80
70
08
F0
ENDCHAR
STARTCHAR LATIN
ENCODING 348
SWIDTH 1500 0
DWIDTH 6 0
BBX 5 10 1 0
BITMAP
20
50
00
78
80
80
70
08
08
F0
ENDCHAR
STARTCHAR LATIN
ENCODING 349
SWIDTH 1500 0
DWIDTH 6 0
BBX 5 8 1 0
BITMAP
20
50
00
78
80
70
08
F0
ENDCHAR
STARTCHAR LATIN
ENCODING 350
SWIDTH 1500 0
DWIDTH 6 0
BBX 5 9 1 -2
BITMAP
78
80
80
70
08
08
F0
20
40
ENDCHAR
STARTCHAR LATIN
ENCODING 351
SWIDTH 1500 0
DWIDTH 6 0
BBX 5 7 1 -2
BITMAP
78
80
70
08
F0
20
40
ENDCHAR
STARTCHAR LATIN
ENCODING 352
SWIDTH 1500 0
DWIDTH 6 0
BBX 5 10 1 0
BITMAP
50
20
00
78
80
80
70
08
08
F0
ENDCHAR
STARTCHAR LATIN
ENCODING 353
SWIDTH 1500 0
DWIDTH 6 0
BBX 5 8 1 0
BITMAP
50
20
00
78
80
70
08
F0
ENDCHAR
STARTCHAR LATIN
ENCODING 354
SWIDTH 1500 0
DWIDTH 6 0
BBX 5 9 1 -2
BITMAP
F8
20
20
20
20
20
20
20
40
ENDCHAR
STARTCHAR LATIN
ENCODING 355
SWIDTH 1500 0
DWIDTH 6 0
BBX 4 10 2 -2
BITMAP
40
40
40
E0
40
40
40
30
20
40
ENDCHAR
STARTCHAR LATIN
ENCODING 356
SWIDTH 1500 0
DWIDTH 6 0
BBX 5 10 1 0
BITMAP
50
20
00
F8
20
20
20
20
20
20
ENDCHAR
STARTCHAR LATIN
ENCODING 357
SWIDTH 1500 0
DWIDTH 6 0
BBX 4 9 2 0
BITMAP
10
60
40
40
E0
40
40
40
30
ENDCHAR
STARTCHAR LATIN
ENCODING 358
SWIDTH 1500 0
DWIDTH 6 0
BBX 5 7 1 0
BITMAP
F8
20
20
70
20
20
20
ENDCHAR
STARTCHAR LATIN
ENCODING 359
SWIDTH 1500 0
DWIDTH 6 0
BBX 4 8 2 0
BITMAP
40
40
E0
40
E0
40
40
30
ENDCHAR
STARTCHAR LATIN
ENCODING 360
SWIDTH 1500 0
DWIDTH 6 0
BBX 5 10 1 0
BITMAP
28
50
00
88
88
88
88
88
88
70
ENDCHAR
STARTCHAR LATIN
ENCODING 361
SWIDTH 1500 0
DWIDTH 6 0
BBX 5 8 1 0
BITMAP
28
50
00
88
88
88
88
78
ENDCHAR
STARTCHAR LATIN
ENCODING 362
SWIDTH 1500 0
DWIDTH 6 0
BBX 5 9 1 0
BITMAP
70
00
88
88
88
88
88
88
70
ENDCHAR
STARTCHAR LATIN
ENCODING 363
SWIDTH 1500 0
DWIDTH 6 0
BBX 5 7 1 0
BITMAP
70
00
88
88
88
88
78
ENDCHAR
STARTCHAR LATIN
ENCODING 364
SWIDTH 1500 0
DWIDTH 6 0
BBX 5 10 1 0
BITMAP
88
70
00
88
88
88
88
88
88
70
ENDCHAR
STARTCHAR LATIN
ENCODING 365
SWIDTH 1500 0
DWIDTH 6 0
BBX 5 8 1 0
BITMAP
88
70
00
88
88
88
88
78
ENDCHAR
STARTCHAR LATIN
ENCODING 366
SWIDTH 1500 0
DWIDTH 6 0
BBX 5 10 1 0
BITMAP
20
50
20
88
88
88
88
88
88
70
ENDCHAR
STARTCHAR LATIN
ENCODING 367
SWIDTH 1500 0
DWIDTH 6 0
BBX 5 9 1 0
BITMAP
20
50
20
00
88
88
88
88
78
ENDCHAR
STARTCHAR LATIN
ENCODING 368
SWIDTH 1500 0
DWIDTH 6 0
BBX 5 10 1 0
BITMAP
48
90
00
88
88
88
88
88
88
70
ENDCHAR
STARTCHAR LATIN
ENCODING 369
SWIDTH 1500 0
DWIDTH 6 0
BBX 5 8 1 0
BITMAP
48
90
00
88
88
88
88
78
ENDCHAR
STARTCHAR LATIN
ENCODING 370
SWIDTH 1500 0
DWIDTH 6 0
BBX 5 9 1 -2
BITMAP
88
88
88
88
88
88
70
20
10
ENDCHAR
STARTCHAR LATIN
ENCODING 371
SWIDTH 1500 0
DWIDTH 6 0
BBX 5 7 1 -2
BITMAP
88
88
88
88
78
10
08
ENDCHAR
STARTCHAR LATIN
ENCODING 372
SWIDTH 1500 0
DWIDTH 6 0
BBX 5 10 1 0
BITMAP
20
50
00
88
88
88
88
A8
D8
88
ENDCHAR
STARTCHAR LATIN
ENCODING 373
SWIDTH 1500 0
DWIDTH 6 0
BBX 5 8 1 0
BITMAP
20
50
00
88
88
A8
D8
88
ENDCHAR
STARTCHAR LATIN
ENCODING 374
SWIDTH 1500 0
DWIDTH 6 0
BBX 5 10 1 0
BITMAP
20
50
00
88
88
50
20
20
20
20
ENDCHAR
STARTCHAR LATIN
ENCODING 375
SWIDTH 1500 0
DWIDTH 6 0
BBX 5 10 1 -2
BITMAP
20
50
00
88
88
88
88
78
08
30
ENDCHAR
STARTCHAR LATIN
ENCODING 376
SWIDTH 1500 0
DWIDTH 6 0
BBX 5 9 1 0
BITMAP
50
00
88
88
50
20
20
20
20
ENDCHAR
STARTCHAR LATIN
ENCODING 377
SWIDTH 1500 0
DWIDTH 6 0
BBX 5 10 1 0
BITMAP
10
20
00
F8
08
10
20
40
80
F8
ENDCHAR
STARTCHAR LATIN
ENCODING 378
SWIDTH 1500 0
DWIDTH 6 0
BBX 5 8 1 0
BITMAP
10
20
00
F8
10
20
40
F8
ENDCHAR
STARTCHAR LATIN
ENCODING 379
SWIDTH 1500 0
DWIDTH 6 0
BBX 5 9 1 0
BITMAP
20
00
F8
08
10
20
40
80
F8
ENDCHAR
STARTCHAR LATIN
ENCODING 380
SWIDTH 1500 0
DWIDTH 6 0
BBX 5 7 1 0
BITMAP
20
00
F8
10
20
40
F8
ENDCHAR
STARTCHAR LATIN
ENCODING 381
SWIDTH 1500 0
DWIDTH 6 0
BBX 5 10 1 0
BITMAP
50
20
00
F8
08
10
20
40
80
F8
ENDCHAR
STARTCHAR LATIN
ENCODING 382
SWIDTH 1500 0
DWIDTH 6 0
BBX 5 8 1 0
BITMAP
50
20
00
F8
10
20
40
F8
ENDCHAR
STARTCHAR LATIN
ENCODING 383
SWIDTH 1500 0
DWIDTH 6 0
BBX 3 8 2 0
BITMAP
60
80
80
80
80
80
80
80
ENDCHAR
STARTCHAR LATIN
ENCODING 398
SWIDTH 1500 0
DWIDTH 6 0
BBX 5 7 1 0
BITMAP
F8
08
08
38
08
08
F8
ENDCHAR
STARTCHAR LATIN
ENCODING 399
SWIDTH 1500 0
DWIDTH 6 0
BBX 5 7 1 0
BITMAP
70
08
08
F8
88
88
70
ENDCHAR
STARTCHAR LATIN
ENCODING 402
SWIDTH 1500 0
DWIDTH 6 0
BBX 5 10 1 -2
BITMAP
18
20
20
70
20
20
20
20
20
C0
ENDCHAR
STARTCHAR LATIN
ENCODING 416
SWIDTH 1500 0
DWIDTH 6 0
BBX 5 8 1 0
BITMAP
08
68
98
90
90
90
90
60
ENDCHAR
STARTCHAR LATIN
ENCODING 417
SWIDTH 1500 0
DWIDTH 6 0
BBX 5 6 1 0
BITMAP
08
68
98
90
90
60
ENDCHAR
STARTCHAR LATIN
ENCODING 431
SWIDTH 1500 0
DWIDTH 6 0
BBX 5 8 1 0
BITMAP
08
98
98
90
90
90
90
60
ENDCHAR
STARTCHAR LATIN
ENCODING 432
SWIDTH 1500 0
DWIDTH 6 0
BBX 5 6 1 0
BITMAP
08
98
98
90
90
70
ENDCHAR
STARTCHAR LATIN
ENCODING 437
SWIDTH 1500 0
DWIDTH 6 0
BBX 5 7 1 0
BITMAP
F8
08
10
F8
40
80
F8
ENDCHAR
STARTCHAR LATIN
ENCODING 438
SWIDTH 1500 0
DWIDTH 6 0
BBX 5 5 1 0
BITMAP
F8
10
F8
40
F8
ENDCHAR
STARTCHAR LATIN
ENCODING 461
SWIDTH 1500 0
DWIDTH 6 0
BBX 5 10 1 0
BITMAP
50
20
00
70
88
88
88
F8
88
88
ENDCHAR
STARTCHAR LATIN
ENCODING 462
SWIDTH 1500 0
DWIDTH 6 0
BBX 5 8 1 0
BITMAP
50
20
00
70
08
78
88
78
ENDCHAR
STARTCHAR LATIN
ENCODING 463
SWIDTH 1500 0
DWIDTH 6 0
BBX 3 10 2 0
BITMAP
A0
40
00
E0
40
40
40
40
40
E0
ENDCHAR
STARTCHAR LATIN
ENCODING 464
SWIDTH 1500 0
DWIDTH 6 0
BBX 3 8 2 0
BITMAP
A0
40
00
C0
40
40
40
40
ENDCHAR
STARTCHAR LATIN
ENCODING 465
SWIDTH 1500 0
DWIDTH 6 0
BBX 5 10 1 0
BITMAP
50
20
00
70
88
88
88
88
88
70
ENDCHAR
STARTCHAR LATIN
ENCODING 466
SWIDTH 1500 0
DWIDTH 6 0
BBX 5 8 1 0
BITMAP
50
20
00
70
88
88
88
70
ENDCHAR
STARTCHAR LATIN
ENCODING 467
SWIDTH 1500 0
DWIDTH 6 0
BBX 5 10 1 0
BITMAP
50
20
00
88
88
88
88
88
88
70
ENDCHAR
STARTCHAR LATIN
ENCODING 468
SWIDTH 1500 0
DWIDTH 6 0
BBX 5 8 1 0
BITMAP
50
20
00
88
88
88
88
78
ENDCHAR
STARTCHAR LATIN
ENCODING 469
SWIDTH 1500 0
DWIDTH 6 0
BBX 5 10 1 0
BITMAP
70
00
50
00
88
88
88
88
88
70
ENDCHAR
STARTCHAR LATIN
ENCODING 470
SWIDTH 1500 0
DWIDTH 6 0
BBX 5 9 1 0
BITMAP
70
00
50
00
88
88
88
88
78
ENDCHAR
STARTCHAR LATIN
ENCODING 471
SWIDTH 1500 0
DWIDTH 6 0
BBX 5 10 1 0
BITMAP
10
20
88
00
88
88
88
88
88
70
ENDCHAR
STARTCHAR LATIN
ENCODING 472
SWIDTH 1500 0
DWIDTH 6 0
BBX 5 10 1 0
BITMAP
10
20
00
50
00
88
88
88
88
78
ENDCHAR
STARTCHAR LATIN
ENCODING 473
SWIDTH 1500 0
DWIDTH 6 0
BBX 5 10 1 0
BITMAP
50
20
88
00
88
88
88
88
88
70
ENDCHAR
STARTCHAR LATIN
ENCODING 474
SWIDTH 1500 0
DWIDTH 6 0
BBX 5 10 1 0
BITMAP
50
20
00
50
00
88
88
88
88
78
ENDCHAR
STARTCHAR LATIN
ENCODING 475
SWIDTH 1500 0
DWIDTH 6 0
BBX 5 10 1 0
BITMAP
40
20
88
00
88
88
88
88
88
70
ENDCHAR
STARTCHAR LATIN
ENCODING 476
SWIDTH 1500 0
DWIDTH 6 0
BBX 5 10 1 0
BITMAP
40
20
00
50
00
88
88
88
88
78
ENDCHAR
STARTCHAR LATIN
ENCODING 477
SWIDTH 1500 0
DWIDTH 6 0
BBX 5 5 1 0
BITMAP
70
08
F8
88
70
ENDCHAR
STARTCHAR LATIN
ENCODING 506
SWIDTH 1500 0
DWIDTH 6 0
BBX 5 10 1 0
BITMAP
10
20
50
70
88
88
88
F8
88
88
ENDCHAR
STARTCHAR LATIN
ENCODING 507
SWIDTH 1500 0
DWIDTH 6 0
BBX 5 10 1 0
BITMAP
10
20
20
50
20
78
08
78
88
78
ENDCHAR
STARTCHAR LATIN
ENCODING 508
SWIDTH 1500 0
DWIDTH 6 0
BBX 5 10 1 0
BITMAP
10
20
00
78
A0
A0
B0
E0
A0
B8
ENDCHAR
STARTCHAR LATIN
ENCODING 509
SWIDTH 1500 0
DWIDTH 6 0
BBX 6 8 0 0
BITMAP
08
10
00
68
14
7C
90
7C
ENDCHAR
STARTCHAR LATIN
ENCODING 510
SWIDTH 1500 0
DWIDTH 6 0
BBX 5 10 1 0
BITMAP
10
20
00
78
98
98
A8
C8
C8
F0
ENDCHAR
STARTCHAR LATIN
ENCODING 511
SWIDTH 1500 0
DWIDTH 6 0
BBX 5 8 1 0
BITMAP
10
20
00
78
98
A8
C8
F0
ENDCHAR
STARTCHAR LATIN
ENCODING 536
SWIDTH 1500 0
DWIDTH 6 0
BBX 5 9 1 -2
BITMAP
78
80
80
70
08
08
F0
20
40
ENDCHAR
STARTCHAR LATIN
ENCODING 537
SWIDTH 1500 0
DWIDTH 6 0
BBX 5 7 1 -2
BITMAP
78
80
70
08
F0
20
40
ENDCHAR
STARTCHAR LATIN
ENCODING 538
SWIDTH 1500 0
DWIDTH 6 0
BBX 5 9 1 -2
BITMAP
F8
20
20
20
20
20
20
20
40
ENDCHAR
STARTCHAR LATIN
ENCODING 539
SWIDTH 1500 0
DWIDTH 6 0
BBX 4 10 1 -2
BITMAP
40
40
40
E0
40
40
40
30
20
40
ENDCHAR
STARTCHAR LATIN
ENCODING 592
SWIDTH 1500 0
DWIDTH 6 0
BBX 5 5 1 0
BITMAP
F0
88
F0
80
70
ENDCHAR
STARTCHAR LATIN
ENCODING 593
SWIDTH 1500 0
DWIDTH 6 0
BBX 5 5 1 0
BITMAP
78
88
88
88
78
ENDCHAR
STARTCHAR LATIN
ENCODING 594
SWIDTH 1500 0
DWIDTH 6 0
BBX 5 5 1 0
BITMAP
F0
88
88
88
F0
ENDCHAR
STARTCHAR LATIN
ENCODING 595
SWIDTH 1500 0
DWIDTH 6 0
BBX 5 9 1 0
BITMAP
40
80
80
80
F0
88
88
88
F0
ENDCHAR
STARTCHAR LATIN
ENCODING 596
SWIDTH 1500 0
DWIDTH 6 0
BBX 5 5 1 0
BITMAP
F0
08
08
08
F0
ENDCHAR
STARTCHAR LATIN
ENCODING 597
SWIDTH 1500 0
DWIDTH 6 0
BBX 5 6 1 -1
BITMAP
78
80
80
98
78
10
ENDCHAR
STARTCHAR LATIN
ENCODING 598
SWIDTH 1500 0
DWIDTH 6 0
BBX 5 10 1 -2
BITMAP
10
10
10
70
90
90
90
70
10
08
ENDCHAR
STARTCHAR LATIN
ENCODING 599
SWIDTH 1500 0
DWIDTH 6 0
BBX 5 9 1 0
BITMAP
08
10
10
10
70
90
90
90
70
ENDCHAR
STARTCHAR LATIN
ENCODING 600
SWIDTH 1500 0
DWIDTH 6 0
BBX 5 5 1 0
BITMAP
70
88
F8
08
70
ENDCHAR
STARTCHAR LATIN
ENCODING 601
SWIDTH 1500 0
DWIDTH 6 0
BBX 5 5 1 0
BITMAP
70
08
F8
88
70
ENDCHAR
STARTCHAR LATIN
ENCODING 602
SWIDTH 1500 0
DWIDTH 6 0
BBX 6 5 0 0
BITMAP
60
10
F8
94
60
ENDCHAR
STARTCHAR LATIN
ENCODING 603
SWIDTH 1500 0
DWIDTH 6 0
BBX 5 5 1 0
BITMAP
78
80
60
80
78
ENDCHAR
STARTCHAR LATIN
ENCODING 604
SWIDTH 1500 0
DWIDTH 6 0
BBX 5 5 1 0
BITMAP
F0
08
30
08
F0
ENDCHAR
STARTCHAR LATIN
ENCODING 605
SWIDTH 1500 0
DWIDTH 6 0
BBX 5 5 1 0
BITMAP
C0
30
48
20
C0
ENDCHAR
STARTCHAR LATIN
ENCODING 606
SWIDTH 1500 0
DWIDTH 6 0
BBX 5 5 1 0
BITMAP
70
88
B0
88
70
ENDCHAR
STARTCHAR LATIN
ENCODING 607
SWIDTH 1500 0
DWIDTH 6 0
BBX 3 7 2 -2
BITMAP
C0
40
E0
40
40
40
80
ENDCHAR
STARTCHAR LATIN
ENCODING 608
SWIDTH 1500 0
DWIDTH 6 0
BBX 5 9 1 -2
BITMAP
08
10
70
90
90
90
70
10
60
ENDCHAR
STARTCHAR LATIN
ENCODING 609
SWIDTH 1500 0
DWIDTH 6 0
BBX 5 7 1 -2
BITMAP
78
88
88
98
68
08
70
ENDCHAR
STARTCHAR LATIN
ENCODING 610
SWIDTH 1500 0
DWIDTH 6 0
BBX 5 5 1 0
BITMAP
78
80
98
88
78
ENDCHAR
STARTCHAR LATIN
ENCODING 611
SWIDTH 1500 0
DWIDTH 6 0
BBX 5 7 1 -2
BITMAP
88
88
50
50
20
50
20
ENDCHAR
STARTCHAR LATIN
ENCODING 612
SWIDTH 1500 0
DWIDTH 6 0
BBX 5 5 1 0
BITMAP
88
50
20
50
20
ENDCHAR
STARTCHAR LATIN
ENCODING 613
SWIDTH 1500 0
DWIDTH 6 0
BBX 5 7 1 -2
BITMAP
88
88
88
88
78
08
08
ENDCHAR
STARTCHAR LATIN
ENCODING 614
SWIDTH 1500 0
DWIDTH 6 0
BBX 5 9 1 0
BITMAP
40
80
80
80
F0
88
88
88
88
ENDCHAR
STARTCHAR LATIN
ENCODING 615
SWIDTH 1500 0
DWIDTH 6 0
BBX 5 11 1 -2
BITMAP
40
80
80
80
F0
88
88
88
88
08
10
ENDCHAR
STARTCHAR LATIN
ENCODING 616
SWIDTH 1500 0
DWIDTH 6 0
BBX 3 7 2 0
BITMAP
40
00
C0
40
E0
40
40
ENDCHAR
STARTCHAR LATIN
ENCODING 617
SWIDTH 1500 0
DWIDTH 6 0
BBX 2 5 3 0
BITMAP
80
80
80
80
40
ENDCHAR
STARTCHAR LATIN
ENCODING 618
SWIDTH 1500 0
DWIDTH 6 0
BBX 3 5 2 0
BITMAP
E0
40
40
40
E0
ENDCHAR
STARTCHAR LATIN
ENCODING 619
SWIDTH 1500 0
DWIDTH 6 0
BBX 5 8 1 0
BITMAP
20
20
20
68
B0
20
20
18
ENDCHAR
STARTCHAR LATIN
ENCODING 620
SWIDTH 1500 0
DWIDTH 6 0
BBX 5 8 1 0
BITMAP
20
20
20
E0
F8
20
20
18
ENDCHAR
STARTCHAR LATIN
ENCODING 621
SWIDTH 1500 0
DWIDTH 6 0
BBX 4 10 2 -2
BITMAP
80
80
80
80
80
80
80
60
20
10
ENDCHAR
STARTCHAR LATIN
ENCODING 622
SWIDTH 1500 0
DWIDTH 6 0
BBX 5 10 1 -2
BITMAP
80
80
80
F8
90
A0
90
48
08
70
ENDCHAR
STARTCHAR LATIN
ENCODING 623
SWIDTH 1500 0
DWIDTH 6 0
BBX 5 5 1 0
BITMAP
88
A8
A8
A8
58
ENDCHAR
STARTCHAR LATIN
ENCODING 624
SWIDTH 1500 0
DWIDTH 6 0
BBX 5 7 1 -2
BITMAP
88
A8
A8
A8
58
08
08
ENDCHAR
STARTCHAR LATIN
ENCODING 625
SWIDTH 1500 0
DWIDTH 6 0
BBX 5 7 1 -2
BITMAP
D0
A8
A8
A8
88
08
10
ENDCHAR
STARTCHAR LATIN
ENCODING 626
SWIDTH 1500 0
DWIDTH 6 0
BBX 6 7 0 -2
BITMAP
78
44
44
44
44
40
80
ENDCHAR
STARTCHAR LATIN
ENCODING 627
SWIDTH 1500 0
DWIDTH 6 0
BBX 5 7 1 -2
BITMAP
E0
90
90
90
90
10
08
ENDCHAR
STARTCHAR LATIN
ENCODING 628
SWIDTH 1500 0
DWIDTH 6 0
BBX 5 5 1 0
BITMAP
88
C8
A8
98
88
ENDCHAR
STARTCHAR LATIN
ENCODING 629
SWIDTH 1500 0
DWIDTH 6 0
BBX 5 5 1 0
BITMAP
70
88
F8
88
70
ENDCHAR
STARTCHAR LATIN
ENCODING 630
SWIDTH 1500 0
DWIDTH 6 0
BBX 5 5 1 0
BITMAP
78
A0
B0
A0
78
ENDCHAR
STARTCHAR LATIN
ENCODING 631
SWIDTH 1500 0
DWIDTH 6 0
BBX 5 5 1 0
BITMAP
70
88
A8
A8
50
ENDCHAR
STARTCHAR LATIN
ENCODING 632
SWIDTH 1500 0
DWIDTH 6 0
BBX 5 9 1 -2
BITMAP
20
20
70
A8
A8
A8
70
20
20
ENDCHAR
STARTCHAR LATIN
ENCODING 633
SWIDTH 1500 0
DWIDTH 6 0
BBX 5 5 1 0
BITMAP
08
08
08
18
E8
ENDCHAR
STARTCHAR LATIN
ENCODING 634
SWIDTH 1500 0
DWIDTH 6 0
BBX 5 7 1 0
BITMAP
08
08
08
08
08
18
E8
ENDCHAR
STARTCHAR LATIN
ENCODING 635
SWIDTH 1500 0
DWIDTH 6 0
BBX 5 7 1 -2
BITMAP
10
10
10
30
D0
10
08
ENDCHAR
STARTCHAR LATIN
ENCODING 636
SWIDTH 1500 0
DWIDTH 6 0
BBX 5 7 1 -2
BITMAP
B8
C0
80
80
80
80
80
ENDCHAR
STARTCHAR LATIN
ENCODING 637
SWIDTH 1500 0
DWIDTH 6 0
BBX 5 7 1 -2
BITMAP
B8
C0
80
80
80
80
40
ENDCHAR
STARTCHAR LATIN
ENCODING 638
SWIDTH 1500 0
DWIDTH 6 0
BBX 5 5 1 0
BITMAP
38
40
40
40
E0
ENDCHAR
STARTCHAR LATIN
ENCODING 639
SWIDTH 1500 0
DWIDTH 6 0
BBX 5 5 1 0
BITMAP
E0
10
10
10
38
ENDCHAR
STARTCHAR LATIN
ENCODING 640
SWIDTH 1500 0
DWIDTH 6 0
BBX 5 5 1 0
BITMAP
F0
88
F0
90
88
ENDCHAR
STARTCHAR LATIN
ENCODING 641
SWIDTH 1500 0
DWIDTH 6 0
BBX 5 5 1 0
BITMAP
88
90
F0
88
F0
ENDCHAR
STARTCHAR LATIN
ENCODING 642
SWIDTH 1500 0
DWIDTH 6 0
BBX 5 7 1 -2
BITMAP
78
80
70
08
F0
80
40
ENDCHAR
STARTCHAR LATIN
ENCODING 643
SWIDTH 1500 0
DWIDTH 6 0
BBX 5 10 1 -2
BITMAP
18
20
20
20
20
20
20
20
20
C0
ENDCHAR
STARTCHAR LATIN
ENCODING 644
SWIDTH 1500 0
DWIDTH 6 0
BBX 3 9 2 -2
BITMAP
20
40
C0
40
E0
40
40
40
80
ENDCHAR
STARTCHAR LATIN
ENCODING 645
SWIDTH 1500 0
DWIDTH 6 0
BBX 5 7 1 -2
BITMAP
C0
20
20
20
20
20
18
ENDCHAR
STARTCHAR LATIN
ENCODING 646
SWIDTH 1500 0
DWIDTH 6 0
BBX 5 10 1 -2
BITMAP
18
20
20
20
20
20
20
20
F0
C0
ENDCHAR
STARTCHAR LATIN
ENCODING 647
SWIDTH 1500 0
DWIDTH 6 0
BBX 4 7 2 -2
BITMAP
C0
20
20
20
70
20
20
ENDCHAR
STARTCHAR LATIN
ENCODING 648
SWIDTH 1500 0
DWIDTH 6 0
BBX 5 10 1 -2
BITMAP
40
40
40
E0
40
40
40
30
10
08
ENDCHAR
STARTCHAR LATIN
ENCODING 649
SWIDTH 1500 0
DWIDTH 6 0
BBX 5 5 1 0
BITMAP
88
88
F8
88
78
ENDCHAR
STARTCHAR LATIN
ENCODING 650
SWIDTH 1500 0
DWIDTH 6 0
BBX 5 5 1 0
BITMAP
88
50
88
88
70
ENDCHAR
STARTCHAR LATIN
ENCODING 651
SWIDTH 1500 0
DWIDTH 6 0
BBX 5 7 1 0
BITMAP
10
08
88
88
50
50
20
ENDCHAR
STARTCHAR LATIN
ENCODING 652
SWIDTH 1500 0
DWIDTH 6 0
BBX 5 5 1 0
BITMAP
20
50
50
88
88
ENDCHAR
STARTCHAR LATIN
ENCODING 653
SWIDTH 1500 0
DWIDTH 6 0
BBX 5 5 1 0
BITMAP
88
D8
A8
88
88
ENDCHAR
STARTCHAR LATIN
ENCODING 654
SWIDTH 1500 0
DWIDTH 6 0
BBX 5 7 1 0
BITMAP
70
80
F0
88
88
88
88
ENDCHAR
STARTCHAR LATIN
ENCODING 655
SWIDTH 1500 0
DWIDTH 6 0
BBX 5 5 1 0
BITMAP
88
50
20
20
20
ENDCHAR
STARTCHAR LATIN
ENCODING 656
SWIDTH 1500 0
DWIDTH 6 0
BBX 5 7 1 -2
BITMAP
F0
20
40
80
F0
10
08
ENDCHAR
STARTCHAR LATIN
ENCODING 657
SWIDTH 1500 0
DWIDTH 6 0
BBX 5 6 1 -1
BITMAP
F8
10
20
58
F8
10
ENDCHAR
STARTCHAR LATIN
ENCODING 658
SWIDTH 1500 0
DWIDTH 6 0
BBX 5 7 1 -2
BITMAP
F8
10
20
70
08
08
F0
ENDCHAR
STARTCHAR LATIN
ENCODING 659
SWIDTH 1500 0
DWIDTH 6 0
BBX 5 7 1 -2
BITMAP
F8
10
20
10
C8
F0
40
ENDCHAR
STARTCHAR LATIN
ENCODING 660
SWIDTH 1500 0
DWIDTH 6 0
BBX 5 7 1 0
BITMAP
F0
08
08
10
20
20
20
ENDCHAR
STARTCHAR LATIN
ENCODING 661
SWIDTH 1500 0
DWIDTH 6 0
BBX 5 7 1 0
BITMAP
78
80
80
40
20
20
20
ENDCHAR
STARTCHAR LATIN
ENCODING 662
SWIDTH 1500 0
DWIDTH 6 0
BBX 5 7 1 0
BITMAP
20
20
20
10
08
08
F0
ENDCHAR
STARTCHAR LATIN
ENCODING 663
SWIDTH 1500 0
DWIDTH 6 0
BBX 5 9 1 -2
BITMAP
78
80
80
80
80
80
80
80
78
ENDCHAR
STARTCHAR LATIN
ENCODING 664
SWIDTH 1500 0
DWIDTH 6 0
BBX 5 7 1 0
BITMAP
70
88
88
A8
88
88
70
ENDCHAR
STARTCHAR LATIN
ENCODING 665
SWIDTH 1500 0
DWIDTH 6 0
BBX 5 5 1 0
BITMAP
F0
88
F0
88
F0
ENDCHAR
STARTCHAR LATIN
ENCODING 666
SWIDTH 1500 0
DWIDTH 6 0
BBX 5 5 1 0
BITMAP
70
88
68
88
70
ENDCHAR
STARTCHAR LATIN
ENCODING 667
SWIDTH 1500 0
DWIDTH 6 0
BBX 5 7 1 0
BITMAP
08
10
70
80
B0
90
70
ENDCHAR
STARTCHAR LATIN
ENCODING 668
SWIDTH 1500 0
DWIDTH 6 0
BBX 5 5 1 0
BITMAP
88
88
F8
88
88
ENDCHAR
STARTCHAR LATIN
ENCODING 669
SWIDTH 1500 0
DWIDTH 6 0
BBX 3 9 2 -2
BITMAP
40
00
C0
40
40
40
E0
40
80
ENDCHAR
STARTCHAR LATIN
ENCODING 670
SWIDTH 1500 0
DWIDTH 6 0
BBX 4 7 2 -2
BITMAP
90
50
30
50
90
10
10
ENDCHAR
STARTCHAR LATIN
ENCODING 671
SWIDTH 1500 0
DWIDTH 6 0
BBX 5 5 1 0
BITMAP
80
80
80
80
F8
ENDCHAR
STARTCHAR LATIN
ENCODING 672
SWIDTH 1500 0
DWIDTH 6 0
BBX 5 9 1 -2
BITMAP
08
10
70
90
90
90
70
10
10
ENDCHAR
STARTCHAR LATIN
ENCODING 673
SWIDTH 1500 0
DWIDTH 6 0
BBX 5 7 1 0
BITMAP
F0
08
08
10
20
70
20
ENDCHAR
STARTCHAR LATIN
ENCODING 674
SWIDTH 1500 0
DWIDTH 6 0
BBX 5 7 1 0
BITMAP
78
80
80
40
20
70
20
ENDCHAR
STARTCHAR LATIN
ENCODING 675
SWIDTH 1500 0
DWIDTH 6 0
BBX 5 8 1 0
BITMAP
20
20
20
78
A8
B8
B0
78
ENDCHAR
STARTCHAR LATIN
ENCODING 676
SWIDTH 1500 0
DWIDTH 6 0
BBX 5 10 1 -2
BITMAP
20
20
20
78
A8
B0
A8
68
08
30
ENDCHAR
STARTCHAR LATIN
ENCODING 677
SWIDTH 1500 0
DWIDTH 6 0
BBX 5 9 1 -1
BITMAP
20
20
20
78
A8
B8
B0
78
08
ENDCHAR
STARTCHAR LATIN
ENCODING 678
SWIDTH 1500 0
DWIDTH 6 0
BBX 5 8 1 0
BITMAP
40
40
40
F8
60
50
48
30
ENDCHAR
STARTCHAR LATIN
ENCODING 679
SWIDTH 1500 0
DWIDTH 6 0
BBX 5 10 1 -2
BITMAP
48
50
50
F0
50
50
50
30
10
20
ENDCHAR
STARTCHAR LATIN
ENCODING 680
SWIDTH 1500 0
DWIDTH 6 0
BBX 5 9 1 -1
BITMAP
40
40
40
E8
50
50
58
38
08
ENDCHAR
STARTCHAR LATIN
ENCODING 681
SWIDTH 1500 0
DWIDTH 6 0
BBX 5 10 1 -2
BITMAP
60
80
80
F0
A8
A8
A8
A8
08
10
ENDCHAR
STARTCHAR LATIN
ENCODING 682
SWIDTH 1500 0
DWIDTH 6 0
BBX 5 8 1 0
BITMAP
80
80
80
98
A0
90
88
70
ENDCHAR
STARTCHAR LATIN
ENCODING 683
SWIDTH 1500 0
DWIDTH 6 0
BBX 5 8 1 0
BITMAP
80
80
80
B8
88
90
A0
78
ENDCHAR
STARTCHAR LATIN
ENCODING 684
SWIDTH 1500 0
DWIDTH 6 0
BBX 5 5 1 0
BITMAP
A8
50
00
A8
50
ENDCHAR
STARTCHAR LATIN
ENCODING 685
SWIDTH 1500 0
DWIDTH 6 0
BBX 5 5 1 0
BITMAP
F8
88
00
F8
88
ENDCHAR
STARTCHAR LATIN
ENCODING 686
SWIDTH 1500 0
DWIDTH 6 0
BBX 6 8 0 -2
BITMAP
80
44
44
44
3C
04
04
04
ENDCHAR
STARTCHAR LATIN
ENCODING 687
SWIDTH 1500 0
DWIDTH 6 0
BBX 6 8 0 -2
BITMAP
80
48
48
48
48
38
08
04
ENDCHAR
STARTCHAR MODIFIER
ENCODING 688
SWIDTH 1500 0
DWIDTH 6 0
BBX 5 7 1 3
BITMAP
80
80
F0
88
88
88
88
ENDCHAR
STARTCHAR MODIFIER
ENCODING 689
SWIDTH 1500 0
DWIDTH 6 0
BBX 5 7 1 3
BITMAP
40
80
80
F0
88
88
88
ENDCHAR
STARTCHAR MODIFIER
ENCODING 690
SWIDTH 1500 0
DWIDTH 6 0
BBX 2 9 2 1
BITMAP
40
00
C0
40
40
40
40
40
80
ENDCHAR
STARTCHAR MODIFIER
ENCODING 691
SWIDTH 1500 0
DWIDTH 6 0
BBX 5 5 1 3
BITMAP
B8
C0
80
80
80
ENDCHAR
STARTCHAR MODIFIER
ENCODING 692
SWIDTH 1500 0
DWIDTH 6 0
BBX 5 5 1 3
BITMAP
08
08
08
18
E8
ENDCHAR
STARTCHAR MODIFIER
ENCODING 693
SWIDTH 1500 0
DWIDTH 6 0
BBX 5 6 1 2
BITMAP
10
10
10
30
D0
08
ENDCHAR
STARTCHAR MODIFIER
ENCODING 694
SWIDTH 1500 0
DWIDTH 6 0
BBX 5 5 1 3
BITMAP
88
90
F0
88
F0
ENDCHAR
STARTCHAR MODIFIER
ENCODING 695
SWIDTH 1500 0
DWIDTH 6 0
BBX 5 5 1 3
BITMAP
88
88
A8
D8
88
ENDCHAR
STARTCHAR MODIFIER
ENCODING 696
SWIDTH 1500 0
DWIDTH 6 0
BBX 5 7 1 1
BITMAP
88
88
88
88
78
08
30
ENDCHAR
STARTCHAR MODIFIER
ENCODING 697
SWIDTH 1500 0
DWIDTH 6 0
BBX 3 3 2 7
BITMAP
20
40
80
ENDCHAR
STARTCHAR MODIFIER
ENCODING 698
SWIDTH 1500 0
DWIDTH 6 0
BBX 6 3 0 7
BITMAP
24
48
90
ENDCHAR
STARTCHAR MODIFIER
ENCODING 699
SWIDTH 1500 0
DWIDTH 6 0
BBX 2 3 3 7
BITMAP
40
80
80
ENDCHAR
STARTCHAR MODIFIER
ENCODING 700
SWIDTH 1500 0
DWIDTH 6 0
BBX 2 3 2 7
BITMAP
40
40
80
ENDCHAR
STARTCHAR MODIFIER
ENCODING 701
SWIDTH 1500 0
DWIDTH 6 0
BBX 2 3 3 7
BITMAP
80
80
40
ENDCHAR
STARTCHAR MODIFIER
ENCODING 702
SWIDTH 1500 0
DWIDTH 6 0
BBX 2 3 3 7
BITMAP
80
40
80
ENDCHAR
STARTCHAR MODIFIER
ENCODING 703
SWIDTH 1500 0
DWIDTH 6 0
BBX 2 3 2 7
BITMAP
40
80
40
ENDCHAR
STARTCHAR MODIFIER
ENCODING 704
SWIDTH 1500 0
DWIDTH 6 0
BBX 5 7 1 3
BITMAP
F0
08
08
10
20
20
20
ENDCHAR
STARTCHAR MODIFIER
ENCODING 705
SWIDTH 1500 0
DWIDTH 6 0
BBX 5 7 1 3
BITMAP
78
80
80
40
20
20
20
ENDCHAR
STARTCHAR MODIFIER
ENCODING 706
SWIDTH 1500 0
DWIDTH 6 0
BBX 4 3 1 4
BITMAP
30
C0
30
ENDCHAR
STARTCHAR MODIFIER
ENCODING 707
SWIDTH 1500 0
DWIDTH 6 0
BBX 4 3 1 4
BITMAP
C0
30
C0
ENDCHAR
STARTCHAR MODIFIER
ENCODING 708
SWIDTH 1500 0
DWIDTH 6 0
BBX 3 2 2 5
BITMAP
40
A0
ENDCHAR
STARTCHAR MODIFIER
ENCODING 709
SWIDTH 1500 0
DWIDTH 6 0
BBX 3 2 2 5
BITMAP
A0
40
ENDCHAR
STARTCHAR MODIFIER
ENCODING 710
SWIDTH 1500 0
DWIDTH 6 0
BBX 3 2 2 8
BITMAP
40
A0
ENDCHAR
STARTCHAR CARON
ENCODING 711
SWIDTH 1500 0
DWIDTH 6 0
BBX 3 2 2 8
BITMAP
A0
40
ENDCHAR
STARTCHAR MODIFIER
ENCODING 712
SWIDTH 1500 0
DWIDTH 6 0
BBX 1 3 3 7
BITMAP
80
80
80
ENDCHAR
STARTCHAR MODIFIER
ENCODING 713
SWIDTH 1500 0
DWIDTH 6 0
BBX 3 1 2 8
BITMAP
E0
ENDCHAR
STARTCHAR MODIFIER
ENCODING 714
SWIDTH 1500 0
DWIDTH 6 0
BBX 2 2 3 8
BITMAP
40
80
ENDCHAR
STARTCHAR MODIFIER
ENCODING 715
SWIDTH 1500 0
DWIDTH 6 0
BBX 2 2 2 8
BITMAP
80
40
ENDCHAR
STARTCHAR MODIFIER
ENCODING 716
SWIDTH 1500 0
DWIDTH 6 0
BBX 1 3 3 -2
BITMAP
80
80
80
ENDCHAR
STARTCHAR MODIFIER
ENCODING 717
SWIDTH 1500 0
DWIDTH 6 0
BBX 3 1 2 -2
BITMAP
E0
ENDCHAR
STARTCHAR MODIFIER
ENCODING 718
SWIDTH 1500 0
DWIDTH 6 0
BBX 2 2 3 -2
BITMAP
80
40
ENDCHAR
STARTCHAR MODIFIER
ENCODING 719
SWIDTH 1500 0
DWIDTH 6 0
BBX 2 2 2 -2
BITMAP
40
80
ENDCHAR
STARTCHAR MODIFIER
ENCODING 720
SWIDTH 1500 0
DWIDTH 6 0
BBX 3 5 2 0
BITMAP
E0
40
00
40
E0
ENDCHAR
STARTCHAR MODIFIER
ENCODING 721
SWIDTH 1500 0
DWIDTH 6 0
BBX 3 2 2 2
BITMAP
E0
40
ENDCHAR
STARTCHAR MODIFIER
ENCODING 722
SWIDTH 1500 0
DWIDTH 6 0
BBX 2 3 3 1
BITMAP
80
40
80
ENDCHAR
STARTCHAR MODIFIER
ENCODING 723
SWIDTH 1500 0
DWIDTH 6 0
BBX 2 3 2 1
BITMAP
40
80
40
ENDCHAR
STARTCHAR MODIFIER
ENCODING 724
SWIDTH 1500 0
DWIDTH 6 0
BBX 5 3 1 2
BITMAP
20
20
F8
ENDCHAR
STARTCHAR MODIFIER
ENCODING 725
SWIDTH 1500 0
DWIDTH 6 0
BBX 5 3 1 0
BITMAP
F8
20
20
ENDCHAR
STARTCHAR MODIFIER
ENCODING 726
SWIDTH 1500 0
DWIDTH 6 0
BBX 5 5 1 0
BITMAP
20
20
F8
20
20
ENDCHAR
STARTCHAR MODIFIER
ENCODING 727
SWIDTH 1500 0
DWIDTH 6 0
BBX 5 1 1 2
BITMAP
F8
ENDCHAR
STARTCHAR BREVE
ENCODING 728
SWIDTH 1500 0
DWIDTH 6 0
BBX 5 2 1 8
BITMAP
88
70
ENDCHAR
STARTCHAR DOT
ENCODING 729
SWIDTH 1500 0
DWIDTH 6 0
BBX 1 1 3 8
BITMAP
80
ENDCHAR
STARTCHAR RING
ENCODING 730
SWIDTH 1500 0
DWIDTH 6 0
BBX 3 3 2 7
BITMAP
40
A0
40
ENDCHAR
STARTCHAR OGONEK
ENCODING 731
SWIDTH 1500 0
DWIDTH 6 0
BBX 2 2 4 -2
BITMAP
80
40
ENDCHAR
STARTCHAR SMALL
ENCODING 732
SWIDTH 1500 0
DWIDTH 6 0
BBX 4 2 1 8
BITMAP
50
A0
ENDCHAR
STARTCHAR DOUBLE
ENCODING 733
SWIDTH 1500 0
DWIDTH 6 0
BBX 5 2 1 8
BITMAP
48
90
ENDCHAR
STARTCHAR MODIFIER
ENCODING 734
SWIDTH 1500 0
DWIDTH 6 0
BBX 6 4 0 1
BITMAP
40
A0
24
18
ENDCHAR
STARTCHAR MODIFIER
ENCODING 735
SWIDTH 1500 0
DWIDTH 6 0
BBX 3 3 2 7
BITMAP
A0
40
A0
ENDCHAR
STARTCHAR MODIFIER
ENCODING 736
SWIDTH 1500 0
DWIDTH 6 0
BBX 4 5 1 2
BITMAP
90
50
20
50
20
ENDCHAR
STARTCHAR MODIFIER
ENCODING 737
SWIDTH 1500 0
DWIDTH 6 0
BBX 2 6 2 3
BITMAP
80
80
80
80
80
40
ENDCHAR
STARTCHAR MODIFIER
ENCODING 738
SWIDTH 1500 0
DWIDTH 6 0
BBX 4 4 1 3
BITMAP
70
E0
10
E0
ENDCHAR
STARTCHAR MODIFIER
ENCODING 739
SWIDTH 1500 0
DWIDTH 6 0
BBX 4 3 1 4
BITMAP
90
60
90
ENDCHAR
STARTCHAR MODIFIER
ENCODING 740
SWIDTH 1500 0
DWIDTH 6 0
BBX 4 4 1 3
BITMAP
70
80
40
40
ENDCHAR
STARTCHAR MODIFIER
ENCODING 741
SWIDTH 1500 0
DWIDTH 6 0
BBX 5 5 1 0
BITMAP
F8
08
08
08
08
ENDCHAR
STARTCHAR MODIFIER
ENCODING 742
SWIDTH 1500 0
DWIDTH 6 0
BBX 5 5 1 0
BITMAP
08
F8
08
08
08
ENDCHAR
STARTCHAR MODIFIER
ENCODING 743
SWIDTH 1500 0
DWIDTH 6 0
BBX 5 5 1 0
BITMAP
08
08
F8
08
08
ENDCHAR
STARTCHAR MODIFIER
ENCODING 744
SWIDTH 1500 0
DWIDTH 6 0
BBX 5 5 1 0
BITMAP
08
08
08
F8
08
ENDCHAR
STARTCHAR MODIFIER
ENCODING 745
SWIDTH 1500 0
DWIDTH 6 0
BBX 5 5 1 0
BITMAP
08
08
08
08
F8
ENDCHAR
STARTCHAR MODIFIER
ENCODING 746
SWIDTH 1500 0
DWIDTH 6 0
BBX 5 5 1 0
BITMAP
80
80
80
80
F8
ENDCHAR
STARTCHAR MODIFIER
ENCODING 747
SWIDTH 1500 0
DWIDTH 6 0
BBX 5 5 1 0
BITMAP
80
80
F8
80
80
ENDCHAR
STARTCHAR MODIFIER
ENCODING 748
SWIDTH 1500 0
DWIDTH 6 0
BBX 3 2 2 -2
BITMAP
A0
40
ENDCHAR
STARTCHAR MODIFIER
ENCODING 749
SWIDTH 1500 0
DWIDTH 6 0
BBX 5 3 1 7
BITMAP
F8
00
F8
ENDCHAR
STARTCHAR MODIFIER
ENCODING 750
SWIDTH 1500 0
DWIDTH 6 0
BBX 4 3 1 7
BITMAP
50
50
A0
ENDCHAR
STARTCHAR GREEK
ENCODING 890
SWIDTH 1500 0
DWIDTH 6 0
BBX 1 2 3 -2
BITMAP
80
80
ENDCHAR
STARTCHAR GREEK
ENCODING 894
SWIDTH 1500 0
DWIDTH 6 0
BBX 2 6 2 -1
BITMAP
40
00
00
00
40
80
ENDCHAR
STARTCHAR GREEK
ENCODING 900
SWIDTH 1500 0
DWIDTH 6 0
BBX 2 2 3 8
BITMAP
40
80
ENDCHAR
STARTCHAR GREEK
ENCODING 901
SWIDTH 1500 0
DWIDTH 6 0
BBX 5 3 1 7
BITMAP
10
20
88
ENDCHAR
STARTCHAR GREEK
ENCODING 902
SWIDTH 1500 0
DWIDTH 6 0
BBX 6 8 0 0
BITMAP
40
B8
44
44
44
7C
44
44
ENDCHAR
STARTCHAR GREEK
ENCODING 904
SWIDTH 1500 0
DWIDTH 6 0
BBX 6 8 0 0
BITMAP
40
BC
40
40
70
40
40
7C
ENDCHAR
STARTCHAR GREEK
ENCODING 905
SWIDTH 1500 0
DWIDTH 6 0
BBX 6 8 0 0
BITMAP
40
84
44
44
7C
44
44
44
ENDCHAR
STARTCHAR GREEK
ENCODING 906
SWIDTH 1500 0
DWIDTH 6 0
BBX 5 8 1 0
BITMAP
40
B8
10
10
10
10
10
38
ENDCHAR
STARTCHAR GREEK
ENCODING 908
SWIDTH 1500 0
DWIDTH 6 0
BBX 6 8 0 0
BITMAP
40
B8
44
44
44
44
44
38
ENDCHAR
STARTCHAR GREEK
ENCODING 910
SWIDTH 1500 0
DWIDTH 6 0
BBX 6 8 0 0
BITMAP
40
84
44
28
10
10
10
10
ENDCHAR
STARTCHAR GREEK
ENCODING 911
SWIDTH 1500 0
DWIDTH 6 0
BBX 6 8 0 0
BITMAP
40
B8
44
44
44
44
28
6C
ENDCHAR
STARTCHAR GREEK
ENCODING 912
SWIDTH 1500 0
DWIDTH 6 0
BBX 3 10 2 0
BITMAP
20
40
00
A0
00
40
40
40
40
20
ENDCHAR
STARTCHAR GREEK
ENCODING 913
SWIDTH 1500 0
DWIDTH 6 0
BBX 5 7 1 0
BITMAP
70
88
88
88
F8
88
88
ENDCHAR
STARTCHAR GREEK
ENCODING 914
SWIDTH 1500 0
DWIDTH 6 0
BBX 5 7 1 0
BITMAP
F0
88
88
F0
88
88
F0
ENDCHAR
STARTCHAR GREEK
ENCODING 915
SWIDTH 1500 0
DWIDTH 6 0
BBX 5 7 1 0
BITMAP
F8
80
80
80
80
80
80
ENDCHAR
STARTCHAR GREEK
ENCODING 916
SWIDTH 1500 0
DWIDTH 6 0
BBX 5 7 1 0
BITMAP
20
20
50
50
88
88
F8
ENDCHAR
STARTCHAR GREEK
ENCODING 917
SWIDTH 1500 0
DWIDTH 6 0
BBX 5 7 1 0
BITMAP
F8
80
80
E0
80
80
F8
ENDCHAR
STARTCHAR GREEK
ENCODING 918
SWIDTH 1500 0
DWIDTH 6 0
BBX 5 7 1 0
BITMAP
F8
08
10
20
40
80
F8
ENDCHAR
STARTCHAR GREEK
ENCODING 919
SWIDTH 1500 0
DWIDTH 6 0
BBX 5 7 1 0
BITMAP
88
88
88
F8
88
88
88
ENDCHAR
STARTCHAR GREEK
ENCODING 920
SWIDTH 1500 0
DWIDTH 6 0
BBX 5 7 1 0
BITMAP
70
88
88
F8
88
88
70
ENDCHAR
STARTCHAR GREEK
ENCODING 921
SWIDTH 1500 0
DWIDTH 6 0
BBX 3 7 2 0
BITMAP
E0
40
40
40
40
40
E0
ENDCHAR
STARTCHAR GREEK
ENCODING 922
SWIDTH 1500 0
DWIDTH 6 0
BBX 5 7 1 0
BITMAP
88
90
A0
C0
A0
90
88
ENDCHAR
STARTCHAR GREEK
ENCODING 923
SWIDTH 1500 0
DWIDTH 6 0
BBX 5 7 1 0
BITMAP
20
20
50
50
88
88
88
ENDCHAR
STARTCHAR GREEK
ENCODING 924
SWIDTH 1500 0
DWIDTH 6 0
BBX 5 7 1 0
BITMAP
88
D8
A8
88
88
88
88
ENDCHAR
STARTCHAR GREEK
ENCODING 925
SWIDTH 1500 0
DWIDTH 6 0
BBX 5 7 1 0
BITMAP
88
88
C8
A8
98
88
88
ENDCHAR
STARTCHAR GREEK
ENCODING 926
SWIDTH 1500 0
DWIDTH 6 0
BBX 5 7 1 0
BITMAP
F8
00
00
70
00
00
F8
ENDCHAR
STARTCHAR GREEK
ENCODING 927
SWIDTH 1500 0
DWIDTH 6 0
BBX 5 7 1 0
BITMAP
70
88
88
88
88
88
70
ENDCHAR
STARTCHAR GREEK
ENCODING 928
SWIDTH 1500 0
DWIDTH 6 0
BBX 5 7 1 0
BITMAP
F8
88
88
88
88
88
88
ENDCHAR
STARTCHAR GREEK
ENCODING 929
SWIDTH 1500 0
DWIDTH 6 0
BBX 5 7 1 0
BITMAP
F0
88
88
88
F0
80
80
ENDCHAR
STARTCHAR GREEK
ENCODING 931
SWIDTH 1500 0
DWIDTH 6 0
BBX 5 7 1 0
BITMAP
F8
80
40
20
40
80
F8
ENDCHAR
STARTCHAR GREEK
ENCODING 932
SWIDTH 1500 0
DWIDTH 6 0
BBX 5 7 1 0
BITMAP
F8
20
20
20
20
20
20
ENDCHAR
STARTCHAR GREEK
ENCODING 933
SWIDTH 1500 0
DWIDTH 6 0
BBX 5 7 1 0
BITMAP
88
88
50
20
20
20
20
ENDCHAR
STARTCHAR GREEK
ENCODING 934
SWIDTH 1500 0
DWIDTH 6 0
BBX 5 7 1 0
BITMAP
20
70
A8
A8
A8
70
20
ENDCHAR
STARTCHAR GREEK
ENCODING 935
SWIDTH 1500 0
DWIDTH 6 0
BBX 5 7 1 0
BITMAP
88
88
50
20
50
88
88
ENDCHAR
STARTCHAR GREEK
ENCODING 936
SWIDTH 1500 0
DWIDTH 6 0
BBX 5 7 1 0
BITMAP
A8
A8
A8
70
20
20
20
ENDCHAR
STARTCHAR GREEK
ENCODING 937
SWIDTH 1500 0
DWIDTH 6 0
BBX 5 7 1 0
BITMAP
70
88
88
88
88
50
D8
ENDCHAR
STARTCHAR GREEK
ENCODING 938
SWIDTH 1500 0
DWIDTH 6 0
BBX 3 9 2 0
BITMAP
A0
00
E0
40
40
40
40
40
E0
ENDCHAR
STARTCHAR GREEK
ENCODING 939
SWIDTH 1500 0
DWIDTH 6 0
BBX 5 9 1 0
BITMAP
50
00
88
88
50
20
20
20
20
ENDCHAR
STARTCHAR GREEK
ENCODING 940
SWIDTH 1500 0
DWIDTH 6 0
BBX 5 8 1 0
BITMAP
10
20
00
68
90
90
90
68
ENDCHAR
STARTCHAR GREEK
ENCODING 941
SWIDTH 1500 0
DWIDTH 6 0
BBX 5 8 1 0
BITMAP
10
20
00
78
80
60
80
78
ENDCHAR
STARTCHAR GREEK
ENCODING 942
SWIDTH 1500 0
DWIDTH 6 0
BBX 5 10 1 -2
BITMAP
10
20
00
F0
88
88
88
88
08
08
ENDCHAR
STARTCHAR GREEK
ENCODING 943
SWIDTH 1500 0
DWIDTH 6 0
BBX 2 8 3 0
BITMAP
40
80
00
80
80
80
80
40
ENDCHAR
STARTCHAR GREEK
ENCODING 944
SWIDTH 1500 0
DWIDTH 6 0
BBX 5 10 1 0
BITMAP
10
20
00
50
00
88
88
88
88
70
ENDCHAR
STARTCHAR GREEK
ENCODING 945
SWIDTH 1500 0
DWIDTH 6 0
BBX 5 5 1 0
BITMAP
68
90
90
90
68
ENDCHAR
STARTCHAR GREEK
ENCODING 946
SWIDTH 1500 0
DWIDTH 6 0
BBX 5 10 1 -2
BITMAP
60
90
90
A0
90
88
88
B0
80
80
ENDCHAR
STARTCHAR GREEK
ENCODING 947
SWIDTH 1500 0
DWIDTH 6 0
BBX 5 7 1 -2
BITMAP
88
88
50
50
20
20
20
ENDCHAR
STARTCHAR GREEK
ENCODING 948
SWIDTH 1500 0
DWIDTH 6 0
BBX 5 8 1 0
BITMAP
70
80
40
70
88
88
88
70
ENDCHAR
STARTCHAR GREEK
ENCODING 949
SWIDTH 1500 0
DWIDTH 6 0
BBX 5 5 1 0
BITMAP
78
80
60
80
78
ENDCHAR
STARTCHAR GREEK
ENCODING 950
SWIDTH 1500 0
DWIDTH 6 0
BBX 5 9 1 -1
BITMAP
F8
08
10
20
40
80
80
70
08
ENDCHAR
STARTCHAR GREEK
ENCODING 951
SWIDTH 1500 0
DWIDTH 6 0
BBX 5 7 1 -2
BITMAP
F0
88
88
88
88
08
08
ENDCHAR
STARTCHAR GREEK
ENCODING 952
SWIDTH 1500 0
DWIDTH 6 0
BBX 5 8 1 0
BITMAP
70
88
88
F8
88
88
88
70
ENDCHAR
STARTCHAR GREEK
ENCODING 953
SWIDTH 1500 0
DWIDTH 6 0
BBX 2 5 3 0
BITMAP
80
80
80
80
40
ENDCHAR
STARTCHAR GREEK
ENCODING 954
SWIDTH 1500 0
DWIDTH 6 0
BBX 4 5 2 0
BITMAP
90
A0
C0
A0
90
ENDCHAR
STARTCHAR GREEK
ENCODING 955
SWIDTH 1500 0
DWIDTH 6 0
BBX 5 8 1 0
BITMAP
40
20
20
20
50
50
88
88
ENDCHAR
STARTCHAR GREEK
ENCODING 956
SWIDTH 1500 0
DWIDTH 6 0
BBX 5 7 1 -2
BITMAP
88
88
88
88
F0
80
80
ENDCHAR
STARTCHAR GREEK
ENCODING 957
SWIDTH 1500 0
DWIDTH 6 0
BBX 5 5 1 0
BITMAP
88
88
48
50
20
ENDCHAR
STARTCHAR GREEK
ENCODING 958
SWIDTH 1500 0
DWIDTH 6 0
BBX 5 9 1 -1
BITMAP
78
20
40
30
40
80
80
70
08
ENDCHAR
STARTCHAR GREEK
ENCODING 959
SWIDTH 1500 0
DWIDTH 6 0
BBX 5 5 1 0
BITMAP
70
88
88
88
70
ENDCHAR
STARTCHAR GREEK
ENCODING 960
SWIDTH 1500 0
DWIDTH 6 0
BBX 5 5 1 0
BITMAP
F8
50
50
50
98
ENDCHAR
STARTCHAR GREEK
ENCODING 961
SWIDTH 1500 0
DWIDTH 6 0
BBX 5 7 1 -2
BITMAP
70
88
88
88
F0
80
80
ENDCHAR
STARTCHAR GREEK
ENCODING 962
SWIDTH 1500 0
DWIDTH 6 0
BBX 5 6 1 -1
BITMAP
78
80
80
80
70
08
ENDCHAR
STARTCHAR GREEK
ENCODING 963
SWIDTH 1500 0
DWIDTH 6 0
BBX 5 5 1 0
BITMAP
78
90
88
88
70
ENDCHAR
STARTCHAR GREEK
ENCODING 964
SWIDTH 1500 0
DWIDTH 6 0
BBX 5 5 1 0
BITMAP
F8
20
20
20
10
ENDCHAR
STARTCHAR GREEK
ENCODING 965
SWIDTH 1500 0
DWIDTH 6 0
BBX 5 5 1 0
BITMAP
88
88
88
88
70
ENDCHAR
STARTCHAR GREEK
ENCODING 966
SWIDTH 1500 0
DWIDTH 6 0
BBX 5 7 1 -2
BITMAP
10
A8
A8
A8
70
20
20
ENDCHAR
STARTCHAR GREEK
ENCODING 967
SWIDTH 1500 0
DWIDTH 6 0
BBX 5 7 1 -2
BITMAP
C8
28
30
20
60
A0
98
ENDCHAR
STARTCHAR GREEK
ENCODING 968
SWIDTH 1500 0
DWIDTH 6 0
BBX 5 9 1 -2
BITMAP
20
20
A8
A8
A8
A8
70
20
20
ENDCHAR
STARTCHAR GREEK
ENCODING 969
SWIDTH 1500 0
DWIDTH 6 0
BBX 5 5 1 0
BITMAP
50
88
A8
A8
50
ENDCHAR
STARTCHAR GREEK
ENCODING 970
SWIDTH 1500 0
DWIDTH 6 0
BBX 3 7 2 0
BITMAP
A0
00
40
40
40
40
20
ENDCHAR
STARTCHAR GREEK
ENCODING 971
SWIDTH 1500 0
DWIDTH 6 0
BBX 5 7 1 0
BITMAP
50
00
88
88
88
88
70
ENDCHAR
STARTCHAR GREEK
ENCODING 972
SWIDTH 1500 0
DWIDTH 6 0
BBX 5 8 1 0
BITMAP
10
20
00
70
88
88
88
70
ENDCHAR
STARTCHAR GREEK
ENCODING 973
SWIDTH 1500 0
DWIDTH 6 0
BBX 5 8 1 0
BITMAP
10
20
00
88
88
88
88
70
ENDCHAR
STARTCHAR GREEK
ENCODING 974
SWIDTH 1500 0
DWIDTH 6 0
BBX 5 8 1 0
BITMAP
10
20
00
50
88
A8
A8
50
ENDCHAR
STARTCHAR CYRILLIC
ENCODING 1024
SWIDTH 1500 0
DWIDTH 6 0
BBX 5 10 1 0
BITMAP
40
20
00
F8
80
80
E0
80
80
F8
ENDCHAR
STARTCHAR CYRILLIC
ENCODING 1025
SWIDTH 1500 0
DWIDTH 6 0
BBX 5 9 1 0
BITMAP
50
00
F8
80
80
E0
80
80
F8
ENDCHAR
STARTCHAR CYRILLIC
ENCODING 1026
SWIDTH 1500 0
DWIDTH 6 0
BBX 6 8 0 -1
BITMAP
F0
40
40
78
44
44
44
08
ENDCHAR
STARTCHAR CYRILLIC
ENCODING 1027
SWIDTH 1500 0
DWIDTH 6 0
BBX 5 10 1 0
BITMAP
10
20
00
F8
80
80
80
80
80
80
ENDCHAR
STARTCHAR CYRILLIC
ENCODING 1028
SWIDTH 1500 0
DWIDTH 6 0
BBX 5 7 1 0
BITMAP
78
80
80
E0
80
80
78
ENDCHAR
STARTCHAR CYRILLIC
ENCODING 1029
SWIDTH 1500 0
DWIDTH 6 0
BBX 5 7 1 0
BITMAP
78
80
80
70
08
08
F0
ENDCHAR
STARTCHAR CYRILLIC
ENCODING 1030
SWIDTH 1500 0
DWIDTH 6 0
BBX 3 7 2 0
BITMAP
E0
40
40
40
40
40
E0
ENDCHAR
STARTCHAR CYRILLIC
ENCODING 1031
SWIDTH 1500 0
DWIDTH 6 0
BBX 3 9 2 0
BITMAP
A0
00
E0
40
40
40
40
40
E0
ENDCHAR
STARTCHAR CYRILLIC
ENCODING 1032
SWIDTH 1500 0
DWIDTH 6 0
BBX 5 7 1 0
BITMAP
08
08
08
08
08
88
70
ENDCHAR
STARTCHAR CYRILLIC
ENCODING 1033
SWIDTH 1500 0
DWIDTH 6 0
BBX 6 7 0 0
BITMAP
30
50
50
58
54
54
98
ENDCHAR
STARTCHAR CYRILLIC
ENCODING 1034
SWIDTH 1500 0
DWIDTH 6 0
BBX 5 7 1 0
BITMAP
A0
A0
A0
F0
A8
A8
B0
ENDCHAR
STARTCHAR CYRILLIC
ENCODING 1035
SWIDTH 1500 0
DWIDTH 6 0
BBX 6 7 0 0
BITMAP
F0
40
40
78
44
44
44
ENDCHAR
STARTCHAR CYRILLIC
ENCODING 1036
SWIDTH 1500 0
DWIDTH 6 0
BBX 5 10 1 0
BITMAP
10
20
00
88
90
A0
C0
A0
90
88
ENDCHAR
STARTCHAR CYRILLIC
ENCODING 1037
SWIDTH 1500 0
DWIDTH 6 0
BBX 5 10 1 0
BITMAP
40
20
00
88
88
98
A8
C8
88
88
ENDCHAR
STARTCHAR CYRILLIC
ENCODING 1038
SWIDTH 1500 0
DWIDTH 6 0
BBX 5 10 1 0
BITMAP
88
70
00
88
88
88
78
08
08
30
ENDCHAR
STARTCHAR CYRILLIC
ENCODING 1039
SWIDTH 1500 0
DWIDTH 6 0
BBX 5 8 1 -1
BITMAP
88
88
88
88
88
88
F8
20
ENDCHAR
STARTCHAR CYRILLIC
ENCODING 1040
SWIDTH 1500 0
DWIDTH 6 0
BBX 5 7 1 0
BITMAP
70
88
88
88
F8
88
88
ENDCHAR
STARTCHAR CYRILLIC
ENCODING 1041
SWIDTH 1500 0
DWIDTH 6 0
BBX 5 7 1 0
BITMAP
F0
80
80
F0
88
88
F0
ENDCHAR
STARTCHAR CYRILLIC
ENCODING 1042
SWIDTH 1500 0
DWIDTH 6 0
BBX 5 7 1 0
BITMAP
F0
88
88
F0
88
88
F0
ENDCHAR
STARTCHAR CYRILLIC
ENCODING 1043
SWIDTH 1500 0
DWIDTH 6 0
BBX 5 7 1 0
BITMAP
F8
80
80
80
80
80
80
ENDCHAR
STARTCHAR CYRILLIC
ENCODING 1044
SWIDTH 1500 0
DWIDTH 6 0
BBX 6 8 0 -1
BITMAP
38
48
48
48
48
48
FC
84
ENDCHAR
STARTCHAR CYRILLIC
ENCODING 1045
SWIDTH 1500 0
DWIDTH 6 0
BBX 5 7 1 0
BITMAP
F8
80
80
E0
80
80
F8
ENDCHAR
STARTCHAR CYRILLIC
ENCODING 1046
SWIDTH 1500 0
DWIDTH 6 0
BBX 5 7 1 0
BITMAP
A8
A8
A8
70
A8
A8
A8
ENDCHAR
STARTCHAR CYRILLIC
ENCODING 1047
SWIDTH 1500 0
DWIDTH 6 0
BBX 5 7 1 0
BITMAP
F0
08
08
30
08
08
F0
ENDCHAR
STARTCHAR CYRILLIC
ENCODING 1048
SWIDTH 1500 0
DWIDTH 6 0
BBX 5 7 1 0
BITMAP
88
88
98
A8
C8
88
88
ENDCHAR
STARTCHAR CYRILLIC
ENCODING 1049
SWIDTH 1500 0
DWIDTH 6 0
BBX 5 10 1 0
BITMAP
88
70
00
88
88
98
A8
C8
88
88
ENDCHAR
STARTCHAR CYRILLIC
ENCODING 1050
SWIDTH 1500 0
DWIDTH 6 0
BBX 5 7 1 0
BITMAP
88
90
A0
C0
A0
90
88
ENDCHAR
STARTCHAR CYRILLIC
ENCODING 1051
SWIDTH 1500 0
DWIDTH 6 0
BBX 5 7 1 0
BITMAP
38
48
48
48
48
48
88
ENDCHAR
STARTCHAR CYRILLIC
ENCODING 1052
SWIDTH 1500 0
DWIDTH 6 0
BBX 5 7 1 0
BITMAP
88
D8
A8
88
88
88
88
ENDCHAR
STARTCHAR CYRILLIC
ENCODING 1053
SWIDTH 1500 0
DWIDTH 6 0
BBX 5 7 1 0
BITMAP
88
88
88
F8
88
88
88
ENDCHAR
STARTCHAR CYRILLIC
ENCODING 1054
SWIDTH 1500 0
DWIDTH 6 0
BBX 5 7 1 0
BITMAP
70
88
88
88
88
88
70
ENDCHAR
STARTCHAR CYRILLIC
ENCODING 1055
SWIDTH 1500 0
DWIDTH 6 0
BBX 5 7 1 0
BITMAP
F8
88
88
88
88
88
88
ENDCHAR
STARTCHAR CYRILLIC
ENCODING 1056
SWIDTH 1500 0
DWIDTH 6 0
BBX 5 7 1 0
BITMAP
F0
88
88
88
F0
80
80
ENDCHAR
STARTCHAR CYRILLIC
ENCODING 1057
SWIDTH 1500 0
DWIDTH 6 0
BBX 5 7 1 0
BITMAP
78
80
80
80
80
80
78
ENDCHAR
STARTCHAR CYRILLIC
ENCODING 1058
SWIDTH 1500 0
DWIDTH 6 0
BBX 5 7 1 0
BITMAP
F8
20
20
20
20
20
20
ENDCHAR
STARTCHAR CYRILLIC
ENCODING 1059
SWIDTH 1500 0
DWIDTH 6 0
BBX 5 7 1 0
BITMAP
88
88
88
78
08
08
30
ENDCHAR
STARTCHAR CYRILLIC
ENCODING 1060
SWIDTH 1500 0
DWIDTH 6 0
BBX 5 7 1 0
BITMAP
20
70
A8
A8
A8
70
20
ENDCHAR
STARTCHAR CYRILLIC
ENCODING 1061
SWIDTH 1500 0
DWIDTH 6 0
BBX 5 7 1 0
BITMAP
88
88
50
20
50
88
88
ENDCHAR
STARTCHAR CYRILLIC
ENCODING 1062
SWIDTH 1500 0
DWIDTH 6 0
BBX 5 8 1 -1
BITMAP
88
88
88
88
88
88
F8
08
ENDCHAR
STARTCHAR CYRILLIC
ENCODING 1063
SWIDTH 1500 0
DWIDTH 6 0
BBX 5 7 1 0
BITMAP
88
88
88
78
08
08
08
ENDCHAR
STARTCHAR CYRILLIC
ENCODING 1064
SWIDTH 1500 0
DWIDTH 6 0
BBX 5 7 1 0
BITMAP
A8
A8
A8
A8
A8
A8
F8
ENDCHAR
STARTCHAR CYRILLIC
ENCODING 1065
SWIDTH 1500 0
DWIDTH 6 0
BBX 5 8 1 -1
BITMAP
A8
A8
A8
A8
A8
A8
F8
08
ENDCHAR
STARTCHAR CYRILLIC
ENCODING 1066
SWIDTH 1500 0
DWIDTH 6 0
BBX 6 7 0 0
BITMAP
C0
40
40
78
44
44
78
ENDCHAR
STARTCHAR CYRILLIC
ENCODING 1067
SWIDTH 1500 0
DWIDTH 6 0
BBX 5 7 1 0
BITMAP
88
88
88
E8
98
98
E8
ENDCHAR
STARTCHAR CYRILLIC
ENCODING 1068
SWIDTH 1500 0
DWIDTH 6 0
BBX 5 7 1 0
BITMAP
80
80
80
F0
88
88
F0
ENDCHAR
STARTCHAR CYRILLIC
ENCODING 1069
SWIDTH 1500 0
DWIDTH 6 0
BBX 5 7 1 0
BITMAP
F0
08
08
38
08
08
F0
ENDCHAR
STARTCHAR CYRILLIC
ENCODING 1070
SWIDTH 1500 0
DWIDTH 6 0
BBX 5 7 1 0
BITMAP
90
A8
A8
E8
A8
A8
90
ENDCHAR
STARTCHAR CYRILLIC
ENCODING 1071
SWIDTH 1500 0
DWIDTH 6 0
BBX 5 7 1 0
BITMAP
78
88
88
88
78
48
88
ENDCHAR
STARTCHAR CYRILLIC
ENCODING 1072
SWIDTH 1500 0
DWIDTH 6 0
BBX 5 5 1 0
BITMAP
70
08
78
88
78
ENDCHAR
STARTCHAR CYRILLIC
ENCODING 1073
SWIDTH 1500 0
DWIDTH 6 0
BBX 5 9 1 0
BITMAP
08
30
40
80
F0
88
88
88
70
ENDCHAR
STARTCHAR CYRILLIC
ENCODING 1074
SWIDTH 1500 0
DWIDTH 6 0
BBX 5 5 1 0
BITMAP
F0
88
F0
88
F0
ENDCHAR
STARTCHAR CYRILLIC
ENCODING 1075
SWIDTH 1500 0
DWIDTH 6 0
BBX 5 5 1 0
BITMAP
F8
80
80
80
80
ENDCHAR
STARTCHAR CYRILLIC
ENCODING 1076
SWIDTH 1500 0
DWIDTH 6 0
BBX 5 6 1 -1
BITMAP
30
50
50
50
F8
88
ENDCHAR
STARTCHAR CYRILLIC
ENCODING 1077
SWIDTH 1500 0
DWIDTH 6 0
BBX 5 5 1 0
BITMAP
70
88
F8
80
70
ENDCHAR
STARTCHAR CYRILLIC
ENCODING 1078
SWIDTH 1500 0
DWIDTH 6 0
BBX 5 5 1 0
BITMAP
A8
A8
70
A8
A8
ENDCHAR
STARTCHAR CYRILLIC
ENCODING 1079
SWIDTH 1500 0
DWIDTH 6 0
BBX 5 5 1 0
BITMAP
F0
08
30
08
F0
ENDCHAR
STARTCHAR CYRILLIC
ENCODING 1080
SWIDTH 1500 0
DWIDTH 6 0
BBX 5 5 1 0
BITMAP
88
98
A8
C8
88
ENDCHAR
STARTCHAR CYRILLIC
ENCODING 1081
SWIDTH 1500 0
DWIDTH 6 0
BBX 5 8 1 0
BITMAP
88
70
00
88
98
A8
C8
88
ENDCHAR
STARTCHAR CYRILLIC
ENCODING 1082
SWIDTH 1500 0
DWIDTH 6 0
BBX 4 5 2 0
BITMAP
90
A0
C0
A0
90
ENDCHAR
STARTCHAR CYRILLIC
ENCODING 1083
SWIDTH 1500 0
DWIDTH 6 0
BBX 5 5 1 0
BITMAP
38
48
48
48
88
ENDCHAR
STARTCHAR CYRILLIC
ENCODING 1084
SWIDTH 1500 0
DWIDTH 6 0
BBX 5 5 1 0
BITMAP
88
D8
A8
88
88
ENDCHAR
STARTCHAR CYRILLIC
ENCODING 1085
SWIDTH 1500 0
DWIDTH 6 0
BBX 5 5 1 0
BITMAP
88
88
F8
88
88
ENDCHAR
STARTCHAR CYRILLIC
ENCODING 1086
SWIDTH 1500 0
DWIDTH 6 0
BBX 5 5 1 0
BITMAP
70
88
88
88
70
ENDCHAR
STARTCHAR CYRILLIC
ENCODING 1087
SWIDTH 1500 0
DWIDTH 6 0
BBX 5 5 1 0
BITMAP
F8
88
88
88
88
ENDCHAR
STARTCHAR CYRILLIC
ENCODING 1088
SWIDTH 1500 0
DWIDTH 6 0
BBX 5 7 1 -2
BITMAP
F0
88
88
88
F0
80
80
ENDCHAR
STARTCHAR CYRILLIC
ENCODING 1089
SWIDTH 1500 0
DWIDTH 6 0
BBX 5 5 1 0
BITMAP
78
80
80
80
78
ENDCHAR
STARTCHAR CYRILLIC
ENCODING 1090
SWIDTH 1500 0
DWIDTH 6 0
BBX 5 5 1 0
BITMAP
F8
20
20
20
20
ENDCHAR
STARTCHAR CYRILLIC
ENCODING 1091
SWIDTH 1500 0
DWIDTH 6 0
BBX 5 7 1 -2
BITMAP
88
88
88
88
78
08
30
ENDCHAR
STARTCHAR CYRILLIC
ENCODING 1092
SWIDTH 1500 0
DWIDTH 6 0
BBX 5 9 1 -2
BITMAP
20
20
70
A8
A8
A8
70
20
20
ENDCHAR
STARTCHAR CYRILLIC
ENCODING 1093
SWIDTH 1500 0
DWIDTH 6 0
BBX 5 5 1 0
BITMAP
88
50
20
50
88
ENDCHAR
STARTCHAR CYRILLIC
ENCODING 1094
SWIDTH 1500 0
DWIDTH 6 0
BBX 5 6 1 -1
BITMAP
90
90
90
90
F8
08
ENDCHAR
STARTCHAR CYRILLIC
ENCODING 1095
SWIDTH 1500 0
DWIDTH 6 0
BBX 5 5 1 0
BITMAP
88
88
78
08
08
ENDCHAR
STARTCHAR CYRILLIC
ENCODING 1096
SWIDTH 1500 0
DWIDTH 6 0
BBX 5 5 1 0
BITMAP
A8
A8
A8
A8
F8
ENDCHAR
STARTCHAR CYRILLIC
ENCODING 1097
SWIDTH 1500 0
DWIDTH 6 0
BBX 5 6 1 -1
BITMAP
A8
A8
A8
A8
F8
08
ENDCHAR
STARTCHAR CYRILLIC
ENCODING 1098
SWIDTH 1500 0
DWIDTH 6 0
BBX 6 5 0 0
BITMAP
C0
40
78
44
78
ENDCHAR
STARTCHAR CYRILLIC
ENCODING 1099
SWIDTH 1500 0
DWIDTH 6 0
BBX 5 5 1 0
BITMAP
88
88
E8
98
E8
ENDCHAR
STARTCHAR CYRILLIC
ENCODING 1100
SWIDTH 1500 0
DWIDTH 6 0
BBX 5 5 1 0
BITMAP
80
80
F0
88
F0
ENDCHAR
STARTCHAR CYRILLIC
ENCODING 1101
SWIDTH 1500 0
DWIDTH 6 0
BBX 5 5 1 0
BITMAP
F0
08
38
08
F0
ENDCHAR
STARTCHAR CYRILLIC
ENCODING 1102
SWIDTH 1500 0
DWIDTH 6 0
BBX 5 5 1 0
BITMAP
90
A8
E8
A8
90
ENDCHAR
STARTCHAR CYRILLIC
ENCODING 1103
SWIDTH 1500 0
DWIDTH 6 0
BBX 5 5 1 0
BITMAP
78
88
78
48
88
ENDCHAR
STARTCHAR CYRILLIC
ENCODING 1104
SWIDTH 1500 0
DWIDTH 6 0
BBX 5 8 1 0
BITMAP
40
20
00
70
88
F8
80
70
ENDCHAR
STARTCHAR CYRILLIC
ENCODING 1105
SWIDTH 1500 0
DWIDTH 6 0
BBX 5 7 1 0
BITMAP
50
00
70
88
F8
80
70
ENDCHAR
STARTCHAR CYRILLIC
ENCODING 1106
SWIDTH 1500 0
DWIDTH 6 0
BBX 6 10 0 -2
BITMAP
40
F0
40
78
44
44
44
44
04
08
ENDCHAR
STARTCHAR CYRILLIC
ENCODING 1107
SWIDTH 1500 0
DWIDTH 6 0
BBX 5 8 1 0
BITMAP
10
20
00
F8
80
80
80
80
ENDCHAR
STARTCHAR CYRILLIC
ENCODING 1108
SWIDTH 1500 0
DWIDTH 6 0
BBX 5 5 1 0
BITMAP
78
80
E0
80
78
ENDCHAR
STARTCHAR CYRILLIC
ENCODING 1109
SWIDTH 1500 0
DWIDTH 6 0
BBX 5 5 1 0
BITMAP
78
80
70
08
F0
ENDCHAR
STARTCHAR CYRILLIC
ENCODING 1110
SWIDTH 1500 0
DWIDTH 6 0
BBX 2 7 2 0
BITMAP
40
00
C0
40
40
40
40
ENDCHAR
STARTCHAR CYRILLIC
ENCODING 1111
SWIDTH 1500 0
DWIDTH 6 0
BBX 3 7 2 0
BITMAP
A0
00
C0
40
40
40
40
ENDCHAR
STARTCHAR CYRILLIC
ENCODING 1112
SWIDTH 1500 0
DWIDTH 6 0
BBX 2 9 2 -2
BITMAP
40
00
C0
40
40
40
40
40
80
ENDCHAR
STARTCHAR CYRILLIC
ENCODING 1113
SWIDTH 1500 0
DWIDTH 6 0
BBX 6 5 0 0
BITMAP
30
50
58
54
98
ENDCHAR
STARTCHAR CYRILLIC
ENCODING 1114
SWIDTH 1500 0
DWIDTH 6 0
BBX 5 5 1 0
BITMAP
A0
A0
F0
A8
B0
ENDCHAR
STARTCHAR CYRILLIC
ENCODING 1115
SWIDTH 1500 0
DWIDTH 6 0
BBX 6 8 0 0
BITMAP
40
F0
40
78
44
44
44
44
ENDCHAR
STARTCHAR CYRILLIC
ENCODING 1116
SWIDTH 1500 0
DWIDTH 6 0
BBX 4 8 2 0
BITMAP
20
40
00
90
A0
C0
A0
90
ENDCHAR
STARTCHAR CYRILLIC
ENCODING 1117
SWIDTH 1500 0
DWIDTH 6 0
BBX 5 8 1 0
BITMAP
40
20
00
88
98
A8
C8
88
ENDCHAR
STARTCHAR CYRILLIC
ENCODING 1118
SWIDTH 1500 0
DWIDTH 6 0
BBX 5 10 1 -2
BITMAP
88
70
00
88
88
88
88
78
08
30
ENDCHAR
STARTCHAR CYRILLIC
ENCODING 1119
SWIDTH 1500 0
DWIDTH 6 0
BBX 5 7 1 -2
BITMAP
88
88
88
88
F8
20
20
ENDCHAR
STARTCHAR CYRILLIC
ENCODING 1168
SWIDTH 1500 0
DWIDTH 6 0
BBX 5 8 1 0
BITMAP
08
F8
80
80
80
80
80
80
ENDCHAR
STARTCHAR CYRILLIC
ENCODING 1169
SWIDTH 1500 0
DWIDTH 6 0
BBX 5 6 1 0
BITMAP
08
F8
80
80
80
80
ENDCHAR
STARTCHAR CYRILLIC
ENCODING 1170
SWIDTH 1500 0
DWIDTH 6 0
BBX 6 7 0 0
BITMAP
7C
40
40
F0
40
40
40
ENDCHAR
STARTCHAR CYRILLIC
ENCODING 1171
SWIDTH 1500 0
DWIDTH 6 0
BBX 6 5 0 0
BITMAP
7C
40
F0
40
40
ENDCHAR
STARTCHAR CYRILLIC
ENCODING 1178
SWIDTH 1500 0
DWIDTH 6 0
BBX 5 8 1 -1
BITMAP
88
90
A0
C0
A0
90
88
08
ENDCHAR
STARTCHAR CYRILLIC
ENCODING 1179
SWIDTH 1500 0
DWIDTH 6 0
BBX 4 6 2 -1
BITMAP
90
A0
C0
A0
90
10
ENDCHAR
STARTCHAR CYRILLIC
ENCODING 1186
SWIDTH 1500 0
DWIDTH 6 0
BBX 5 8 1 -1
BITMAP
90
90
90
F0
90
90
98
08
ENDCHAR
STARTCHAR CYRILLIC
ENCODING 1187
SWIDTH 1500 0
DWIDTH 6 0
BBX 5 6 1 -1
BITMAP
90
90
F0
90
98
08
ENDCHAR
STARTCHAR CYRILLIC
ENCODING 1200
SWIDTH 1500 0
DWIDTH 6 0
BBX 5 7 1 0
BITMAP
88
88
50
20
70
20
20
ENDCHAR
STARTCHAR CYRILLIC
ENCODING 1201
SWIDTH 1500 0
DWIDTH 6 0
BBX 5 7 1 -2
BITMAP
88
88
50
50
20
70
20
ENDCHAR
STARTCHAR CYRILLIC
ENCODING 1210
SWIDTH 1500 0
DWIDTH 6 0
BBX 5 7 1 0
BITMAP
80
80
80
F0
88
88
88
ENDCHAR
STARTCHAR CYRILLIC
ENCODING 1211
SWIDTH 1500 0
DWIDTH 6 0
BBX 5 5 1 0
BITMAP
80
80
F0
88
88
ENDCHAR
STARTCHAR CYRILLIC
ENCODING 1240
SWIDTH 1500 0
DWIDTH 6 0
BBX 5 7 1 0
BITMAP
70
08
08
F8
88
88
70
ENDCHAR
STARTCHAR CYRILLIC
ENCODING 1241
SWIDTH 1500 0
DWIDTH 6 0
BBX 5 5 1 0
BITMAP
70
08
F8
88
70
ENDCHAR
STARTCHAR CYRILLIC
ENCODING 1256
SWIDTH 1500 0
DWIDTH 6 0
BBX 5 7 1 0
BITMAP
70
88
88
F8
88
88
70
ENDCHAR
STARTCHAR CYRILLIC
ENCODING 1257
SWIDTH 1500 0
DWIDTH 6 0
BBX 5 5 1 0
BITMAP
70
88
F8
88
70
ENDCHAR
STARTCHAR ARMENIAN
ENCODING 1329
SWIDTH 1500 0
DWIDTH 6 0
BBX 5 7 1 0
BITMAP
88
88
88
88
A8
90
68
ENDCHAR
STARTCHAR ARMENIAN
ENCODING 1330
SWIDTH 1500 0
DWIDTH 6 0
BBX 5 7 1 0
BITMAP
78
80
80
80
F8
80
80
ENDCHAR
STARTCHAR ARMENIAN
ENCODING 1331
SWIDTH 1500 0
DWIDTH 6 0
BBX 5 7 1 0
BITMAP
60
90
90
90
78
10
10
ENDCHAR
STARTCHAR ARMENIAN
ENCODING 1332
SWIDTH 1500 0
DWIDTH 6 0
BBX 5 7 1 0
BITMAP
E0
10
10
10
18
10
10
ENDCHAR
STARTCHAR ARMENIAN
ENCODING 1333
SWIDTH 1500 0
DWIDTH 6 0
BBX 5 7 1 0
BITMAP
80
80
F8
80
80
80
78
ENDCHAR
STARTCHAR ARMENIAN
ENCODING 1334
SWIDTH 1500 0
DWIDTH 6 0
BBX 5 7 1 0
BITMAP
70
88
88
08
08
90
F8
ENDCHAR
STARTCHAR ARMENIAN
ENCODING 1335
SWIDTH 1500 0
DWIDTH 6 0
BBX 5 7 1 0
BITMAP
80
80
F8
80
80
80
F0
ENDCHAR
STARTCHAR ARMENIAN
ENCODING 1336
SWIDTH 1500 0
DWIDTH 6 0
BBX 5 7 1 0
BITMAP
78
80
80
80
80
80
F8
ENDCHAR
STARTCHAR ARMENIAN
ENCODING 1337
SWIDTH 1500 0
DWIDTH 6 0
BBX 5 7 1 0
BITMAP
70
88
88
98
A8
A8
90
ENDCHAR
STARTCHAR ARMENIAN
ENCODING 1338
SWIDTH 1500 0
DWIDTH 6 0
BBX 5 7 1 0
BITMAP
10
10
78
90
90
90
60
ENDCHAR
STARTCHAR ARMENIAN
ENCODING 1339
SWIDTH 1500 0
DWIDTH 6 0
BBX 5 7 1 0
BITMAP
80
80
F0
88
88
80
80
ENDCHAR
STARTCHAR ARMENIAN
ENCODING 1340
SWIDTH 1500 0
DWIDTH 6 0
BBX 5 7 1 0
BITMAP
80
80
80
80
80
80
F8
ENDCHAR
STARTCHAR ARMENIAN
ENCODING 1341
SWIDTH 1500 0
DWIDTH 6 0
BBX 5 7 1 0
BITMAP
80
80
E8
A8
A8
A8
90
ENDCHAR
STARTCHAR ARMENIAN
ENCODING 1342
SWIDTH 1500 0
DWIDTH 6 0
BBX 5 7 1 0
BITMAP
98
A0
F0
48
88
88
70
ENDCHAR
STARTCHAR ARMENIAN
ENCODING 1343
SWIDTH 1500 0
DWIDTH 6 0
BBX 5 7 1 0
BITMAP
80
80
88
88
78
08
08
ENDCHAR
STARTCHAR ARMENIAN
ENCODING 1344
SWIDTH 1500 0
DWIDTH 6 0
BBX 5 7 1 0
BITMAP
10
08
18
60
80
60
18
ENDCHAR
STARTCHAR ARMENIAN
ENCODING 1345
SWIDTH 1500 0
DWIDTH 6 0
BBX 5 7 1 0
BITMAP
70
88
08
08
68
90
68
ENDCHAR
STARTCHAR ARMENIAN
ENCODING 1346
SWIDTH 1500 0
DWIDTH 6 0
BBX 5 7 1 0
BITMAP
E0
10
10
10
10
10
18
ENDCHAR
STARTCHAR ARMENIAN
ENCODING 1347
SWIDTH 1500 0
DWIDTH 6 0
BBX 5 7 1 0
BITMAP
98
60
60
50
90
88
F8
ENDCHAR
STARTCHAR ARMENIAN
ENCODING 1348
SWIDTH 1500 0
DWIDTH 6 0
BBX 5 7 1 0
BITMAP
98
90
90
90
90
90
60
ENDCHAR
STARTCHAR ARMENIAN
ENCODING 1349
SWIDTH 1500 0
DWIDTH 6 0
BBX 5 7 1 0
BITMAP
F0
08
08
F0
08
08
F0
ENDCHAR
STARTCHAR ARMENIAN
ENCODING 1350
SWIDTH 1500 0
DWIDTH 6 0
BBX 5 7 1 0
BITMAP
C0
40
40
40
40
40
38
ENDCHAR
STARTCHAR ARMENIAN
ENCODING 1351
SWIDTH 1500 0
DWIDTH 6 0
BBX 5 7 1 0
BITMAP
C0
30
78
80
80
88
70
ENDCHAR
STARTCHAR ARMENIAN
ENCODING 1352
SWIDTH 1500 0
DWIDTH 6 0
BBX 5 7 1 0
BITMAP
70
88
88
88
88
88
88
ENDCHAR
STARTCHAR ARMENIAN
ENCODING 1353
SWIDTH 1500 0
DWIDTH 6 0
BBX 5 7 1 0
BITMAP
70
88
08
08
70
C0
30
ENDCHAR
STARTCHAR ARMENIAN
ENCODING 1354
SWIDTH 1500 0
DWIDTH 6 0
BBX 5 7 1 0
BITMAP
F0
28
28
28
08
08
08
ENDCHAR
STARTCHAR ARMENIAN
ENCODING 1355
SWIDTH 1500 0
DWIDTH 6 0
BBX 5 7 1 0
BITMAP
70
88
88
48
28
B0
F8
ENDCHAR
STARTCHAR ARMENIAN
ENCODING 1356
SWIDTH 1500 0
DWIDTH 6 0
BBX 5 7 1 0
BITMAP
60
90
90
90
98
90
90
ENDCHAR
STARTCHAR ARMENIAN
ENCODING 1357
SWIDTH 1500 0
DWIDTH 6 0
BBX 5 7 1 0
BITMAP
88
88
88
88
88
88
70
ENDCHAR
STARTCHAR ARMENIAN
ENCODING 1358
SWIDTH 1500 0
DWIDTH 6 0
BBX 5 7 1 0
BITMAP
10
10
90
90
70
10
18
ENDCHAR
STARTCHAR ARMENIAN
ENCODING 1359
SWIDTH 1500 0
DWIDTH 6 0
BBX 5 7 1 0
BITMAP
78
80
80
70
08
08
F0
ENDCHAR
STARTCHAR ARMENIAN
ENCODING 1360
SWIDTH 1500 0
DWIDTH 6 0
BBX 5 7 1 0
BITMAP
78
80
80
80
80
80
80
ENDCHAR
STARTCHAR ARMENIAN
ENCODING 1361
SWIDTH 1500 0
DWIDTH 6 0
BBX 5 7 1 0
BITMAP
70
88
88
F0
08
08
F0
ENDCHAR
STARTCHAR ARMENIAN
ENCODING 1362
SWIDTH 1500 0
DWIDTH 6 0
BBX 5 7 1 0
BITMAP
80
80
F8
80
80
80
80
ENDCHAR
STARTCHAR ARMENIAN
ENCODING 1363
SWIDTH 1500 0
DWIDTH 6 0
BBX 5 7 1 0
BITMAP
20
70
A8
A8
A8
70
20
ENDCHAR
STARTCHAR ARMENIAN
ENCODING 1364
SWIDTH 1500 0
DWIDTH 6 0
BBX 5 7 1 0
BITMAP
30
48
48
70
40
F8
40
ENDCHAR
STARTCHAR ARMENIAN
ENCODING 1365
SWIDTH 1500 0
DWIDTH 6 0
BBX 5 7 1 0
BITMAP
70
88
88
88
88
88
70
ENDCHAR
STARTCHAR ARMENIAN
ENCODING 1366
SWIDTH 1500 0
DWIDTH 6 0
BBX 5 7 1 0
BITMAP
60
A0
A0
70
28
28
F0
ENDCHAR
STARTCHAR ARMENIAN
ENCODING 1369
SWIDTH 1500 0
DWIDTH 6 0
BBX 2 3 2 5
BITMAP
40
80
40
ENDCHAR
STARTCHAR ARMENIAN
ENCODING 1370
SWIDTH 1500 0
DWIDTH 6 0
BBX 2 3 2 5
BITMAP
40
40
80
ENDCHAR
STARTCHAR ARMENIAN
ENCODING 1371
SWIDTH 1500 0
DWIDTH 6 0
BBX 3 3 2 6
BITMAP
20
40
80
ENDCHAR
STARTCHAR ARMENIAN
ENCODING 1372
SWIDTH 1500 0
DWIDTH 6 0
BBX 5 3 1 6
BITMAP
08
70
80
ENDCHAR
STARTCHAR ARMENIAN
ENCODING 1373
SWIDTH 1500 0
DWIDTH 6 0
BBX 3 3 2 6
BITMAP
80
40
20
ENDCHAR
STARTCHAR ARMENIAN
ENCODING 1374
SWIDTH 1500 0
DWIDTH 6 0
BBX 5 3 1 6
BITMAP
70
88
B0
ENDCHAR
STARTCHAR ARMENIAN
ENCODING 1375
SWIDTH 1500 0
DWIDTH 6 0
BBX 5 2 1 6
BITMAP
80
F8
ENDCHAR
STARTCHAR ARMENIAN
ENCODING 1377
SWIDTH 1500 0
DWIDTH 6 0
BBX 5 5 1 0
BITMAP
A8
A8
A8
A8
58
ENDCHAR
STARTCHAR ARMENIAN
ENCODING 1378
SWIDTH 1500 0
DWIDTH 6 0
BBX 5 7 1 -2
BITMAP
F0
88
80
80
F8
80
80
ENDCHAR
STARTCHAR ARMENIAN
ENCODING 1379
SWIDTH 1500 0
DWIDTH 6 0
BBX 5 7 1 -2
BITMAP
70
90
90
90
78
10
10
ENDCHAR
STARTCHAR ARMENIAN
ENCODING 1380
SWIDTH 1500 0
DWIDTH 6 0
BBX 5 7 1 -2
BITMAP
E0
90
90
90
98
10
10
ENDCHAR
STARTCHAR ARMENIAN
ENCODING 1381
SWIDTH 1500 0
DWIDTH 6 0
BBX 5 8 1 0
BITMAP
80
80
80
F8
80
88
88
78
ENDCHAR
STARTCHAR ARMENIAN
ENCODING 1382
SWIDTH 1500 0
DWIDTH 6 0
BBX 5 7 1 -2
BITMAP
70
90
90
90
70
10
18
ENDCHAR
STARTCHAR ARMENIAN
ENCODING 1383
SWIDTH 1500 0
DWIDTH 6 0
BBX 5 8 1 0
BITMAP
80
80
80
F8
80
80
80
F0
ENDCHAR
STARTCHAR ARMENIAN
ENCODING 1384
SWIDTH 1500 0
DWIDTH 6 0
BBX 5 7 1 -2
BITMAP
F0
88
88
88
88
80
F8
ENDCHAR
STARTCHAR ARMENIAN
ENCODING 1385
SWIDTH 1500 0
DWIDTH 6 0
BBX 5 7 1 -2
BITMAP
F0
88
98
A8
90
80
80
ENDCHAR
STARTCHAR ARMENIAN
ENCODING 1386
SWIDTH 1500 0
DWIDTH 6 0
BBX 5 8 1 0
BITMAP
10
10
10
78
90
90
90
60
ENDCHAR
STARTCHAR ARMENIAN
ENCODING 1387
SWIDTH 1500 0
DWIDTH 6 0
BBX 5 10 1 -2
BITMAP
80
80
80
F0
88
88
88
88
80
80
ENDCHAR
STARTCHAR ARMENIAN
ENCODING 1388
SWIDTH 1500 0
DWIDTH 6 0
BBX 2 9 2 -2
BITMAP
80
80
80
80
80
80
80
80
C0
ENDCHAR
STARTCHAR ARMENIAN
ENCODING 1389
SWIDTH 1500 0
DWIDTH 6 0
BBX 5 10 1 -2
BITMAP
80
80
80
C8
A8
A8
A8
90
80
80
ENDCHAR
STARTCHAR ARMENIAN
ENCODING 1390
SWIDTH 1500 0
DWIDTH 6 0
BBX 5 8 1 0
BITMAP
40
80
40
78
90
88
88
70
ENDCHAR
STARTCHAR ARMENIAN
ENCODING 1391
SWIDTH 1500 0
DWIDTH 6 0
BBX 5 10 1 -2
BITMAP
80
80
80
88
88
88
88
78
08
08
ENDCHAR
STARTCHAR ARMENIAN
ENCODING 1392
SWIDTH 1500 0
DWIDTH 6 0
BBX 5 8 1 0
BITMAP
80
80
80
F0
88
88
88
88
ENDCHAR
STARTCHAR ARMENIAN
ENCODING 1393
SWIDTH 1500 0
DWIDTH 6 0
BBX 5 8 1 0
BITMAP
40
80
58
60
90
88
88
70
ENDCHAR
STARTCHAR ARMENIAN
ENCODING 1394
SWIDTH 1500 0
DWIDTH 6 0
BBX 5 7 1 -2
BITMAP
E0
90
90
90
90
10
18
ENDCHAR
STARTCHAR ARMENIAN
ENCODING 1395
SWIDTH 1500 0
DWIDTH 6 0
BBX 5 8 1 0
BITMAP
18
20
40
F0
48
88
98
68
ENDCHAR
STARTCHAR ARMENIAN
ENCODING 1396
SWIDTH 1500 0
DWIDTH 6 0
BBX 5 8 1 0
BITMAP
18
10
10
90
90
90
90
70
ENDCHAR
STARTCHAR ARMENIAN
ENCODING 1397
SWIDTH 1500 0
DWIDTH 6 0
BBX 2 7 2 -2
BITMAP
40
40
40
40
40
40
80
ENDCHAR
STARTCHAR ARMENIAN
ENCODING 1398
SWIDTH 1500 0
DWIDTH 6 0
BBX 5 8 1 0
BITMAP
C0
40
40
48
48
48
48
38
ENDCHAR
STARTCHAR ARMENIAN
ENCODING 1399
SWIDTH 1500 0
DWIDTH 6 0
BBX 5 7 1 -2
BITMAP
F0
08
08
10
20
40
F8
ENDCHAR
STARTCHAR ARMENIAN
ENCODING 1400
SWIDTH 1500 0
DWIDTH 6 0
BBX 5 5 1 0
BITMAP
F0
88
88
88
88
ENDCHAR
STARTCHAR ARMENIAN
ENCODING 1401
SWIDTH 1500 0
DWIDTH 6 0
BBX 5 9 1 -2
BITMAP
40
80
70
10
20
40
80
80
F8
ENDCHAR
STARTCHAR ARMENIAN
ENCODING 1402
SWIDTH 1500 0
DWIDTH 6 0
BBX 5 7 1 -2
BITMAP
A8
A8
A8
A8
58
08
08
ENDCHAR
STARTCHAR ARMENIAN
ENCODING 1403
SWIDTH 1500 0
DWIDTH 6 0
BBX 5 7 1 -2
BITMAP
70
88
88
50
20
40
F8
ENDCHAR
STARTCHAR ARMENIAN
ENCODING 1404
SWIDTH 1500 0
DWIDTH 6 0
BBX 5 5 1 0
BITMAP
F0
88
88
90
B8
ENDCHAR
STARTCHAR ARMENIAN
ENCODING 1405
SWIDTH 1500 0
DWIDTH 6 0
BBX 5 5 1 0
BITMAP
88
88
88
88
78
ENDCHAR
STARTCHAR ARMENIAN
ENCODING 1406
SWIDTH 1500 0
DWIDTH 6 0
BBX 5 10 1 -2
BITMAP
10
10
10
90
90
90
90
70
10
18
ENDCHAR
STARTCHAR ARMENIAN
ENCODING 1407
SWIDTH 1500 0
DWIDTH 6 0
BBX 5 5 1 0
BITMAP
B0
A8
A8
A8
68
ENDCHAR
STARTCHAR ARMENIAN
ENCODING 1408
SWIDTH 1500 0
DWIDTH 6 0
BBX 5 7 1 -2
BITMAP
F0
88
88
88
88
80
80
ENDCHAR
STARTCHAR ARMENIAN
ENCODING 1409
SWIDTH 1500 0
DWIDTH 6 0
BBX 5 7 1 -2
BITMAP
78
88
88
88
78
08
70
ENDCHAR
STARTCHAR ARMENIAN
ENCODING 1410
SWIDTH 1500 0
DWIDTH 6 0
BBX 3 5 2 0
BITMAP
80
80
80
80
E0
ENDCHAR
STARTCHAR ARMENIAN
ENCODING 1411
SWIDTH 1500 0
DWIDTH 6 0
BBX 5 10 1 -2
BITMAP
20
20
20
B0
A8
A8
A8
68
20
20
ENDCHAR
STARTCHAR ARMENIAN
ENCODING 1412
SWIDTH 1500 0
DWIDTH 6 0
BBX 5 7 1 -2
BITMAP
70
48
48
48
70
40
F8
ENDCHAR
STARTCHAR ARMENIAN
ENCODING 1413
SWIDTH 1500 0
DWIDTH 6 0
BBX 5 5 1 0
BITMAP
70
88
88
88
70
ENDCHAR
STARTCHAR ARMENIAN
ENCODING 1414
SWIDTH 1500 0
DWIDTH 6 0
BBX 5 10 1 -2
BITMAP
60
A0
A0
70
28
28
28
F0
20
20
ENDCHAR
STARTCHAR ARMENIAN
ENCODING 1415
SWIDTH 1500 0
DWIDTH 6 0
BBX 5 8 1 0
BITMAP
80
80
80
A0
A0
A0
A0
78
ENDCHAR
STARTCHAR ARMENIAN
ENCODING 1417
SWIDTH 1500 0
DWIDTH 6 0
BBX 1 5 3 0
BITMAP
80
00
00
00
80
ENDCHAR
STARTCHAR ARMENIAN
ENCODING 1418
SWIDTH 1500 0
DWIDTH 6 0
BBX 5 2 1 2
BITMAP
88
70
ENDCHAR
STARTCHAR RIGHT-FACING
ENCODING 1421
SWIDTH 1500 0
DWIDTH 6 0
BBX 6 6 0 0
BITMAP
78
A4
BC
F4
94
78
ENDCHAR
STARTCHAR LEFT-FACING
ENCODING 1422
SWIDTH 1500 0
DWIDTH 6 0
BBX 6 6 0 0
BITMAP
78
94
F4
BC
A4
78
ENDCHAR
STARTCHAR ARMENIAN
ENCODING 1423
SWIDTH 1500 0
DWIDTH 6 0
BBX 5 7 1 0
BITMAP
E0
10
10
38
10
38
10
ENDCHAR
STARTCHAR HEBREW
ENCODING 1488
SWIDTH 1500 0
DWIDTH 6 0
BBX 5 5 1 0
BITMAP
88
48
A8
90
88
ENDCHAR
STARTCHAR HEBREW
ENCODING 1489
SWIDTH 1500 0
DWIDTH 6 0
BBX 5 5 1 0
BITMAP
E0
10
10
10
F8
ENDCHAR
STARTCHAR HEBREW
ENCODING 1490
SWIDTH 1500 0
DWIDTH 6 0
BBX 5 5 1 0
BITMAP
E0
10
10
10
E8
ENDCHAR
STARTCHAR HEBREW
ENCODING 1491
SWIDTH 1500 0
DWIDTH 6 0
BBX 5 5 1 0
BITMAP
F8
10
10
10
10
ENDCHAR
STARTCHAR HEBREW
ENCODING 1492
SWIDTH 1500 0
DWIDTH 6 0
BBX 5 5 1 0
BITMAP
F0
08
88
88
88
ENDCHAR
STARTCHAR HEBREW
ENCODING 1493
SWIDTH 1500 0
DWIDTH 6 0
BBX 1 5 3 0
BITMAP
80
80
80
80
80
ENDCHAR
STARTCHAR HEBREW
ENCODING 1494
SWIDTH 1500 0
DWIDTH 6 0
BBX 5 5 1 0
BITMAP
F8
08
10
20
20
ENDCHAR
STARTCHAR HEBREW
ENCODING 1495
SWIDTH 1500 0
DWIDTH 6 0
BBX 5 5 1 0
BITMAP
F0
88
88
88
88
ENDCHAR
STARTCHAR HEBREW
ENCODING 1496
SWIDTH 1500 0
DWIDTH 6 0
BBX 5 5 1 0
BITMAP
B0
88
88
88
70
ENDCHAR
STARTCHAR HEBREW
ENCODING 1497
SWIDTH 1500 0
DWIDTH 6 0
BBX 1 3 3 2
BITMAP
80
80
80
ENDCHAR
STARTCHAR HEBREW
ENCODING 1498
SWIDTH 1500 0
DWIDTH 6 0
BBX 5 7 1 -2
BITMAP
F0
08
08
08
08
08
08
ENDCHAR
STARTCHAR HEBREW
ENCODING 1499
SWIDTH 1500 0
DWIDTH 6 0
BBX 5 5 1 0
BITMAP
F0
08
08
08
F0
ENDCHAR
STARTCHAR HEBREW
ENCODING 1500
SWIDTH 1500 0
DWIDTH 6 0
BBX 5 6 1 0
BITMAP
80
F8
08
10
20
40
ENDCHAR
STARTCHAR HEBREW
ENCODING 1501
SWIDTH 1500 0
DWIDTH 6 0
BBX 5 5 1 0
BITMAP
F0
88
88
88
F8
ENDCHAR
STARTCHAR HEBREW
ENCODING 1502
SWIDTH 1500 0
DWIDTH 6 0
BBX 5 5 1 0
BITMAP
B0
48
48
88
B8
ENDCHAR
STARTCHAR HEBREW
ENCODING 1503
SWIDTH 1500 0
DWIDTH 6 0
BBX 1 7 3 -2
BITMAP
80
80
80
80
80
80
80
ENDCHAR
STARTCHAR HEBREW
ENCODING 1504
SWIDTH 1500 0
DWIDTH 6 0
BBX 5 5 1 0
BITMAP
F0
08
08
08
F8
ENDCHAR
STARTCHAR HEBREW
ENCODING 1505
SWIDTH 1500 0
DWIDTH 6 0
BBX 5 5 1 0
BITMAP
F0
88
88
88
70
ENDCHAR
STARTCHAR HEBREW
ENCODING 1506
SWIDTH 1500 0
DWIDTH 6 0
BBX 5 5 1 0
BITMAP
88
88
48
48
F0
ENDCHAR
STARTCHAR HEBREW
ENCODING 1507
SWIDTH 1500 0
DWIDTH 6 0
BBX 5 7 1 -2
BITMAP
F0
88
68
08
08
08
08
ENDCHAR
STARTCHAR HEBREW
ENCODING 1508
SWIDTH 1500 0
DWIDTH 6 0
BBX 5 5 1 0
BITMAP
F0
88
68
08
F0
ENDCHAR
STARTCHAR HEBREW
ENCODING 1509
SWIDTH 1500 0
DWIDTH 6 0
BBX 5 7 1 -2
BITMAP
88
48
30
20
20
20
20
ENDCHAR
STARTCHAR HEBREW
ENCODING 1510
SWIDTH 1500 0
DWIDTH 6 0
BBX 5 5 1 0
BITMAP
88
48
30
10
F8
ENDCHAR
STARTCHAR HEBREW
ENCODING 1511
SWIDTH 1500 0
DWIDTH 6 0
BBX 5 7 1 -2
BITMAP
F8
08
88
90
A0
80
80
ENDCHAR
STARTCHAR HEBREW
ENCODING 1512
SWIDTH 1500 0
DWIDTH 6 0
BBX 5 5 1 0
BITMAP
F0
08
08
08
08
ENDCHAR
STARTCHAR HEBREW
ENCODING 1513
SWIDTH 1500 0
DWIDTH 6 0
BBX 5 5 1 0
BITMAP
A8
A8
C8
88
F0
ENDCHAR
STARTCHAR HEBREW
ENCODING 1514
SWIDTH 1500 0
DWIDTH 6 0
BBX 5 5 1 0
BITMAP
F0
48
48
48
88
ENDCHAR
STARTCHAR KANNADA
ENCODING 3232
SWIDTH 1500 0
DWIDTH 6 0
BBX 5 7 1 0
BITMAP
08
08
F0
88
A8
88
70
ENDCHAR
STARTCHAR LATIN
ENCODING 7682
SWIDTH 1500 0
DWIDTH 6 0
BBX 5 9 1 0
BITMAP
20
00
F0
88
88
F0
88
88
F0
ENDCHAR
STARTCHAR LATIN
ENCODING 7683
SWIDTH 1500 0
DWIDTH 6 0
BBX 5 10 1 0
BITMAP
80
00
80
80
80
F0
88
88
88
F0
ENDCHAR
STARTCHAR LATIN
ENCODING 7690
SWIDTH 1500 0
DWIDTH 6 0
BBX 5 9 1 0
BITMAP
20
00
F0
88
88
88
88
88
F0
ENDCHAR
STARTCHAR LATIN
ENCODING 7691
SWIDTH 1500 0
DWIDTH 6 0
BBX 5 10 1 0
BITMAP
08
00
08
08
08
78
88
88
88
78
ENDCHAR
STARTCHAR LATIN
ENCODING 7710
SWIDTH 1500 0
DWIDTH 6 0
BBX 5 9 1 0
BITMAP
20
00
F8
80
80
E0
80
80
80
ENDCHAR
STARTCHAR LATIN
ENCODING 7711
SWIDTH 1500 0
DWIDTH 6 0
BBX 3 10 2 0
BITMAP
40
00
60
80
80
C0
80
80
80
80
ENDCHAR
STARTCHAR LATIN
ENCODING 7744
SWIDTH 1500 0
DWIDTH 6 0
BBX 5 9 1 0
BITMAP
20
00
88
D8
A8
88
88
88
88
ENDCHAR
STARTCHAR LATIN
ENCODING 7745
SWIDTH 1500 0
DWIDTH 6 0
BBX 5 7 1 0
BITMAP
20
00
D0
A8
A8
A8
88
ENDCHAR
STARTCHAR LATIN
ENCODING 7766
SWIDTH 1500 0
DWIDTH 6 0
BBX 5 9 1 0
BITMAP
20
00
F0
88
88
88
F0
80
80
ENDCHAR
STARTCHAR LATIN
ENCODING 7767
SWIDTH 1500 0
DWIDTH 6 0
BBX 5 9 1 -2
BITMAP
20
00
F0
88
88
88
F0
80
80
ENDCHAR
STARTCHAR LATIN
ENCODING 7776
SWIDTH 1500 0
DWIDTH 6 0
BBX 5 9 1 0
BITMAP
20
00
78
80
80
70
08
08
F0
ENDCHAR
STARTCHAR LATIN
ENCODING 7777
SWIDTH 1500 0
DWIDTH 6 0
BBX 5 7 1 0
BITMAP
20
00
78
80
70
08
F0
ENDCHAR
STARTCHAR LATIN
ENCODING 7786
SWIDTH 1500 0
DWIDTH 6 0
BBX 5 9 1 0
BITMAP
20
00
F8
20
20
20
20
20
20
ENDCHAR
STARTCHAR LATIN
ENCODING 7787
SWIDTH 1500 0
DWIDTH 6 0
BBX 4 10 1 0
BITMAP
40
00
40
40
40
E0
40
40
40
30
ENDCHAR
STARTCHAR LATIN
ENCODING 7808
SWIDTH 1500 0
DWIDTH 6 0
BBX 5 10 1 0
BITMAP
40
20
00
88
88
88
88
A8
D8
88
ENDCHAR
STARTCHAR LATIN
ENCODING 7809
SWIDTH 1500 0
DWIDTH 6 0
BBX 5 8 1 0
BITMAP
40
20
00
88
88
A8
D8
88
ENDCHAR
STARTCHAR LATIN
ENCODING 7810
SWIDTH 1500 0
DWIDTH 6 0
BBX 5 10 1 0
BITMAP
10
20
00
88
88
88
88
A8
D8
88
ENDCHAR
STARTCHAR LATIN
ENCODING 7811
SWIDTH 1500 0
DWIDTH 6 0
BBX 5 8 1 0
BITMAP
10
20
00
88
88
A8
D8
88
ENDCHAR
STARTCHAR LATIN
ENCODING 7812
SWIDTH 1500 0
DWIDTH 6 0
BBX 5 9 1 0
BITMAP
50
00
88
88
88
88
A8
D8
88
ENDCHAR
STARTCHAR LATIN
ENCODING 7813
SWIDTH 1500 0
DWIDTH 6 0
BBX 5 7 1 0
BITMAP
50
00
88
88
A8
D8
88
ENDCHAR
STARTCHAR LATIN
ENCODING 7840
SWIDTH 1500 0
DWIDTH 6 0
BBX 5 9 1 -2
BITMAP
70
88
88
88
F8
88
88
00
20
ENDCHAR
STARTCHAR LATIN
ENCODING 7841
SWIDTH 1500 0
DWIDTH 6 0
BBX 5 7 1 -2
BITMAP
70
08
78
88
78
00
20
ENDCHAR
STARTCHAR LATIN
ENCODING 7842
SWIDTH 1500 0
DWIDTH 6 0
BBX 5 10 1 0
BITMAP
60
10
20
70
88
88
88
F8
88
88
ENDCHAR
STARTCHAR LATIN
ENCODING 7843
SWIDTH 1500 0
DWIDTH 6 0
BBX 5 9 1 0
BITMAP
60
10
20
00
70
08
78
88
78
ENDCHAR
STARTCHAR LATIN
ENCODING 7844
SWIDTH 1500 0
DWIDTH 6 0
BBX 6 10 0 0
BITMAP
44
A8
00
38
44
44
44
7C
44
44
ENDCHAR
STARTCHAR LATIN
ENCODING 7845
SWIDTH 1500 0
DWIDTH 6 0
BBX 5 10 1 0
BITMAP
08
10
40
A0
00
70
08
78
88
78
ENDCHAR
STARTCHAR LATIN
ENCODING 7846
SWIDTH 1500 0
DWIDTH 6 0
BBX 6 10 0 0
BITMAP
88
54
00
38
44
44
44
7C
44
44
ENDCHAR
STARTCHAR LATIN
ENCODING 7847
SWIDTH 1500 0
DWIDTH 6 0
BBX 5 10 1 0
BITMAP
80
40
10
28
00
70
08
78
88
78
ENDCHAR
STARTCHAR LATIN
ENCODING 7848
SWIDTH 1500 0
DWIDTH 6 0
BBX 6 10 0 0
BITMAP
58
A4
08
38
44
44
44
7C
44
44
ENDCHAR
STARTCHAR LATIN
ENCODING 7849
SWIDTH 1500 0
DWIDTH 6 0
BBX 5 10 1 0
BITMAP
30
08
50
A0
00
70
08
78
88
78
ENDCHAR
STARTCHAR LATIN
ENCODING 7850
SWIDTH 1500 0
DWIDTH 6 0
BBX 5 10 1 0
BITMAP
50
A0
50
70
88
88
88
F8
88
88
ENDCHAR
STARTCHAR LATIN
ENCODING 7851
SWIDTH 1500 0
DWIDTH 6 0
BBX 5 10 1 0
BITMAP
28
50
20
50
00
70
08
78
88
78
ENDCHAR
STARTCHAR LATIN
ENCODING 7852
SWIDTH 1500 0
DWIDTH 6 0
BBX 5 12 1 -2
BITMAP
20
50
00
70
88
88
88
F8
88
88
00
20
ENDCHAR
STARTCHAR LATIN
ENCODING 7853
SWIDTH 1500 0
DWIDTH 6 0
BBX 5 10 1 -2
BITMAP
20
50
00
70
08
78
88
78
00
20
ENDCHAR
STARTCHAR LATIN
ENCODING 7854
SWIDTH 1500 0
DWIDTH 6 0
BBX 5 10 1 0
BITMAP
10
20
88
70
88
88
88
F8
88
88
ENDCHAR
STARTCHAR LATIN
ENCODING 7855
SWIDTH 1500 0
DWIDTH 6 0
BBX 5 10 1 0
BITMAP
10
20
88
70
00
70
08
78
88
78
ENDCHAR
STARTCHAR LATIN
ENCODING 7856
SWIDTH 1500 0
DWIDTH 6 0
BBX 5 10 1 0
BITMAP
40
20
88
70
88
88
88
F8
88
88
ENDCHAR
STARTCHAR LATIN
ENCODING 7857
SWIDTH 1500 0
DWIDTH 6 0
BBX 5 10 1 0
BITMAP
40
20
88
70
00
70
08
78
88
78
ENDCHAR
STARTCHAR LATIN
ENCODING 7858
SWIDTH 1500 0
DWIDTH 6 0
BBX 5 10 1 0
BITMAP
60
10
A8
70
88
88
88
F8
88
88
ENDCHAR
STARTCHAR LATIN
ENCODING 7859
SWIDTH 1500 0
DWIDTH 6 0
BBX 5 10 1 0
BITMAP
60
10
A8
70
00
70
08
78
88
78
ENDCHAR
STARTCHAR LATIN
ENCODING 7860
SWIDTH 1500 0
DWIDTH 6 0
BBX 5 10 1 0
BITMAP
28
50
88
70
88
88
88
F8
88
88
ENDCHAR
STARTCHAR LATIN
ENCODING 7861
SWIDTH 1500 0
DWIDTH 6 0
BBX 5 10 1 0
BITMAP
28
50
88
70
00
70
08
78
88
78
ENDCHAR
STARTCHAR LATIN
ENCODING 7862
SWIDTH 1500 0
DWIDTH 6 0
BBX 5 12 1 -2
BITMAP
88
70
00
70
88
88
88
F8
88
88
00
20
ENDCHAR
STARTCHAR LATIN
ENCODING 7863
SWIDTH 1500 0
DWIDTH 6 0
BBX 5 10 1 -2
BITMAP
48
30
00
70
08
78
88
78
00
20
ENDCHAR
STARTCHAR LATIN
ENCODING 7864
SWIDTH 1500 0
DWIDTH 6 0
BBX 5 9 1 -2
BITMAP
F8
80
80
E0
80
80
F8
00
20
ENDCHAR
STARTCHAR LATIN
ENCODING 7865
SWIDTH 1500 0
DWIDTH 6 0
BBX 5 7 1 -2
BITMAP
70
88
F8
80
70
00
20
ENDCHAR
STARTCHAR LATIN
ENCODING 7866
SWIDTH 1500 0
DWIDTH 6 0
BBX 5 10 1 0
BITMAP
60
10
20
F8
80
80
E0
80
80
F8
ENDCHAR
STARTCHAR LATIN
ENCODING 7867
SWIDTH 1500 0
DWIDTH 6 0
BBX 5 9 1 0
BITMAP
60
10
20
00
70
88
F8
80
70
ENDCHAR
STARTCHAR LATIN
ENCODING 7868
SWIDTH 1500 0
DWIDTH 6 0
BBX 5 10 1 0
BITMAP
28
50
00
F8
80
80
E0
80
80
F8
ENDCHAR
STARTCHAR LATIN
ENCODING 7869
SWIDTH 1500 0
DWIDTH 6 0
BBX 5 8 1 0
BITMAP
28
50
00
70
88
F8
80
70
ENDCHAR
STARTCHAR LATIN
ENCODING 7870
SWIDTH 1500 0
DWIDTH 6 0
BBX 6 10 0 0
BITMAP
44
A8
00
7C
40
40
70
40
40
7C
ENDCHAR
STARTCHAR LATIN
ENCODING 7871
SWIDTH 1500 0
DWIDTH 6 0
BBX 5 10 1 0
BITMAP
08
10
40
A0
00
70
88
F8
80
70
ENDCHAR
STARTCHAR LATIN
ENCODING 7872
SWIDTH 1500 0
DWIDTH 6 0
BBX 6 10 0 0
BITMAP
88
54
00
7C
40
40
70
40
40
7C
ENDCHAR
STARTCHAR LATIN
ENCODING 7873
SWIDTH 1500 0
DWIDTH 6 0
BBX 5 10 1 0
BITMAP
80
40
10
28
00
70
88
F8
80
70
ENDCHAR
STARTCHAR LATIN
ENCODING 7874
SWIDTH 1500 0
DWIDTH 6 0
BBX 6 10 0 0
BITMAP
58
A4
08
7C
40
40
70
40
40
7C
ENDCHAR
STARTCHAR LATIN
ENCODING 7875
SWIDTH 1500 0
DWIDTH 6 0
BBX 5 10 1 0
BITMAP
30
08
50
A0
00
70
88
F8
80
70
ENDCHAR
STARTCHAR LATIN
ENCODING 7876
SWIDTH 1500 0
DWIDTH 6 0
BBX 5 10 1 0
BITMAP
50
A0
50
F8
80
80
E0
80
80
F8
ENDCHAR
STARTCHAR LATIN
ENCODING 7877
SWIDTH 1500 0
DWIDTH 6 0
BBX 5 10 1 0
BITMAP
28
50
20
50
00
70
88
F8
80
70
ENDCHAR
STARTCHAR LATIN
ENCODING 7878
SWIDTH 1500 0
DWIDTH 6 0
BBX 5 12 1 -2
BITMAP
20
50
00
F8
80
80
E0
80
80
F8
00
20
ENDCHAR
STARTCHAR LATIN
ENCODING 7879
SWIDTH 1500 0
DWIDTH 6 0
BBX 5 10 1 -2
BITMAP
20
50
00
70
88
F8
80
70
00
20
ENDCHAR
STARTCHAR LATIN
ENCODING 7880
SWIDTH 1500 0
DWIDTH 6 0
BBX 3 10 2 0
BITMAP
C0
20
40
E0
40
40
40
40
40
E0
ENDCHAR
STARTCHAR LATIN
ENCODING 7881
SWIDTH 1500 0
DWIDTH 6 0
BBX 3 9 2 0
BITMAP
C0
20
40
00
C0
40
40
40
40
ENDCHAR
STARTCHAR LATIN
ENCODING 7882
SWIDTH 1500 0
DWIDTH 6 0
BBX 3 9 2 -2
BITMAP
E0
40
40
40
40
40
E0
00
40
ENDCHAR
STARTCHAR LATIN
ENCODING 7883
SWIDTH 1500 0
DWIDTH 6 0
BBX 2 9 2 -2
BITMAP
40
00
C0
40
40
40
40
00
40
ENDCHAR
STARTCHAR LATIN
ENCODING 7884
SWIDTH 1500 0
DWIDTH 6 0
BBX 5 9 1 -2
BITMAP
70
88
88
88
88
88
70
00
20
ENDCHAR
STARTCHAR LATIN
ENCODING 7885
SWIDTH 1500 0
DWIDTH 6 0
BBX 5 7 1 -2
BITMAP
70
88
88
88
70
00
20
ENDCHAR
STARTCHAR LATIN
ENCODING 7886
SWIDTH 1500 0
DWIDTH 6 0
BBX 5 10 1 0
BITMAP
60
10
20
70
88
88
88
88
88
70
ENDCHAR
STARTCHAR LATIN
ENCODING 7887
SWIDTH 1500 0
DWIDTH 6 0
BBX 5 9 1 0
BITMAP
60
10
20
00
70
88
88
88
70
ENDCHAR
STARTCHAR LATIN
ENCODING 7888
SWIDTH 1500 0
DWIDTH 6 0
BBX 6 10 0 0
BITMAP
44
A8
00
38
44
44
44
44
44
38
ENDCHAR
STARTCHAR LATIN
ENCODING 7889
SWIDTH 1500 0
DWIDTH 6 0
BBX 5 10 1 0
BITMAP
08
10
40
A0
00
70
88
88
88
70
ENDCHAR
STARTCHAR LATIN
ENCODING 7890
SWIDTH 1500 0
DWIDTH 6 0
BBX 6 10 0 0
BITMAP
88
54
00
38
44
44
44
44
44
38
ENDCHAR
STARTCHAR LATIN
ENCODING 7891
SWIDTH 1500 0
DWIDTH 6 0
BBX 5 10 1 0
BITMAP
80
40
10
28
00
70
88
88
88
70
ENDCHAR
STARTCHAR LATIN
ENCODING 7892
SWIDTH 1500 0
DWIDTH 6 0
BBX 6 10 0 0
BITMAP
58
A4
08
38
44
44
44
44
44
38
ENDCHAR
STARTCHAR LATIN
ENCODING 7893
SWIDTH 1500 0
DWIDTH 6 0
BBX 5 10 1 0
BITMAP
30
08
50
A0
00
70
88
88
88
70
ENDCHAR
STARTCHAR LATIN
ENCODING 7894
SWIDTH 1500 0
DWIDTH 6 0
BBX 5 10 1 0
BITMAP
50
A0
50
70
88
88
88
88
88
70
ENDCHAR
STARTCHAR LATIN
ENCODING 7895
SWIDTH 1500 0
DWIDTH 6 0
BBX 5 10 1 0
BITMAP
28
50
20
50
00
70
88
88
88
70
ENDCHAR
STARTCHAR LATIN
ENCODING 7896
SWIDTH 1500 0
DWIDTH 6 0
BBX 5 12 1 -2
BITMAP
20
50
00
70
88
88
88
88
88
70
00
20
ENDCHAR
STARTCHAR LATIN
ENCODING 7897
SWIDTH 1500 0
DWIDTH 6 0
BBX 5 10 1 -2
BITMAP
20
50
00
70
88
88
88
70
00
20
ENDCHAR
STARTCHAR LATIN
ENCODING 7898
SWIDTH 1500 0
DWIDTH 6 0
BBX 5 10 1 0
BITMAP
20
40
08
68
98
90
90
90
90
60
ENDCHAR
STARTCHAR LATIN
ENCODING 7899
SWIDTH 1500 0
DWIDTH 6 0
BBX 5 8 1 0
BITMAP
20
40
08
68
98
90
90
60
ENDCHAR
STARTCHAR LATIN
ENCODING 7900
SWIDTH 1500 0
DWIDTH 6 0
BBX 5 10 1 0
BITMAP
40
20
08
68
98
90
90
90
90
60
ENDCHAR
STARTCHAR LATIN
ENCODING 7901
SWIDTH 1500 0
DWIDTH 6 0
BBX 5 8 1 0
BITMAP
40
20
08
68
98
90
90
60
ENDCHAR
STARTCHAR LATIN
ENCODING 7902
SWIDTH 1500 0
DWIDTH 6 0
BBX 5 10 1 0
BITMAP
C0
20
48
68
98
90
90
90
90
60
ENDCHAR
STARTCHAR LATIN
ENCODING 7903
SWIDTH 1500 0
DWIDTH 6 0
BBX 5 9 1 0
BITMAP
C0
20
40
08
68
98
90
90
60
ENDCHAR
STARTCHAR LATIN
ENCODING 7904
SWIDTH 1500 0
DWIDTH 6 0
BBX 5 10 1 0
BITMAP
50
A0
08
68
98
90
90
90
90
60
ENDCHAR
STARTCHAR LATIN
ENCODING 7905
SWIDTH 1500 0
DWIDTH 6 0
BBX 5 8 1 0
BITMAP
50
A0
08
68
98
90
90
60
ENDCHAR
STARTCHAR LATIN
ENCODING 7906
SWIDTH 1500 0
DWIDTH 6 0
BBX 5 10 1 -2
BITMAP
08
68
98
90
90
90
90
60
00
20
ENDCHAR
STARTCHAR LATIN
ENCODING 7907
SWIDTH 1500 0
DWIDTH 6 0
BBX 5 8 1 -2
BITMAP
08
68
98
90
90
60
00
20
ENDCHAR
STARTCHAR LATIN
ENCODING 7908
SWIDTH 1500 0
DWIDTH 6 0
BBX 5 9 1 -2
BITMAP
88
88
88
88
88
88
70
00
20
ENDCHAR
STARTCHAR LATIN
ENCODING 7909
SWIDTH 1500 0
DWIDTH 6 0
BBX 5 7 1 -2
BITMAP
88
88
88
88
78
00
20
ENDCHAR
STARTCHAR LATIN
ENCODING 7910
SWIDTH 1500 0
DWIDTH 6 0
BBX 5 10 1 0
BITMAP
60
10
20
88
88
88
88
88
88
70
ENDCHAR
STARTCHAR LATIN
ENCODING 7911
SWIDTH 1500 0
DWIDTH 6 0
BBX 5 9 1 0
BITMAP
60
10
20
00
88
88
88
88
78
ENDCHAR
STARTCHAR LATIN
ENCODING 7912
SWIDTH 1500 0
DWIDTH 6 0
BBX 5 10 1 0
BITMAP
20
40
08
98
98
90
90
90
90
60
ENDCHAR
STARTCHAR LATIN
ENCODING 7913
SWIDTH 1500 0
DWIDTH 6 0
BBX 5 8 1 0
BITMAP
20
40
08
98
98
90
90
70
ENDCHAR
STARTCHAR LATIN
ENCODING 7914
SWIDTH 1500 0
DWIDTH 6 0
BBX 5 10 1 0
BITMAP
40
20
08
98
98
90
90
90
90
60
ENDCHAR
STARTCHAR LATIN
ENCODING 7915
SWIDTH 1500 0
DWIDTH 6 0
BBX 5 8 1 0
BITMAP
40
20
08
98
98
90
90
70
ENDCHAR
STARTCHAR LATIN
ENCODING 7916
SWIDTH 1500 0
DWIDTH 6 0
BBX 5 10 1 0
BITMAP
C0
20
48
98
98
90
90
90
90
60
ENDCHAR
STARTCHAR LATIN
ENCODING 7917
SWIDTH 1500 0
DWIDTH 6 0
BBX 5 9 1 0
BITMAP
C0
20
40
08
98
98
90
90
70
ENDCHAR
STARTCHAR LATIN
ENCODING 7918
SWIDTH 1500 0
DWIDTH 6 0
BBX 5 10 1 0
BITMAP
50
A0
08
98
98
90
90
90
90
60
ENDCHAR
STARTCHAR LATIN
ENCODING 7919
SWIDTH 1500 0
DWIDTH 6 0
BBX 5 8 1 0
BITMAP
50
A0
08
98
98
90
90
70
ENDCHAR
STARTCHAR LATIN
ENCODING 7920
SWIDTH 1500 0
DWIDTH 6 0
BBX 5 10 1 -2
BITMAP
08
98
98
90
90
90
90
60
00
20
ENDCHAR
STARTCHAR LATIN
ENCODING 7921
SWIDTH 1500 0
DWIDTH 6 0
BBX 5 8 1 -2
BITMAP
08
98
98
90
90
70
00
20
ENDCHAR
STARTCHAR LATIN
ENCODING 7922
SWIDTH 1500 0
DWIDTH 6 0
BBX 5 10 1 0
BITMAP
40
20
00
88
88
50
20
20
20
20
ENDCHAR
STARTCHAR LATIN
ENCODING 7923
SWIDTH 1500 0
DWIDTH 6 0
BBX 5 10 1 -2
BITMAP
40
20
00
88
88
88
88
78
08
30
ENDCHAR
STARTCHAR LATIN
ENCODING 7924
SWIDTH 1500 0
DWIDTH 6 0
BBX 5 9 1 -2
BITMAP
88
88
50
20
20
20
20
00
20
ENDCHAR
STARTCHAR LATIN
ENCODING 7925
SWIDTH 1500 0
DWIDTH 6 0
BBX 5 7 1 -2
BITMAP
88
88
88
88
78
10
68
ENDCHAR
STARTCHAR LATIN
ENCODING 7926
SWIDTH 1500 0
DWIDTH 6 0
BBX 5 10 1 0
BITMAP
60
10
20
88
88
50
20
20
20
20
ENDCHAR
STARTCHAR LATIN
ENCODING 7927
SWIDTH 1500 0
DWIDTH 6 0
BBX 5 11 1 -2
BITMAP
60
10
20
00
88
88
88
88
78
08
70
ENDCHAR
STARTCHAR LATIN
ENCODING 7928
SWIDTH 1500 0
DWIDTH 6 0
BBX 5 10 1 0
BITMAP
28
50
00
88
88
50
20
20
20
20
ENDCHAR
STARTCHAR LATIN
ENCODING 7929
SWIDTH 1500 0
DWIDTH 6 0
BBX 5 10 1 -2
BITMAP
28
50
00
88
88
88
88
78
08
70
ENDCHAR
STARTCHAR EN
ENCODING 8192
SWIDTH 1500 0
DWIDTH 6 0
BBX 1 1 5 -2
BITMAP
00
ENDCHAR
STARTCHAR EM
ENCODING 8193
SWIDTH 1500 0
DWIDTH 6 0
BBX 1 1 5 -2
BITMAP
00
ENDCHAR
STARTCHAR EN
ENCODING 8194
SWIDTH 1500 0
DWIDTH 6 0
BBX 1 1 5 -2
BITMAP
00
ENDCHAR
STARTCHAR EM
ENCODING 8195
SWIDTH 1500 0
DWIDTH 6 0
BBX 1 1 5 -2
BITMAP
00
ENDCHAR
STARTCHAR THREE-PER-EM
ENCODING 8196
SWIDTH 1500 0
DWIDTH 6 0
BBX 1 1 5 -2
BITMAP
00
ENDCHAR
STARTCHAR FOUR-PER-EM
ENCODING 8197
SWIDTH 1500 0
DWIDTH 6 0
BBX 1 1 5 -2
BITMAP
00
ENDCHAR
STARTCHAR SIX-PER-EM
ENCODING 8198
SWIDTH 1500 0
DWIDTH 6 0
BBX 1 1 5 -2
BITMAP
00
ENDCHAR
STARTCHAR FIGURE
ENCODING 8199
SWIDTH 1500 0
DWIDTH 6 0
BBX 1 1 5 -2
BITMAP
00
ENDCHAR
STARTCHAR PUNCTUATION
ENCODING 8200
SWIDTH 1500 0
DWIDTH 6 0
BBX 1 1 5 -2
BITMAP
00
ENDCHAR
STARTCHAR THIN
ENCODING 8201
SWIDTH 1500 0
DWIDTH 6 0
BBX 1 1 5 -2
BITMAP
00
ENDCHAR
STARTCHAR HAIR
ENCODING 8202
SWIDTH 1500 0
DWIDTH 6 0
BBX 1 1 5 -2
BITMAP
00
ENDCHAR
STARTCHAR ZERO
ENCODING 8203
SWIDTH 1500 0
DWIDTH 6 0
BBX 1 1 5 -2
BITMAP
00
ENDCHAR
STARTCHAR ZERO
ENCODING 8204
SWIDTH 1500 0
DWIDTH 6 0
BBX 1 1 5 -2
BITMAP
00
ENDCHAR
STARTCHAR ZERO
ENCODING 8205
SWIDTH 1500 0
DWIDTH 6 0
BBX 1 1 5 -2
BITMAP
00
ENDCHAR
STARTCHAR LEFT-TO-RIGHT
ENCODING 8206
SWIDTH 1500 0
DWIDTH 6 0
BBX 1 1 5 -2
BITMAP
00
ENDCHAR
STARTCHAR RIGHT-TO-LEFT
ENCODING 8207
SWIDTH 1500 0
DWIDTH 6 0
BBX 1 1 5 -2
BITMAP
00
ENDCHAR
STARTCHAR HYPHEN
ENCODING 8208
SWIDTH 1500 0
DWIDTH 6 0
BBX 3 1 2 3
BITMAP
E0
ENDCHAR
STARTCHAR NON-BREAKING
ENCODING 8209
SWIDTH 1500 0
DWIDTH 6 0
BBX 3 1 2 3
BITMAP
E0
ENDCHAR
STARTCHAR FIGURE
ENCODING 8210
SWIDTH 1500 0
DWIDTH 6 0
BBX 5 1 1 3
BITMAP
F8
ENDCHAR
STARTCHAR EN
ENCODING 8211
SWIDTH 1500 0
DWIDTH 6 0
BBX 4 1 1 3
BITMAP
F0
ENDCHAR
STARTCHAR EM
ENCODING 8212
SWIDTH 1500 0
DWIDTH 6 0
BBX 6 1 0 3
BITMAP
FC
ENDCHAR
STARTCHAR HORIZONTAL
ENCODING 8213
SWIDTH 1500 0
DWIDTH 6 0
BBX 6 1 0 3
BITMAP
FC
ENDCHAR
STARTCHAR DOUBLE
ENCODING 8214
SWIDTH 1500 0
DWIDTH 6 0
BBX 3 11 2 -2
BITMAP
A0
A0
A0
A0
A0
A0
A0
A0
A0
A0
A0
ENDCHAR
STARTCHAR DOUBLE
ENCODING 8215
SWIDTH 1500 0
DWIDTH 6 0
BBX 5 3 1 -2
BITMAP
F8
00
F8
ENDCHAR
STARTCHAR LEFT
ENCODING 8216
SWIDTH 1500 0
DWIDTH 6 0
BBX 2 3 3 7
BITMAP
40
80
80
ENDCHAR
STARTCHAR RIGHT
ENCODING 8217
SWIDTH 1500 0
DWIDTH 6 0
BBX 2 3 2 7
BITMAP
40
40
80
ENDCHAR
STARTCHAR SINGLE
ENCODING 8218
SWIDTH 1500 0
DWIDTH 6 0
BBX 2 3 2 -2
BITMAP
40
40
80
ENDCHAR
STARTCHAR SINGLE
ENCODING 8219
SWIDTH 1500 0
DWIDTH 6 0
BBX 2 3 3 7
BITMAP
80
80
40
ENDCHAR
STARTCHAR LEFT
ENCODING 8220
SWIDTH 1500 0
DWIDTH 6 0
BBX 4 3 2 7
BITMAP
50
A0
A0
ENDCHAR
STARTCHAR RIGHT
ENCODING 8221
SWIDTH 1500 0
DWIDTH 6 0
BBX 4 3 1 7
BITMAP
50
50
A0
ENDCHAR
STARTCHAR DOUBLE
ENCODING 8222
SWIDTH 1500 0
DWIDTH 6 0
BBX 4 3 1 -2
BITMAP
50
50
A0
ENDCHAR
STARTCHAR DOUBLE
ENCODING 8223
SWIDTH 1500 0
DWIDTH 6 0
BBX 4 3 2 7
BITMAP
A0
A0
50
ENDCHAR
STARTCHAR DAGGER
ENCODING 8224
SWIDTH 1500 0
DWIDTH 6 0
BBX 5 8 1 0
BITMAP
20
20
F8
20
20
20
20
20
ENDCHAR
STARTCHAR DOUBLE
ENCODING 8225
SWIDTH 1500 0
DWIDTH 6 0
BBX 5 8 1 0
BITMAP
20
20
F8
20
20
F8
20
20
ENDCHAR
STARTCHAR BULLET
ENCODING 8226
SWIDTH 1500 0
DWIDTH 6 0
BBX 4 4 1 2
BITMAP
60
F0
F0
60
ENDCHAR
STARTCHAR TRIANGULAR
ENCODING 8227
SWIDTH 1500 0
DWIDTH 6 0
BBX 3 3 2 2
BITMAP
C0
E0
C0
ENDCHAR
STARTCHAR ONE
ENCODING 8228
SWIDTH 1500 0
DWIDTH 6 0
BBX 1 1 3 0
BITMAP
80
ENDCHAR
STARTCHAR TWO
ENCODING 8229
SWIDTH 1500 0
DWIDTH 6 0
BBX 4 1 2 0
BITMAP
90
ENDCHAR
STARTCHAR HORIZONTAL
ENCODING 8230
SWIDTH 1500 0
DWIDTH 6 0
BBX 5 1 1 0
BITMAP
A8
ENDCHAR
STARTCHAR HYPHENATION
ENCODING 8231
SWIDTH 1500 0
DWIDTH 6 0
BBX 1 1 3 3
BITMAP
80
ENDCHAR
STARTCHAR LINE
ENCODING 8232
SWIDTH 1500 0
DWIDTH 6 0
BBX 1 1 5 -2
BITMAP
00
ENDCHAR
STARTCHAR PARAGRAPH
ENCODING 8233
SWIDTH 1500 0
DWIDTH 6 0
BBX 1 1 5 -2
BITMAP
00
ENDCHAR
STARTCHAR LEFT-TO-RIGHT
ENCODING 8234
SWIDTH 1500 0
DWIDTH 6 0
BBX 1 1 5 -2
BITMAP
00
ENDCHAR
STARTCHAR RIGHT-TO-LEFT
ENCODING 8235
SWIDTH 1500 0
DWIDTH 6 0
BBX 1 1 5 -2
BITMAP
00
ENDCHAR
STARTCHAR POP
ENCODING 8236
SWIDTH 1500 0
DWIDTH 6 0
BBX 1 1 5 -2
BITMAP
00
ENDCHAR
STARTCHAR LEFT-TO-RIGHT
ENCODING 8237
SWIDTH 1500 0
DWIDTH 6 0
BBX 1 1 5 -2
BITMAP
00
ENDCHAR
STARTCHAR RIGHT-TO-LEFT
ENCODING 8238
SWIDTH 1500 0
DWIDTH 6 0
BBX 1 1 5 -2
BITMAP
00
ENDCHAR
STARTCHAR NARROW
ENCODING 8239
SWIDTH 1500 0
DWIDTH 6 0
BBX 1 1 5 -2
BITMAP
00
ENDCHAR
STARTCHAR PER
ENCODING 8240
SWIDTH 1500 0
DWIDTH 6 0
BBX 6 7 0 0
BITMAP
40
A8
50
20
68
D4
28
ENDCHAR
STARTCHAR PER
ENCODING 8241
SWIDTH 1500 0
DWIDTH 6 0
BBX 6 7 0 0
BITMAP
C8
D0
20
40
D4
7C
54
ENDCHAR
STARTCHAR PRIME
ENCODING 8242
SWIDTH 1500 0
DWIDTH 6 0
BBX 3 3 1 5
BITMAP
20
40
80
ENDCHAR
STARTCHAR DOUBLE
ENCODING 8243
SWIDTH 1500 0
DWIDTH 6 0
BBX 5 3 1 5
BITMAP
28
50
A0
ENDCHAR
STARTCHAR TRIPLE
ENCODING 8244
SWIDTH 1500 0
DWIDTH 6 0
BBX 6 3 0 5
BITMAP
54
A8
50
ENDCHAR
STARTCHAR REVERSED
ENCODING 8245
SWIDTH 1500 0
DWIDTH 6 0
BBX 3 3 3 5
BITMAP
80
40
20
ENDCHAR
STARTCHAR REVERSED
ENCODING 8246
SWIDTH 1500 0
DWIDTH 6 0
BBX 5 3 1 5
BITMAP
A0
50
28
ENDCHAR
STARTCHAR REVERSED
ENCODING 8247
SWIDTH 1500 0
DWIDTH 6 0
BBX 6 3 0 5
BITMAP
A8
54
28
ENDCHAR
STARTCHAR CARET
ENCODING 8248
SWIDTH 1500 0
DWIDTH 6 0
BBX 5 3 1 -2
BITMAP
20
50
88
ENDCHAR
STARTCHAR SINGLE
ENCODING 8249
SWIDTH 1500 0
DWIDTH 6 0
BBX 3 5 2 0
BITMAP
20
40
80
40
20
ENDCHAR
STARTCHAR SINGLE
ENCODING 8250
SWIDTH 1500 0
DWIDTH 6 0
BBX 3 5 2 0
BITMAP
80
40
20
40
80
ENDCHAR
STARTCHAR DOUBLE
ENCODING 8252
SWIDTH 1500 0
DWIDTH 6 0
BBX 3 7 2 0
BITMAP
A0
A0
A0
A0
A0
00
A0
ENDCHAR
STARTCHAR INTERROBANG
ENCODING 8253
SWIDTH 1500 0
DWIDTH 6 0
BBX 5 7 1 0
BITMAP
F0
28
28
30
20
00
20
ENDCHAR
STARTCHAR OVERLINE
ENCODING 8254
SWIDTH 1500 0
DWIDTH 6 0
BBX 5 1 1 8
BITMAP
F8
ENDCHAR
STARTCHAR UNDERTIE
ENCODING 8255
SWIDTH 1500 0
DWIDTH 6 0
BBX 5 2 1 -2
BITMAP
88
70
ENDCHAR
STARTCHAR CHARACTER
ENCODING 8256
SWIDTH 1500 0
DWIDTH 6 0
BBX 5 2 1 8
BITMAP
70
88
ENDCHAR
STARTCHAR CARET
ENCODING 8257
SWIDTH 1500 0
DWIDTH 6 0
BBX 5 5 1 -2
BITMAP
08
10
20
50
88
ENDCHAR
STARTCHAR ASTERISM
ENCODING 8258
SWIDTH 1500 0
DWIDTH 6 0
BBX 5 7 1 0
BITMAP
50
20
50
00
A8
50
A8
ENDCHAR
STARTCHAR HYPHEN
ENCODING 8259
SWIDTH 1500 0
DWIDTH 6 0
BBX 3 2 2 2
BITMAP
E0
E0
ENDCHAR
STARTCHAR FRACTION
ENCODING 8260
SWIDTH 1500 0
DWIDTH 6 0
BBX 5 5 1 0
BITMAP
08
10
20
40
80
ENDCHAR
STARTCHAR LEFT
ENCODING 8261
SWIDTH 1500 0
DWIDTH 6 0
BBX 2 11 3 -2
BITMAP
C0
80
80
80
80
C0
80
80
80
80
C0
ENDCHAR
STARTCHAR RIGHT
ENCODING 8262
SWIDTH 1500 0
DWIDTH 6 0
BBX 2 11 2 -2
BITMAP
C0
40
40
40
40
C0
40
40
40
40
C0
ENDCHAR
STARTCHAR DOUBLE
ENCODING 8263
SWIDTH 1500 0
DWIDTH 6 0
BBX 5 7 1 0
BITMAP
F0
28
28
50
50
00
50
ENDCHAR
STARTCHAR QUESTION
ENCODING 8264
SWIDTH 1500 0
DWIDTH 6 0
BBX 5 7 1 0
BITMAP
E8
18
18
28
48
00
48
ENDCHAR
STARTCHAR EXCLAMATION
ENCODING 8265
SWIDTH 1500 0
DWIDTH 6 0
BBX 5 7 1 0
BITMAP
F0
88
88
90
A0
00
A0
ENDCHAR
STARTCHAR TIRONIAN
ENCODING 8266
SWIDTH 1500 0
DWIDTH 6 0
BBX 5 5 1 -2
BITMAP
F8
08
10
20
40
ENDCHAR
STARTCHAR REVERSED
ENCODING 8267
SWIDTH 1500 0
DWIDTH 6 0
BBX 5 8 1 0
BITMAP
F0
B8
B8
B8
B0
A0
A0
A0
ENDCHAR
STARTCHAR BLACK
ENCODING 8268
SWIDTH 1500 0
DWIDTH 6 0
BBX 5 3 1 2
BITMAP
68
E8
68
ENDCHAR
STARTCHAR BLACK
ENCODING 8269
SWIDTH 1500 0
DWIDTH 6 0
BBX 5 3 1 2
BITMAP
B0
B8
B0
ENDCHAR
STARTCHAR LOW
ENCODING 8270
SWIDTH 1500 0
DWIDTH 6 0
BBX 5 5 1 -2
BITMAP
50
20
F8
20
50
ENDCHAR
STARTCHAR REVERSED
ENCODING 8271
SWIDTH 1500 0
DWIDTH 6 0
BBX 2 6 3 -1
BITMAP
80
00
00
00
80
40
ENDCHAR
STARTCHAR CLOSE
ENCODING 8272
SWIDTH 1500 0
DWIDTH 6 0
BBX 5 12 1 -2
BITMAP
70
88
00
00
00
00
00
00
00
00
88
70
ENDCHAR
STARTCHAR TWO
ENCODING 8273
SWIDTH 1500 0
DWIDTH 6 0
BBX 5 11 1 -2
BITMAP
50
20
F8
20
50
00
50
20
F8
20
50
ENDCHAR
STARTCHAR COMMERCIAL
ENCODING 8274
SWIDTH 1500 0
DWIDTH 6 0
BBX 5 7 1 0
BITMAP
C0
C8
10
20
40
98
18
ENDCHAR
STARTCHAR SWUNG
ENCODING 8275
SWIDTH 1500 0
DWIDTH 6 0
BBX 6 2 0 3
BITMAP
64
98
ENDCHAR
STARTCHAR INVERTED
ENCODING 8276
SWIDTH 1500 0
DWIDTH 6 0
BBX 5 2 1 -2
BITMAP
70
88
ENDCHAR
STARTCHAR FLOWER
ENCODING 8277
SWIDTH 1500 0
DWIDTH 6 0
BBX 5 7 1 0
BITMAP
20
A8
70
F8
70
A8
20
ENDCHAR
STARTCHAR THREE
ENCODING 8278
SWIDTH 1500 0
DWIDTH 6 0
BBX 5 5 1 0
BITMAP
08
00
80
00
08
ENDCHAR
STARTCHAR QUADRUPLE
ENCODING 8279
SWIDTH 1500 0
DWIDTH 6 0
BBX 6 3 0 5
BITMAP
3C
78
F0
ENDCHAR
STARTCHAR FOUR
ENCODING 8280
SWIDTH 1500 0
DWIDTH 6 0
BBX 5 5 1 0
BITMAP
20
00
88
00
20
ENDCHAR
STARTCHAR FIVE
ENCODING 8281
SWIDTH 1500 0
DWIDTH 6 0
BBX 5 5 1 0
BITMAP
88
00
20
00
88
ENDCHAR
STARTCHAR TWO
ENCODING 8282
SWIDTH 1500 0
DWIDTH 6 0
BBX 1 5 3 0
BITMAP
80
00
00
00
80
ENDCHAR
STARTCHAR FOUR
ENCODING 8283
SWIDTH 1500 0
DWIDTH 6 0
BBX 5 7 1 -1
BITMAP
20
00
00
88
00
00
20
ENDCHAR
STARTCHAR DOTTED
ENCODING 8284
SWIDTH 1500 0
DWIDTH 6 0
BBX 5 5 1 0
BITMAP
A8
20
F8
20
A8
ENDCHAR
STARTCHAR TRICOLON
ENCODING 8285
SWIDTH 1500 0
DWIDTH 6 0
BBX 1 5 3 0
BITMAP
80
00
80
00
80
ENDCHAR
STARTCHAR VERTICAL
ENCODING 8286
SWIDTH 1500 0
DWIDTH 6 0
BBX 1 7 3 0
BITMAP
80
00
80
00
80
00
80
ENDCHAR
STARTCHAR MEDIUM
ENCODING 8287
SWIDTH 1500 0
DWIDTH 6 0
BBX 1 1 5 -2
BITMAP
00
ENDCHAR
STARTCHAR WORD
ENCODING 8288
SWIDTH 1500 0
DWIDTH 6 0
BBX 1 1 5 -2
BITMAP
00
ENDCHAR
STARTCHAR FUNCTION
ENCODING 8289
SWIDTH 1500 0
DWIDTH 6 0
BBX 6 9 0 -1
BITMAP
40
80
98
E4
A4
A4
A4
A4
18
ENDCHAR
STARTCHAR INVISIBLE
ENCODING 8290
SWIDTH 1500 0
DWIDTH 6 0
BBX 5 5 1 1
BITMAP
88
50
20
50
88
ENDCHAR
STARTCHAR INVISIBLE
ENCODING 8291
SWIDTH 1500 0
DWIDTH 6 0
BBX 2 2 2 -2
BITMAP
40
80
ENDCHAR
STARTCHAR INVISIBLE
ENCODING 8292
SWIDTH 1500 0
DWIDTH 6 0
BBX 5 5 1 1
BITMAP
20
20
F8
20
20
ENDCHAR
STARTCHAR INHIBIT
ENCODING 8298
SWIDTH 1500 0
DWIDTH 6 0
BBX 1 1 5 -2
BITMAP
00
ENDCHAR
STARTCHAR ACTIVATE
ENCODING 8299
SWIDTH 1500 0
DWIDTH 6 0
BBX 1 1 5 -2
BITMAP
00
ENDCHAR
STARTCHAR INHIBIT
ENCODING 8300
SWIDTH 1500 0
DWIDTH 6 0
BBX 1 1 5 -2
BITMAP
00
ENDCHAR
STARTCHAR ACTIVATE
ENCODING 8301
SWIDTH 1500 0
DWIDTH 6 0
BBX 1 1 5 -2
BITMAP
00
ENDCHAR
STARTCHAR NATIONAL
ENCODING 8302
SWIDTH 1500 0
DWIDTH 6 0
BBX 1 1 5 -2
BITMAP
00
ENDCHAR
STARTCHAR NOMINAL
ENCODING 8303
SWIDTH 1500 0
DWIDTH 6 0
BBX 1 1 5 -2
BITMAP
00
ENDCHAR
STARTCHAR SUPERSCRIPT
ENCODING 8304
SWIDTH 1500 0
DWIDTH 6 0
BBX 5 7 1 3
BITMAP
70
88
98
A8
C8
88
70
ENDCHAR
STARTCHAR SUPERSCRIPT
ENCODING 8305
SWIDTH 1500 0
DWIDTH 6 0
BBX 2 7 2 3
BITMAP
40
00
C0
40
40
40
40
ENDCHAR
STARTCHAR SUPERSCRIPT
ENCODING 8308
SWIDTH 1500 0
DWIDTH 6 0
BBX 5 7 1 3
BITMAP
08
18
28
48
F8
08
08
ENDCHAR
STARTCHAR SUPERSCRIPT
ENCODING 8309
SWIDTH 1500 0
DWIDTH 6 0
BBX 5 7 1 3
BITMAP
F8
80
F0
08
08
08
F0
ENDCHAR
STARTCHAR SUPERSCRIPT
ENCODING 8310
SWIDTH 1500 0
DWIDTH 6 0
BBX 5 7 1 3
BITMAP
70
80
F0
88
88
88
70
ENDCHAR
STARTCHAR SUPERSCRIPT
ENCODING 8311
SWIDTH 1500 0
DWIDTH 6 0
BBX 5 7 1 3
BITMAP
F8
08
08
10
20
20
20
ENDCHAR
STARTCHAR SUPERSCRIPT
ENCODING 8312
SWIDTH 1500 0
DWIDTH 6 0
BBX 5 7 1 3
BITMAP
70
88
88
70
88
88
70
ENDCHAR
STARTCHAR SUPERSCRIPT
ENCODING 8313
SWIDTH 1500 0
DWIDTH 6 0
BBX 5 7 1 3
BITMAP
70
88
88
88
78
08
70
ENDCHAR
STARTCHAR SUPERSCRIPT
ENCODING 8314
SWIDTH 1500 0
DWIDTH 6 0
BBX 5 5 1 4
BITMAP
20
20
F8
20
20
ENDCHAR
STARTCHAR SUPERSCRIPT
ENCODING 8315
SWIDTH 1500 0
DWIDTH 6 0
BBX 5 1 1 6
BITMAP
F8
ENDCHAR
STARTCHAR SUPERSCRIPT
ENCODING 8316
SWIDTH 1500 0
DWIDTH 6 0
BBX 5 3 1 5
BITMAP
F8
00
F8
ENDCHAR
STARTCHAR SUPERSCRIPT
ENCODING 8317
SWIDTH 1500 0
DWIDTH 6 0
BBX 2 7 3 3
BITMAP
40
80
80
80
80
80
40
ENDCHAR
STARTCHAR SUPERSCRIPT
ENCODING 8318
SWIDTH 1500 0
DWIDTH 6 0
BBX 2 7 2 3
BITMAP
80
40
40
40
40
40
80
ENDCHAR
STARTCHAR SUPERSCRIPT
ENCODING 8319
SWIDTH 1500 0
DWIDTH 6 0
BBX 5 5 1 3
BITMAP
F0
88
88
88
88
ENDCHAR
STARTCHAR SUBSCRIPT
ENCODING 8320
SWIDTH 1500 0
DWIDTH 6 0
BBX 5 7 1 -2
BITMAP
70
88
98
A8
C8
88
70
ENDCHAR
STARTCHAR SUBSCRIPT
ENCODING 8321
SWIDTH 1500 0
DWIDTH 6 0
BBX 3 7 2 -2
BITMAP
20
60
A0
20
20
20
20
ENDCHAR
STARTCHAR SUBSCRIPT
ENCODING 8322
SWIDTH 1500 0
DWIDTH 6 0
BBX 5 7 1 -2
BITMAP
F0
08
08
10
20
40
F8
ENDCHAR
STARTCHAR SUBSCRIPT
ENCODING 8323
SWIDTH 1500 0
DWIDTH 6 0
BBX 5 7 1 -2
BITMAP
F0
08
08
30
08
08
F0
ENDCHAR
STARTCHAR SUBSCRIPT
ENCODING 8324
SWIDTH 1500 0
DWIDTH 6 0
BBX 5 7 1 -2
BITMAP
08
18
28
48
F8
08
08
ENDCHAR
STARTCHAR SUBSCRIPT
ENCODING 8325
SWIDTH 1500 0
DWIDTH 6 0
BBX 5 7 1 -2
BITMAP
F8
80
F0
08
08
08
F0
ENDCHAR
STARTCHAR SUBSCRIPT
ENCODING 8326
SWIDTH 1500 0
DWIDTH 6 0
BBX 5 7 1 -2
BITMAP
70
80
F0
88
88
88
70
ENDCHAR
STARTCHAR SUBSCRIPT
ENCODING 8327
SWIDTH 1500 0
DWIDTH 6 0
BBX 5 7 1 -2
BITMAP
F8
08
08
10
20
20
20
ENDCHAR
STARTCHAR SUBSCRIPT
ENCODING 8328
SWIDTH 1500 0
DWIDTH 6 0
BBX 5 7 1 -2
BITMAP
70
88
88
70
88
88
70
ENDCHAR
STARTCHAR SUBSCRIPT
ENCODING 8329
SWIDTH 1500 0
DWIDTH 6 0
BBX 5 7 1 -2
BITMAP
70
88
88
88
78
08
70
ENDCHAR
STARTCHAR SUBSCRIPT
ENCODING 8330
SWIDTH 1500 0
DWIDTH 6 0
BBX 5 5 1 -1
BITMAP
20
20
F8
20
20
ENDCHAR
STARTCHAR SUBSCRIPT
ENCODING 8331
SWIDTH 1500 0
DWIDTH 6 0
BBX 5 1 1 1
BITMAP
F8
ENDCHAR
STARTCHAR SUBSCRIPT
ENCODING 8332
SWIDTH 1500 0
DWIDTH 6 0
BBX 5 3 1 0
BITMAP
F8
00
F8
ENDCHAR
STARTCHAR SUBSCRIPT
ENCODING 8333
SWIDTH 1500 0
DWIDTH 6 0
BBX 2 7 3 -2
BITMAP
40
80
80
80
80
80
40
ENDCHAR
STARTCHAR SUBSCRIPT
ENCODING 8334
SWIDTH 1500 0
DWIDTH 6 0
BBX 2 7 2 -2
BITMAP
80
40
40
40
40
40
80
ENDCHAR
STARTCHAR LATIN
ENCODING 8336
SWIDTH 1500 0
DWIDTH 6 0
BBX 5 5 1 -2
BITMAP
70
08
78
88
78
ENDCHAR
STARTCHAR LATIN
ENCODING 8337
SWIDTH 1500 0
DWIDTH 6 0
BBX 5 5 1 -2
BITMAP
70
88
F8
80
70
ENDCHAR
STARTCHAR LATIN
ENCODING 8338
SWIDTH 1500 0
DWIDTH 6 0
BBX 5 5 1 -2
BITMAP
70
88
88
88
70
ENDCHAR
STARTCHAR LATIN
ENCODING 8339
SWIDTH 1500 0
DWIDTH 6 0
BBX 5 5 1 -2
BITMAP
88
50
20
50
88
ENDCHAR
STARTCHAR LATIN
ENCODING 8340
SWIDTH 1500 0
DWIDTH 6 0
BBX 5 5 1 -2
BITMAP
70
08
F8
88
70
ENDCHAR
STARTCHAR LATIN
ENCODING 8341
SWIDTH 1500 0
DWIDTH 6 0
BBX 5 7 1 -2
BITMAP
80
80
F0
88
88
88
88
ENDCHAR
STARTCHAR LATIN
ENCODING 8342
SWIDTH 1500 0
DWIDTH 6 0
BBX 4 7 2 -2
BITMAP
80
80
90
A0
C0
A0
90
ENDCHAR
STARTCHAR LATIN
ENCODING 8343
SWIDTH 1500 0
DWIDTH 6 0
BBX 3 7 2 -2
BITMAP
80
80
80
80
80
80
60
ENDCHAR
STARTCHAR LATIN
ENCODING 8344
SWIDTH 1500 0
DWIDTH 6 0
BBX 5 5 1 -2
BITMAP
D0
A8
A8
A8
88
ENDCHAR
STARTCHAR LATIN
ENCODING 8345
SWIDTH 1500 0
DWIDTH 6 0
BBX 5 5 1 -2
BITMAP
F0
88
88
88
88
ENDCHAR
STARTCHAR LATIN
ENCODING 8346
SWIDTH 1500 0
DWIDTH 6 0
BBX 5 5 1 -2
BITMAP
F0
88
88
F0
80
ENDCHAR
STARTCHAR LATIN
ENCODING 8347
SWIDTH 1500 0
DWIDTH 6 0
BBX 5 5 1 -2
BITMAP
78
80
70
08
F0
ENDCHAR
STARTCHAR LATIN
ENCODING 8348
SWIDTH 1500 0
DWIDTH 6 0
BBX 4 7 1 -2
BITMAP
40
40
E0
40
40
40
30
ENDCHAR
STARTCHAR COLON
ENCODING 8353
SWIDTH 1500 0
DWIDTH 6 0
BBX 5 9 1 -1
BITMAP
28
78
A8
A8
B0
D0
D0
78
50
ENDCHAR
STARTCHAR MILL
ENCODING 8357
SWIDTH 1500 0
DWIDTH 6 0
BBX 5 9 1 -2
BITMAP
10
10
D0
A8
A8
A8
A8
40
40
ENDCHAR
STARTCHAR NAIRA
ENCODING 8358
SWIDTH 1500 0
DWIDTH 6 0
BBX 5 7 1 0
BITMAP
88
C8
F8
A8
F8
98
88
ENDCHAR
STARTCHAR PESETA
ENCODING 8359
SWIDTH 1500 0
DWIDTH 6 0
BBX 5 8 1 0
BITMAP
10
D0
B0
B8
B0
D0
90
88
ENDCHAR
STARTCHAR RUPEE
ENCODING 8360
SWIDTH 1500 0
DWIDTH 6 0
BBX 5 7 1 0
BITMAP
F8
10
F8
20
40
20
10
ENDCHAR
STARTCHAR WON
ENCODING 8361
SWIDTH 1500 0
DWIDTH 6 0
BBX 5 7 1 0
BITMAP
88
88
F8
88
A8
D8
88
ENDCHAR
STARTCHAR NEW
ENCODING 8362
SWIDTH 1500 0
DWIDTH 6 0
BBX 5 5 1 0
BITMAP
C8
A8
A8
A8
98
ENDCHAR
STARTCHAR DONG
ENCODING 8363
SWIDTH 1500 0
DWIDTH 6 0
BBX 5 10 1 -2
BITMAP
08
78
08
78
88
88
88
78
00
78
ENDCHAR
STARTCHAR EURO
ENCODING 8364
SWIDTH 1500 0
DWIDTH 6 0
BBX 5 7 1 0
BITMAP
38
40
F0
40
F0
40
38
ENDCHAR
STARTCHAR KIP
ENCODING 8365
SWIDTH 1500 0
DWIDTH 6 0
BBX 5 7 1 0
BITMAP
88
90
A0
F0
A0
90
88
ENDCHAR
STARTCHAR TUGRIK
ENCODING 8366
SWIDTH 1500 0
DWIDTH 6 0
BBX 5 7 1 0
BITMAP
F8
20
30
60
30
60
20
ENDCHAR
STARTCHAR DRACHMA
ENCODING 8367
SWIDTH 1500 0
DWIDTH 6 0
BBX 5 9 1 -2
BITMAP
C0
A0
B0
A8
A8
A8
F0
20
20
ENDCHAR
STARTCHAR PESO
ENCODING 8369
SWIDTH 1500 0
DWIDTH 6 0
BBX 5 7 1 0
BITMAP
F0
88
F8
88
F0
80
80
ENDCHAR
STARTCHAR GUARANI
ENCODING 8370
SWIDTH 1500 0
DWIDTH 6 0
BBX 5 9 1 -1
BITMAP
20
78
A0
A0
B8
A8
A8
78
20
ENDCHAR
STARTCHAR HRYVNIA
ENCODING 8372
SWIDTH 1500 0
DWIDTH 6 0
BBX 5 7 1 0
BITMAP
F0
08
F8
70
F8
80
78
ENDCHAR
STARTCHAR CEDI
ENCODING 8373
SWIDTH 1500 0
DWIDTH 6 0
BBX 5 9 1 -1
BITMAP
20
78
A0
A0
A0
A0
A0
78
20
ENDCHAR
STARTCHAR TENGE
ENCODING 8376
SWIDTH 1500 0
DWIDTH 6 0
BBX 5 7 1 0
BITMAP
F8
00
F8
20
20
20
20
ENDCHAR
STARTCHAR INDIAN
ENCODING 8377
SWIDTH 1500 0
DWIDTH 6 0
BBX 5 7 1 0
BITMAP
F8
10
F8
20
40
20
10
ENDCHAR
STARTCHAR TURKISH
ENCODING 8378
SWIDTH 1500 0
DWIDTH 6 0
BBX 5 7 1 0
BITMAP
40
70
C0
70
C0
48
70
ENDCHAR
STARTCHAR MANAT
ENCODING 8379
SWIDTH 1500 0
DWIDTH 6 0
BBX 5 7 1 0
BITMAP
20
70
A8
A8
A8
A8
88
ENDCHAR
STARTCHAR RUBLE
ENCODING 8380
SWIDTH 1500 0
DWIDTH 6 0
BBX 5 7 1 0
BITMAP
F0
88
88
F0
80
F0
80
ENDCHAR
STARTCHAR NUMERO
ENCODING 8470
SWIDTH 1500 0
DWIDTH 6 0
BBX 5 7 1 0
BITMAP
A0
A0
F0
E8
F0
A0
B8
ENDCHAR
STARTCHAR TRADE
ENCODING 8482
SWIDTH 1500 0
DWIDTH 6 0
BBX 6 4 0 6
BITMAP
F4
5C
54
54
ENDCHAR
STARTCHAR ANGSTROM
ENCODING 8491
SWIDTH 1500 0
DWIDTH 6 0
BBX 5 10 1 0
BITMAP
20
50
20
70
88
88
88
F8
88
88
ENDCHAR
STARTCHAR LEFTWARDS
ENCODING 8592
SWIDTH 1500 0
DWIDTH 6 0
BBX 6 5 0 1
BITMAP
20
40
FC
40
20
ENDCHAR
STARTCHAR UPWARDS
ENCODING 8593
SWIDTH 1500 0
DWIDTH 6 0
BBX 5 8 1 0
BITMAP
20
70
A8
20
20
20
20
20
ENDCHAR
STARTCHAR RIGHTWARDS
ENCODING 8594
SWIDTH 1500 0
DWIDTH 6 0
BBX 6 5 0 1
BITMAP
10
08
FC
08
10
ENDCHAR
STARTCHAR DOWNWARDS
ENCODING 8595
SWIDTH 1500 0
DWIDTH 6 0
BBX 5 8 1 0
BITMAP
20
20
20
20
20
A8
70
20
ENDCHAR
STARTCHAR LEFT
ENCODING 8596
SWIDTH 1500 0
DWIDTH 6 0
BBX 6 5 0 1
BITMAP
20
48
FC
48
10
ENDCHAR
STARTCHAR UP
ENCODING 8597
SWIDTH 1500 0
DWIDTH 6 0
BBX 5 8 1 0
BITMAP
20
70
A8
20
20
A8
70
20
ENDCHAR
STARTCHAR NORTH
ENCODING 8598
SWIDTH 1500 0
DWIDTH 6 0
BBX 6 6 0 0
BITMAP
F0
C0
A0
90
08
04
ENDCHAR
STARTCHAR SOUTH
ENCODING 8600
SWIDTH 1500 0
DWIDTH 6 0
BBX 6 6 0 0
BITMAP
80
40
24
14
0C
3C
ENDCHAR
STARTCHAR LEFTWARDS
ENCODING 8612
SWIDTH 1500 0
DWIDTH 6 0
BBX 6 5 0 1
BITMAP
24
44
FC
44
24
ENDCHAR
STARTCHAR RIGHTWARDS
ENCODING 8614
SWIDTH 1500 0
DWIDTH 6 0
BBX 6 5 0 1
BITMAP
90
88
FC
88
90
ENDCHAR
STARTCHAR UP
ENCODING 8616
SWIDTH 1500 0
DWIDTH 6 0
BBX 5 9 1 -1
BITMAP
20
70
A8
20
20
A8
70
20
F8
ENDCHAR
STARTCHAR LEFTWARDS
ENCODING 8617
SWIDTH 1500 0
DWIDTH 6 0
BBX 6 5 0 0
BITMAP
28
44
F8
40
20
ENDCHAR
STARTCHAR DOWNWARDS
ENCODING 8629
SWIDTH 1500 0
DWIDTH 6 0
BBX 6 7 0 0
BITMAP
04
04
24
44
F8
40
20
ENDCHAR
STARTCHAR NORTH
ENCODING 8632
SWIDTH 1500 0
DWIDTH 6 0
BBX 6 8 0 -1
BITMAP
FC
00
F0
C0
A0
90
08
04
ENDCHAR
STARTCHAR LEFTWARDS
ENCODING 8633
SWIDTH 1500 0
DWIDTH 6 0
BBX 6 8 0 -1
BITMAP
90
A0
FC
A4
94
FC
14
24
ENDCHAR
STARTCHAR LEFTWARDS
ENCODING 8646
SWIDTH 1500 0
DWIDTH 6 0
BBX 6 8 0 -1
BITMAP
20
40
FC
50
28
FC
08
10
ENDCHAR
STARTCHAR UPWARDS
ENCODING 8670
SWIDTH 1500 0
DWIDTH 6 0
BBX 5 8 1 0
BITMAP
20
70
A8
20
70
20
70
20
ENDCHAR
STARTCHAR DOWNWARDS
ENCODING 8671
SWIDTH 1500 0
DWIDTH 6 0
BBX 5 8 1 0
BITMAP
20
70
20
70
20
A8
70
20
ENDCHAR
STARTCHAR LEFTWARDS
ENCODING 8676
SWIDTH 1500 0
DWIDTH 6 0
BBX 6 5 0 1
BITMAP
90
A0
FC
A0
90
ENDCHAR
STARTCHAR RIGHTWARDS
ENCODING 8677
SWIDTH 1500 0
DWIDTH 6 0
BBX 6 5 0 1
BITMAP
24
14
FC
14
24
ENDCHAR
STARTCHAR UPWARDS
ENCODING 8679
SWIDTH 1500 0
DWIDTH 6 0
BBX 5 7 1 0
BITMAP
20
50
88
D8
50
50
70
ENDCHAR
STARTCHAR UPWARDS
ENCODING 8682
SWIDTH 1500 0
DWIDTH 6 0
BBX 5 8 1 -1
BITMAP
20
50
88
D8
50
70
50
70
ENDCHAR
STARTCHAR NORTH
ENCODING 8689
SWIDTH 1500 0
DWIDTH 6 0
BBX 6 6 0 0
BITMAP
F8
80
B8
B0
A8
04
ENDCHAR
STARTCHAR SOUTH
ENCODING 8690
SWIDTH 1500 0
DWIDTH 6 0
BBX 6 6 0 0
BITMAP
80
54
34
74
04
7C
ENDCHAR
STARTCHAR THERE
ENCODING 8707
SWIDTH 1500 0
DWIDTH 6 0
BBX 5 7 1 0
BITMAP
F8
08
08
38
08
08
F8
ENDCHAR
STARTCHAR BULLET
ENCODING 8729
SWIDTH 1500 0
DWIDTH 6 0
BBX 3 3 2 2
BITMAP
40
E0
40
ENDCHAR
STARTCHAR SQUARE
ENCODING 8730
SWIDTH 1500 0
DWIDTH 6 0
BBX 6 7 0 0
BITMAP
04
04
08
08
90
50
20
ENDCHAR
STARTCHAR INFINITY
ENCODING 8734
SWIDTH 1500 0
DWIDTH 6 0
BBX 5 5 1 1
BITMAP
50
A8
A8
A8
50
ENDCHAR
STARTCHAR RIGHT
ENCODING 8735
SWIDTH 1500 0
DWIDTH 6 0
BBX 5 5 1 0
BITMAP
80
80
80
80
F8
ENDCHAR
STARTCHAR INTERSECTION
ENCODING 8745
SWIDTH 1500 0
DWIDTH 6 0
BBX 5 6 1 0
BITMAP
70
88
88
88
88
88
ENDCHAR
STARTCHAR ALMOST
ENCODING 8776
SWIDTH 1500 0
DWIDTH 6 0
BBX 5 4 1 1
BITMAP
68
90
68
90
ENDCHAR
STARTCHAR NOT
ENCODING 8800
SWIDTH 1500 0
DWIDTH 6 0
BBX 5 5 1 1
BITMAP
10
F8
20
F8
40
ENDCHAR
STARTCHAR IDENTICAL
ENCODING 8801
SWIDTH 1500 0
DWIDTH 6 0
BBX 5 5 1 1
BITMAP
F8
00
F8
00
F8
ENDCHAR
STARTCHAR LESS-THAN
ENCODING 8804
SWIDTH 1500 0
DWIDTH 6 0
BBX 5 7 1 0
BITMAP
08
30
C0
30
08
00
F8
ENDCHAR
STARTCHAR GREATER-THAN
ENCODING 8805
SWIDTH 1500 0
DWIDTH 6 0
BBX 5 7 1 0
BITMAP
80
60
18
60
80
00
F8
ENDCHAR
STARTCHAR CIRCLED
ENCODING 8854
SWIDTH 1500 0
DWIDTH 6 0
BBX 5 7 1 0
BITMAP
70
88
88
F8
88
88
70
ENDCHAR
STARTCHAR CIRCLED
ENCODING 8855
SWIDTH 1500 0
DWIDTH 6 0
BBX 5 7 1 0
BITMAP
70
88
D8
A8
D8
88
70
ENDCHAR
STARTCHAR CIRCLED
ENCODING 8861
SWIDTH 1500 0
DWIDTH 6 0
BBX 5 7 1 0
BITMAP
70
88
88
F8
88
88
70
ENDCHAR
STARTCHAR HOUSE
ENCODING 8962
SWIDTH 1500 0
DWIDTH 6 0
BBX 5 7 1 0
BITMAP
20
50
88
88
88
88
F8
ENDCHAR
STARTCHAR UP
ENCODING 8963
SWIDTH 1500 0
DWIDTH 6 0
BBX 5 3 1 4
BITMAP
20
50
88
ENDCHAR
STARTCHAR PROJECTIVE
ENCODING 8965
SWIDTH 1500 0
DWIDTH 6 0
BBX 5 5 1 2
BITMAP
F8
00
20
50
88
ENDCHAR
STARTCHAR REVERSED
ENCODING 8976
SWIDTH 1500 0
DWIDTH 6 0
BBX 5 2 1 2
BITMAP
F8
80
ENDCHAR
STARTCHAR PLACE
ENCODING 8984
SWIDTH 1500 0
DWIDTH 6 0
BBX 6 6 0 0
BITMAP
CC
FC
48
48
FC
CC
ENDCHAR
STARTCHAR TOP
ENCODING 8992
SWIDTH 1500 0
DWIDTH 6 0
BBX 3 11 3 -2
BITMAP
60
80
80
80
80
80
80
80
80
80
80
ENDCHAR
STARTCHAR BOTTOM
ENCODING 8993
SWIDTH 1500 0
DWIDTH 6 0
BBX 3 11 1 -1
BITMAP
20
20
20
20
20
20
20
20
20
20
C0
ENDCHAR
STARTCHAR UP
ENCODING 8996
SWIDTH 1500 0
DWIDTH 6 0
BBX 5 4 1 3
BITMAP
D8
20
50
88
ENDCHAR
STARTCHAR OPTION
ENCODING 8997
SWIDTH 1500 0
DWIDTH 6 0
BBX 6 4 0 1
BITMAP
CC
20
10
0C
ENDCHAR
STARTCHAR ERASE
ENCODING 8998
SWIDTH 1500 0
DWIDTH 6 0
BBX 6 5 0 0
BITMAP
F0
A8
DC
A8
F0
ENDCHAR
STARTCHAR X
ENCODING 8999
SWIDTH 1500 0
DWIDTH 6 0
BBX 5 5 1 0
BITMAP
F8
A8
D8
A8
F8
ENDCHAR
STARTCHAR KEYBOARD
ENCODING 9000
SWIDTH 1500 0
DWIDTH 6 0
BBX 5 5 1 0
BITMAP
A8
00
A8
00
70
ENDCHAR
STARTCHAR ERASE
ENCODING 9003
SWIDTH 1500 0
DWIDTH 6 0
BBX 6 5 0 0
BITMAP
3C
54
EC
54
3C
ENDCHAR
STARTCHAR APL
ENCODING 9021
SWIDTH 1500 0
DWIDTH 6 0
BBX 5 9 1 -2
BITMAP
20
20
70
A8
A8
A8
70
20
20
ENDCHAR
STARTCHAR INSERTION
ENCODING 9088
SWIDTH 1500 0
DWIDTH 6 0
BBX 5 9 1 -1
BITMAP
60
10
70
90
70
00
88
50
20
ENDCHAR
STARTCHAR COMPOSITION
ENCODING 9092
SWIDTH 1500 0
DWIDTH 6 0
BBX 6 5 0 0
BITMAP
F8
D4
D4
D4
F8
ENDCHAR
STARTCHAR ENTER
ENCODING 9094
SWIDTH 1500 0
DWIDTH 6 0
BBX 6 5 0 0
BITMAP
24
44
FC
40
20
ENDCHAR
STARTCHAR ALTERNATIVE
ENCODING 9095
SWIDTH 1500 0
DWIDTH 6 0
BBX 6 4 0 1
BITMAP
0C
10
20
CC
ENDCHAR
STARTCHAR HELM
ENCODING 9096
SWIDTH 1500 0
DWIDTH 6 0
BBX 5 8 1 -1
BITMAP
20
A8
70
A8
A8
70
A8
20
ENDCHAR
STARTCHAR BROKEN
ENCODING 9099
SWIDTH 1500 0
DWIDTH 6 0
BBX 6 6 0 0
BITMAP
E0
C8
A4
14
44
38
ENDCHAR
STARTCHAR HORIZONTAL
ENCODING 9146
SWIDTH 1500 0
DWIDTH 6 0
BBX 6 1 0 9
BITMAP
FC
ENDCHAR
STARTCHAR HORIZONTAL
ENCODING 9147
SWIDTH 1500 0
DWIDTH 6 0
BBX 6 1 0 6
BITMAP
FC
ENDCHAR
STARTCHAR HORIZONTAL
ENCODING 9148
SWIDTH 1500 0
DWIDTH 6 0
BBX 6 1 0 1
BITMAP
FC
ENDCHAR
STARTCHAR HORIZONTAL
ENCODING 9149
SWIDTH 1500 0
DWIDTH 6 0
BBX 6 1 0 -2
BITMAP
FC
ENDCHAR
STARTCHAR RETURN
ENCODING 9166
SWIDTH 1500 0
DWIDTH 6 0
BBX 6 8 0 -1
BITMAP
1C
14
14
34
54
84
58
20
ENDCHAR
STARTCHAR EJECT
ENCODING 9167
SWIDTH 1500 0
DWIDTH 6 0
BBX 5 5 1 0
BITMAP
20
70
F8
00
F8
ENDCHAR
STARTCHAR SYMBOL
ENCODING 9216
SWIDTH 1500 0
DWIDTH 6 0
BBX 6 12 0 -2
BITMAP
90
D0
B0
90
48
48
48
30
20
20
20
3C
ENDCHAR
STARTCHAR SYMBOL
ENCODING 9217
SWIDTH 1500 0
DWIDTH 6 0
BBX 6 12 0 -2
BITMAP
60
80
40
20
F0
48
48
30
24
24
3C
24
ENDCHAR
STARTCHAR SYMBOL
ENCODING 9218
SWIDTH 1500 0
DWIDTH 6 0
BBX 6 12 0 -2
BITMAP
60
80
40
20
F8
10
10
10
24
24
3C
24
ENDCHAR
STARTCHAR SYMBOL
ENCODING 9219
SWIDTH 1500 0
DWIDTH 6 0
BBX 6 12 0 -2
BITMAP
E0
80
C0
80
F8
10
10
10
24
18
18
24
ENDCHAR
STARTCHAR SYMBOL
ENCODING 9220
SWIDTH 1500 0
DWIDTH 6 0
BBX 6 12 0 -2
BITMAP
E0
80
C0
80
F0
48
48
30
1C
08
08
08
ENDCHAR
STARTCHAR SYMBOL
ENCODING 9221
SWIDTH 1500 0
DWIDTH 6 0
BBX 6 12 0 -2
BITMAP
E0
80
C0
80
E8
68
58
48
18
24
2C
1C
ENDCHAR
STARTCHAR SYMBOL
ENCODING 9222
SWIDTH 1500 0
DWIDTH 6 0
BBX 6 12 0 -2
BITMAP
60
90
F0
90
38
40
40
38
24
28
38
24
ENDCHAR
STARTCHAR SYMBOL
ENCODING 9223
SWIDTH 1500 0
DWIDTH 6 0
BBX 6 12 0 -2
BITMAP
C0
A0
C0
A0
F0
40
60
40
70
20
20
3C
ENDCHAR
STARTCHAR SYMBOL
ENCODING 9224
SWIDTH 1500 0
DWIDTH 6 0
BBX 6 10 0 -1
BITMAP
C0
A0
C0
A0
C0
0C
10
08
04
18
ENDCHAR
STARTCHAR SYMBOL
ENCODING 9225
SWIDTH 1500 0
DWIDTH 6 0
BBX 6 10 0 -1
BITMAP
A0
A0
E0
A0
A0
1C
08
08
08
08
ENDCHAR
STARTCHAR SYMBOL
ENCODING 9226
SWIDTH 1500 0
DWIDTH 6 0
BBX 6 10 0 -1
BITMAP
80
80
80
80
E0
1C
10
18
10
10
ENDCHAR
STARTCHAR SYMBOL
ENCODING 9227
SWIDTH 1500 0
DWIDTH 6 0
BBX 6 10 0 -1
BITMAP
A0
A0
A0
40
40
1C
08
08
08
08
ENDCHAR
STARTCHAR SYMBOL
ENCODING 9228
SWIDTH 1500 0
DWIDTH 6 0
BBX 6 10 0 -1
BITMAP
E0
80
C0
80
80
1C
10
18
10
10
ENDCHAR
STARTCHAR SYMBOL
ENCODING 9229
SWIDTH 1500 0
DWIDTH 6 0
BBX 6 10 0 -1
BITMAP
60
80
80
80
60
18
14
18
14
14
ENDCHAR
STARTCHAR SYMBOL
ENCODING 9230
SWIDTH 1500 0
DWIDTH 6 0
BBX 6 10 0 -1
BITMAP
60
80
40
20
C0
0C
10
08
04
18
ENDCHAR
STARTCHAR SYMBOL
ENCODING 9231
SWIDTH 1500 0
DWIDTH 6 0
BBX 6 10 0 -1
BITMAP
60
80
40
20
C0
1C
08
08
08
1C
ENDCHAR
STARTCHAR SYMBOL
ENCODING 9232
SWIDTH 1500 0
DWIDTH 6 0
BBX 6 12 0 -2
BITMAP
E0
90
90
F0
40
40
70
1C
10
18
10
1C
ENDCHAR
STARTCHAR SYMBOL
ENCODING 9233
SWIDTH 1500 0
DWIDTH 6 0
BBX 6 12 0 -2
BITMAP
E0
90
90
E0
38
40
40
38
04
0C
04
04
ENDCHAR
STARTCHAR SYMBOL
ENCODING 9234
SWIDTH 1500 0
DWIDTH 6 0
BBX 6 12 0 -2
BITMAP
E0
90
90
E0
38
40
40
38
18
04
08
1C
ENDCHAR
STARTCHAR SYMBOL
ENCODING 9235
SWIDTH 1500 0
DWIDTH 6 0
BBX 6 12 0 -2
BITMAP
E0
90
90
E0
38
40
40
38
04
08
04
18
ENDCHAR
STARTCHAR SYMBOL
ENCODING 9236
SWIDTH 1500 0
DWIDTH 6 0
BBX 6 12 0 -2
BITMAP
E0
90
90
E0
38
40
40
3C
0C
14
3C
04
ENDCHAR
STARTCHAR SYMBOL
ENCODING 9237
SWIDTH 1500 0
DWIDTH 6 0
BBX 6 12 0 -2
BITMAP
90
D0
B0
90
30
48
78
48
24
28
38
24
ENDCHAR
STARTCHAR SYMBOL
ENCODING 9238
SWIDTH 1500 0
DWIDTH 6 0
BBX 6 12 0 -2
BITMAP
60
80
40
20
E8
28
10
10
24
34
2C
24
ENDCHAR
STARTCHAR SYMBOL
ENCODING 9239
SWIDTH 1500 0
DWIDTH 6 0
BBX 6 12 0 -2
BITMAP
E0
80
DC
88
E8
08
00
18
14
18
14
18
ENDCHAR
STARTCHAR SYMBOL
ENCODING 9240
SWIDTH 1500 0
DWIDTH 6 0
BBX 6 12 0 -2
BITMAP
70
80
80
70
30
48
78
48
24
34
2C
24
ENDCHAR
STARTCHAR SYMBOL
ENCODING 9241
SWIDTH 1500 0
DWIDTH 6 0
BBX 6 10 0 -1
BITMAP
E0
80
C0
80
E0
44
6C
54
44
44
ENDCHAR
STARTCHAR SYMBOL
ENCODING 9242
SWIDTH 1500 0
DWIDTH 6 0
BBX 6 12 0 -2
BITMAP
60
80
54
34
D4
1C
00
18
14
18
14
18
ENDCHAR
STARTCHAR SYMBOL
ENCODING 9243
SWIDTH 1500 0
DWIDTH 6 0
BBX 6 12 0 -2
BITMAP
E0
80
C0
80
F0
40
20
10
6C
10
10
0C
ENDCHAR
STARTCHAR SYMBOL
ENCODING 9244
SWIDTH 1500 0
DWIDTH 6 0
BBX 6 10 0 -1
BITMAP
E0
80
C0
80
80
0C
10
08
04
18
ENDCHAR
STARTCHAR SYMBOL
ENCODING 9245
SWIDTH 1500 0
DWIDTH 6 0
BBX 6 10 0 -1
BITMAP
60
80
A0
A0
60
0C
10
08
04
18
ENDCHAR
STARTCHAR SYMBOL
ENCODING 9246
SWIDTH 1500 0
DWIDTH 6 0
BBX 6 10 0 -1
BITMAP
C0
A0
C0
A0
A0
0C
10
08
04
18
ENDCHAR
STARTCHAR SYMBOL
ENCODING 9247
SWIDTH 1500 0
DWIDTH 6 0
BBX 6 10 0 -1
BITMAP
90
90
90
90
60
0C
10
08
04
18
ENDCHAR
STARTCHAR SYMBOL
ENCODING 9248
SWIDTH 1500 0
DWIDTH 6 0
BBX 6 10 0 -1
BITMAP
60
80
40
20
C0
18
14
18
10
10
ENDCHAR
STARTCHAR SYMBOL
ENCODING 9249
SWIDTH 1500 0
DWIDTH 6 0
BBX 6 12 0 -2
BITMAP
C0
A0
A0
C0
70
40
60
40
70
20
20
3C
ENDCHAR
STARTCHAR BLANK
ENCODING 9250
SWIDTH 1500 0
DWIDTH 6 0
BBX 6 8 0 0
BITMAP
50
60
C0
78
44
44
44
78
ENDCHAR
STARTCHAR OPEN
ENCODING 9251
SWIDTH 1500 0
DWIDTH 6 0
BBX 5 2 1 -1
BITMAP
88
F8
ENDCHAR
STARTCHAR SYMBOL
ENCODING 9252
SWIDTH 1500 0
DWIDTH 6 0
BBX 6 10 0 -1
BITMAP
90
D0
B0
90
90
20
20
20
20
3C
ENDCHAR
STARTCHAR SYMBOL
ENCODING 9253
SWIDTH 1500 0
DWIDTH 6 0
BBX 5 5 1 0
BITMAP
48
90
20
48
90
ENDCHAR
STARTCHAR SYMBOL
ENCODING 9254
SWIDTH 1500 0
DWIDTH 6 0
BBX 5 7 1 0
BITMAP
78
80
80
40
20
00
20
ENDCHAR
STARTCHAR BOX
ENCODING 9472
SWIDTH 1500 0
DWIDTH 6 0
BBX 6 1 0 4
BITMAP
FC
ENDCHAR
STARTCHAR BOX
ENCODING 9474
SWIDTH 1500 0
DWIDTH 6 0
BBX 1 12 3 -2
BITMAP
80
80
80
80
80
80
80
80
80
80
80
80
ENDCHAR
STARTCHAR BOX
ENCODING 9484
SWIDTH 1500 0
DWIDTH 6 0
BBX 3 7 3 -2
BITMAP
60
80
80
80
80
80
80
ENDCHAR
STARTCHAR BOX
ENCODING 9488
SWIDTH 1500 0
DWIDTH 6 0
BBX 4 7 0 -2
BITMAP
E0
10
10
10
10
10
10
ENDCHAR
STARTCHAR BOX
ENCODING 9492
SWIDTH 1500 0
DWIDTH 6 0
BBX 3 6 3 4
BITMAP
80
80
80
80
80
60
ENDCHAR
STARTCHAR BOX
ENCODING 9496
SWIDTH 1500 0
DWIDTH 6 0
BBX 4 6 0 4
BITMAP
10
10
10
10
10
E0
ENDCHAR
STARTCHAR BOX
ENCODING 9500
SWIDTH 1500 0
DWIDTH 6 0
BBX 3 12 3 -2
BITMAP
80
80
80
80
80
E0
80
80
80
80
80
80
ENDCHAR
STARTCHAR BOX
ENCODING 9508
SWIDTH 1500 0
DWIDTH 6 0
BBX 4 12 0 -2
BITMAP
10
10
10
10
10
F0
10
10
10
10
10
10
ENDCHAR
STARTCHAR BOX
ENCODING 9516
SWIDTH 1500 0
DWIDTH 6 0
BBX 6 7 0 -2
BITMAP
FC
10
10
10
10
10
10
ENDCHAR
STARTCHAR BOX
ENCODING 9524
SWIDTH 1500 0
DWIDTH 6 0
BBX 6 6 0 4
BITMAP
10
10
10
10
10
FC
ENDCHAR
STARTCHAR BOX
ENCODING 9532
SWIDTH 1500 0
DWIDTH 6 0
BBX 6 12 0 -2
BITMAP
10
10
10
10
10
FC
10
10
10
10
10
10
ENDCHAR
STARTCHAR BOX
ENCODING 9552
SWIDTH 1500 0
DWIDTH 6 0
BBX 6 3 0 3
BITMAP
FC
00
FC
ENDCHAR
STARTCHAR BOX
ENCODING 9553
SWIDTH 1500 0
DWIDTH 6 0
BBX 3 12 2 -2
BITMAP
A0
A0
A0
A0
A0
A0
A0
A0
A0
A0
A0
A0
ENDCHAR
STARTCHAR BOX
ENCODING 9554
SWIDTH 1500 0
DWIDTH 6 0
BBX 3 8 3 -2
BITMAP
60
00
60
80
80
80
80
80
ENDCHAR
STARTCHAR BOX
ENCODING 9555
SWIDTH 1500 0
DWIDTH 6 0
BBX 4 8 2 -2
BITMAP
10
A0
A0
A0
A0
A0
A0
A0
ENDCHAR
STARTCHAR BOX
ENCODING 9556
SWIDTH 1500 0
DWIDTH 6 0
BBX 4 8 2 -2
BITMAP
30
40
90
A0
A0
A0
A0
A0
ENDCHAR
STARTCHAR BOX
ENCODING 9557
SWIDTH 1500 0
DWIDTH 6 0
BBX 4 8 0 -2
BITMAP
E0
00
E0
10
10
10
10
10
ENDCHAR
STARTCHAR BOX
ENCODING 9558
SWIDTH 1500 0
DWIDTH 6 0
BBX 5 7 0 -2
BITMAP
C0
28
28
28
28
28
28
ENDCHAR
STARTCHAR BOX
ENCODING 9559
SWIDTH 1500 0
DWIDTH 6 0
BBX 5 8 0 -2
BITMAP
E0
10
C8
28
28
28
28
28
ENDCHAR
STARTCHAR BOX
ENCODING 9560
SWIDTH 1500 0
DWIDTH 6 0
BBX 3 7 3 3
BITMAP
80
80
80
80
60
00
60
ENDCHAR
STARTCHAR BOX
ENCODING 9561
SWIDTH 1500 0
DWIDTH 6 0
BBX 4 6 2 4
BITMAP
A0
A0
A0
A0
A0
10
ENDCHAR
STARTCHAR BOX
ENCODING 9562
SWIDTH 1500 0
DWIDTH 6 0
BBX 4 7 2 3
BITMAP
A0
A0
A0
A0
90
40
30
ENDCHAR
STARTCHAR BOX
ENCODING 9563
SWIDTH 1500 0
DWIDTH 6 0
BBX 4 7 0 3
BITMAP
10
10
10
10
E0
00
E0
ENDCHAR
STARTCHAR BOX
ENCODING 9564
SWIDTH 1500 0
DWIDTH 6 0
BBX 5 6 0 4
BITMAP
28
28
28
28
28
C0
ENDCHAR
STARTCHAR BOX
ENCODING 9565
SWIDTH 1500 0
DWIDTH 6 0
BBX 5 7 0 3
BITMAP
28
28
28
28
C8
10
E0
ENDCHAR
STARTCHAR BOX
ENCODING 9566
SWIDTH 1500 0
DWIDTH 6 0
BBX 3 12 3 -2
BITMAP
80
80
80
80
E0
80
E0
80
80
80
80
80
ENDCHAR
STARTCHAR BOX
ENCODING 9567
SWIDTH 1500 0
DWIDTH 6 0
BBX 4 12 2 -2
BITMAP
A0
A0
A0
A0
A0
B0
A0
A0
A0
A0
A0
A0
ENDCHAR
STARTCHAR BOX
ENCODING 9568
SWIDTH 1500 0
DWIDTH 6 0
BBX 4 12 2 -2
BITMAP
A0
A0
A0
A0
90
80
90
A0
A0
A0
A0
A0
ENDCHAR
STARTCHAR BOX
ENCODING 9569
SWIDTH 1500 0
DWIDTH 6 0
BBX 4 12 0 -2
BITMAP
10
10
10
10
F0
10
F0
10
10
10
10
10
ENDCHAR
STARTCHAR BOX
ENCODING 9570
SWIDTH 1500 0
DWIDTH 6 0
BBX 5 12 0 -2
BITMAP
28
28
28
28
28
E8
28
28
28
28
28
28
ENDCHAR
STARTCHAR BOX
ENCODING 9571
SWIDTH 1500 0
DWIDTH 6 0
BBX 5 12 0 -2
BITMAP
28
28
28
28
C8
08
C8
28
28
28
28
28
ENDCHAR
STARTCHAR BOX
ENCODING 9572
SWIDTH 1500 0
DWIDTH 6 0
BBX 6 8 0 -2
BITMAP
FC
00
FC
10
10
10
10
10
ENDCHAR
STARTCHAR BOX
ENCODING 9573
SWIDTH 1500 0
DWIDTH 6 0
BBX 6 7 0 -2
BITMAP
FC
28
28
28
28
28
28
ENDCHAR
STARTCHAR BOX
ENCODING 9574
SWIDTH 1500 0
DWIDTH 6 0
BBX 6 8 0 -2
BITMAP
FC
00
C4
28
28
28
28
28
ENDCHAR
STARTCHAR BOX
ENCODING 9575
SWIDTH 1500 0
DWIDTH 6 0
BBX 6 7 0 3
BITMAP
10
10
10
10
FC
00
FC
ENDCHAR
STARTCHAR BOX
ENCODING 9576
SWIDTH 1500 0
DWIDTH 6 0
BBX 6 6 0 4
BITMAP
28
28
28
28
28
FC
ENDCHAR
STARTCHAR BOX
ENCODING 9577
SWIDTH 1500 0
DWIDTH 6 0
BBX 6 7 0 3
BITMAP
28
28
28
28
C4
00
FC
ENDCHAR
STARTCHAR BOX
ENCODING 9578
SWIDTH 1500 0
DWIDTH 6 0
BBX 6 12 0 -2
BITMAP
10
10
10
10
FC
00
FC
10
10
10
10
10
ENDCHAR
STARTCHAR BOX
ENCODING 9579
SWIDTH 1500 0
DWIDTH 6 0
BBX 6 12 0 -2
BITMAP
28
28
28
28
28
EC
28
28
28
28
28
28
ENDCHAR
STARTCHAR BOX
ENCODING 9580
SWIDTH 1500 0
DWIDTH 6 0
BBX 6 12 0 -2
BITMAP
28
28
28
28
C4
10
C4
28
28
28
28
28
ENDCHAR
STARTCHAR UPPER
ENCODING 9600
SWIDTH 1500 0
DWIDTH 6 0
BBX 6 6 0 4
BITMAP
FC
FC
FC
FC
FC
FC
ENDCHAR
STARTCHAR LOWER
ENCODING 9604
SWIDTH 1500 0
DWIDTH 6 0
BBX 6 6 0 -2
BITMAP
FC
FC
FC
FC
FC
FC
ENDCHAR
STARTCHAR FULL
ENCODING 9608
SWIDTH 1500 0
DWIDTH 6 0
BBX 6 12 0 -2
BITMAP
FC
FC
FC
FC
FC
FC
FC
FC
FC
FC
FC
FC
ENDCHAR
STARTCHAR LEFT
ENCODING 9612
SWIDTH 1500 0
DWIDTH 6 0
BBX 3 12 0 -2
BITMAP
E0
E0
E0
E0
E0
E0
E0
E0
E0
E0
E0
E0
ENDCHAR
STARTCHAR RIGHT
ENCODING 9616
SWIDTH 1500 0
DWIDTH 6 0
BBX 3 12 3 -2
BITMAP
E0
E0
E0
E0
E0
E0
E0
E0
E0
E0
E0
E0
ENDCHAR
STARTCHAR LIGHT
ENCODING 9617
SWIDTH 1500 0
DWIDTH 6 0
BBX 6 11 0 -1
BITMAP
48
00
24
00
90
00
48
00
24
00
90
ENDCHAR
STARTCHAR MEDIUM
ENCODING 9618
SWIDTH 1500 0
DWIDTH 6 0
BBX 6 12 0 -2
BITMAP
54
A8
54
A8
54
A8
54
A8
54
A8
54
A8
ENDCHAR
STARTCHAR DARK
ENCODING 9619
SWIDTH 1500 0
DWIDTH 6 0
BBX 6 12 0 -2
BITMAP
B4
FC
D8
FC
6C
FC
B4
FC
D8
FC
6C
FC
ENDCHAR
STARTCHAR BLACK
ENCODING 9632
SWIDTH 1500 0
DWIDTH 6 0
BBX 5 5 1 1
BITMAP
F8
F8
F8
F8
F8
ENDCHAR
STARTCHAR WHITE
ENCODING 9633
SWIDTH 1500 0
DWIDTH 6 0
BBX 5 5 1 1
BITMAP
F8
88
88
88
F8
ENDCHAR
STARTCHAR SQUARE
ENCODING 9636
SWIDTH 1500 0
DWIDTH 6 0
BBX 5 5 1 0
BITMAP
F8
00
F8
00
F8
ENDCHAR
STARTCHAR BLACK
ENCODING 9642
SWIDTH 1500 0
DWIDTH 6 0
BBX 3 3 2 2
BITMAP
E0
E0
E0
ENDCHAR
STARTCHAR WHITE
ENCODING 9643
SWIDTH 1500 0
DWIDTH 6 0
BBX 3 3 2 2
BITMAP
E0
A0
E0
ENDCHAR
STARTCHAR BLACK
ENCODING 9644
SWIDTH 1500 0
DWIDTH 6 0
BBX 6 4 0 0
BITMAP
FC
FC
FC
FC
ENDCHAR
STARTCHAR BLACK
ENCODING 9650
SWIDTH 1500 0
DWIDTH 6 0
BBX 6 12 0 -2
BITMAP
30
30
30
30
78
78
78
78
FC
FC
FC
FC
ENDCHAR
STARTCHAR BLACK
ENCODING 9654
SWIDTH 1500 0
DWIDTH 6 0
BBX 5 7 1 0
BITMAP
C0
E0
F0
F8
F0
E0
C0
ENDCHAR
STARTCHAR WHITE
ENCODING 9655
SWIDTH 1500 0
DWIDTH 6 0
BBX 5 7 1 0
BITMAP
C0
A0
90
88
90
A0
C0
ENDCHAR
STARTCHAR BLACK
ENCODING 9656
SWIDTH 1500 0
DWIDTH 6 0
BBX 3 5 2 0
BITMAP
80
C0
E0
C0
80
ENDCHAR
STARTCHAR BLACK
ENCODING 9658
SWIDTH 1500 0
DWIDTH 6 0
BBX 6 12 0 -2
BITMAP
80
C0
E0
F0
F8
FC
FC
F8
F0
E0
C0
80
ENDCHAR
STARTCHAR BLACK
ENCODING 9660
SWIDTH 1500 0
DWIDTH 6 0
BBX 6 12 0 -2
BITMAP
FC
FC
FC
FC
78
78
78
78
30
30
30
30
ENDCHAR
STARTCHAR WHITE
ENCODING 9665
SWIDTH 1500 0
DWIDTH 6 0
BBX 5 7 1 0
BITMAP
18
28
48
88
48
28
18
ENDCHAR
STARTCHAR BLACK
ENCODING 9668
SWIDTH 1500 0
DWIDTH 6 0
BBX 6 12 0 -2
BITMAP
04
0C
1C
3C
7C
FC
FC
7C
3C
1C
0C
04
ENDCHAR
STARTCHAR BLACK
ENCODING 9670
SWIDTH 1500 0
DWIDTH 6 0
BBX 5 6 1 0
BITMAP
20
70
F8
F8
70
20
ENDCHAR
STARTCHAR WHITE
ENCODING 9671
SWIDTH 1500 0
DWIDTH 6 0
BBX 5 6 1 0
BITMAP
20
50
88
88
50
20
ENDCHAR
STARTCHAR LOZENGE
ENCODING 9674
SWIDTH 1500 0
DWIDTH 6 0
BBX 5 10 1 -1
BITMAP
20
20
50
50
88
88
50
50
20
20
ENDCHAR
STARTCHAR WHITE
ENCODING 9675
SWIDTH 1500 0
DWIDTH 6 0
BBX 4 4 1 2
BITMAP
60
90
90
60
ENDCHAR
STARTCHAR BLACK
ENCODING 9679
SWIDTH 1500 0
DWIDTH 6 0
BBX 4 4 1 2
BITMAP
60
F0
F0
60
ENDCHAR
STARTCHAR INVERSE
ENCODING 9688
SWIDTH 1500 0
DWIDTH 6 0
BBX 6 12 0 -2
BITMAP
FC
FC
FC
FC
CC
84
84
CC
FC
FC
FC
FC
ENDCHAR
STARTCHAR INVERSE
ENCODING 9689
SWIDTH 1500 0
DWIDTH 6 0
BBX 6 12 0 -2
BITMAP
FC
FC
FC
FC
CC
B4
B4
CC
FC
FC
FC
FC
ENDCHAR
STARTCHAR LARGE
ENCODING 9711
SWIDTH 1500 0
DWIDTH 6 0
BBX 6 7 0 0
BITMAP
78
84
84
84
84
84
78
ENDCHAR
STARTCHAR BALLOT
ENCODING 9744
SWIDTH 1500 0
DWIDTH 6 0
BBX 6 6 0 0
BITMAP
FC
84
84
84
84
FC
ENDCHAR
STARTCHAR BALLOT
ENCODING 9745
SWIDTH 1500 0
DWIDTH 6 0
BBX 6 6 0 0
BITMAP
FC
84
8C
D4
A4
FC
ENDCHAR
STARTCHAR BALLOT
ENCODING 9746
SWIDTH 1500 0
DWIDTH 6 0
BBX 6 6 0 0
BITMAP
FC
84
D4
A4
D4
FC
ENDCHAR
STARTCHAR WHITE
ENCODING 9786
SWIDTH 1500 0
DWIDTH 6 0
BBX 5 6 1 0
BITMAP
50
00
00
00
88
70
ENDCHAR
STARTCHAR BLACK
ENCODING 9787
SWIDTH 1500 0
DWIDTH 6 0
BBX 5 10 1 -2
BITMAP
70
F8
A8
F8
F8
F8
70
88
F8
70
ENDCHAR
STARTCHAR WHITE
ENCODING 9788
SWIDTH 1500 0
DWIDTH 6 0
BBX 5 5 1 1
BITMAP
A8
70
D8
70
A8
ENDCHAR
STARTCHAR FEMALE
ENCODING 9792
SWIDTH 1500 0
DWIDTH 6 0
BBX 5 8 1 0
BITMAP
70
88
88
88
70
20
70
20
ENDCHAR
STARTCHAR MALE
ENCODING 9794
SWIDTH 1500 0
DWIDTH 6 0
BBX 5 8 1 0
BITMAP
38
18
28
70
88
88
88
70
ENDCHAR
STARTCHAR BLACK
ENCODING 9824
SWIDTH 1500 0
DWIDTH 6 0
BBX 5 6 1 0
BITMAP
20
70
F8
D8
20
70
ENDCHAR
STARTCHAR BLACK
ENCODING 9827
SWIDTH 1500 0
DWIDTH 6 0
BBX 5 6 1 0
BITMAP
70
70
F8
D8
20
70
ENDCHAR
STARTCHAR BLACK
ENCODING 9829
SWIDTH 1500 0
DWIDTH 6 0
BBX 5 6 1 0
BITMAP
50
F8
F8
F8
70
20
ENDCHAR
STARTCHAR BLACK
ENCODING 9830
SWIDTH 1500 0
DWIDTH 6 0
BBX 5 6 1 0
BITMAP
20
70
F8
F8
70
20
ENDCHAR
STARTCHAR EIGHTH
ENCODING 9834
SWIDTH 1500 0
DWIDTH 6 0
BBX 5 8 1 0
BITMAP
20
30
28
28
20
20
E0
E0
ENDCHAR
STARTCHAR BEAMED
ENCODING 9835
SWIDTH 1500 0
DWIDTH 6 0
BBX 5 9 1 -1
BITMAP
60
58
48
48
48
48
C8
D8
18
ENDCHAR
STARTCHAR CHECK
ENCODING 10003
SWIDTH 1500 0
DWIDTH 6 0
BBX 5 5 1 0
BITMAP
08
90
A0
C0
80
ENDCHAR
STARTCHAR BALLOT
ENCODING 10007
SWIDTH 1500 0
DWIDTH 6 0
BBX 5 5 1 0
BITMAP
88
50
20
50
88
ENDCHAR
STARTCHAR BLACK
ENCODING 10022
SWIDTH 1500 0
DWIDTH 6 0
BBX 5 7 1 0
BITMAP
20
20
70
F8
70
20
20
ENDCHAR
STARTCHAR WHITE
ENCODING 10023
SWIDTH 1500 0
DWIDTH 6 0
BBX 5 7 1 0
BITMAP
20
20
50
88
50
20
20
ENDCHAR
STARTCHAR OPEN
ENCODING 10034
SWIDTH 1500 0
DWIDTH 6 0
BBX 5 5 1 1
BITMAP
50
20
D8
20
50
ENDCHAR
STARTCHAR BLACK
ENCODING 10070
SWIDTH 1500 0
DWIDTH 6 0
BBX 5 7 1 0
BITMAP
20
70
A8
D8
A8
70
20
ENDCHAR
STARTCHAR BRAILLE
ENCODING 10240
SWIDTH 1500 0
DWIDTH 6 0
BBX 1 1 5 -2
BITMAP
00
ENDCHAR
STARTCHAR BRAILLE
ENCODING 10241
SWIDTH 1500 0
DWIDTH 6 0
BBX 2 2 1 7
BITMAP
C0
C0
ENDCHAR
STARTCHAR BRAILLE
ENCODING 10242
SWIDTH 1500 0
DWIDTH 6 0
BBX 2 2 1 4
BITMAP
C0
C0
ENDCHAR
STARTCHAR BRAILLE
ENCODING 10243
SWIDTH 1500 0
DWIDTH 6 0
BBX 2 5 1 4
BITMAP
C0
C0
00
C0
C0
ENDCHAR
STARTCHAR BRAILLE
ENCODING 10244
SWIDTH 1500 0
DWIDTH 6 0
BBX 2 2 1 1
BITMAP
C0
C0
ENDCHAR
STARTCHAR BRAILLE
ENCODING 10245
SWIDTH 1500 0
DWIDTH 6 0
BBX 2 8 1 1
BITMAP
C0
C0
00
00
00
00
C0
C0
ENDCHAR
STARTCHAR BRAILLE
ENCODING 10246
SWIDTH 1500 0
DWIDTH 6 0
BBX 2 5 1 1
BITMAP
C0
C0
00
C0
C0
ENDCHAR
STARTCHAR BRAILLE
ENCODING 10247
SWIDTH 1500 0
DWIDTH 6 0
BBX 2 8 1 1
BITMAP
C0
C0
00
C0
C0
00
C0
C0
ENDCHAR
STARTCHAR BRAILLE
ENCODING 10248
SWIDTH 1500 0
DWIDTH 6 0
BBX 2 2 4 7
BITMAP
C0
C0
ENDCHAR
STARTCHAR BRAILLE
ENCODING 10249
SWIDTH 1500 0
DWIDTH 6 0
BBX 5 2 1 7
BITMAP
D8
D8
ENDCHAR
STARTCHAR BRAILLE
ENCODING 10250
SWIDTH 1500 0
DWIDTH 6 0
BBX 5 5 1 4
BITMAP
18
18
00
C0
C0
ENDCHAR
STARTCHAR BRAILLE
ENCODING 10251
SWIDTH 1500 0
DWIDTH 6 0
BBX 5 5 1 4
BITMAP
D8
D8
00
C0
C0
ENDCHAR
STARTCHAR BRAILLE
ENCODING 10252
SWIDTH 1500 0
DWIDTH 6 0
BBX 5 8 1 1
BITMAP
18
18
00
00
00
00
C0
C0
ENDCHAR
STARTCHAR BRAILLE
ENCODING 10253
SWIDTH 1500 0
DWIDTH 6 0
BBX 5 8 1 1
BITMAP
D8
D8
00
00
00
00
C0
C0
ENDCHAR
STARTCHAR BRAILLE
ENCODING 10254
SWIDTH 1500 0
DWIDTH 6 0
BBX 5 8 1 1
BITMAP
18
18
00
C0
C0
00
C0
C0
ENDCHAR
STARTCHAR BRAILLE
ENCODING 10255
SWIDTH 1500 0
DWIDTH 6 0
BBX 5 8 1 1
BITMAP
D8
D8
00
C0
C0
00
C0
C0
ENDCHAR
STARTCHAR BRAILLE
ENCODING 10256
SWIDTH 1500 0
DWIDTH 6 0
BBX 2 2 4 4
BITMAP
C0
C0
ENDCHAR
STARTCHAR BRAILLE
ENCODING 10257
SWIDTH 1500 0
DWIDTH 6 0
BBX 5 5 1 4
BITMAP
C0
C0
00
18
18
ENDCHAR
STARTCHAR BRAILLE
ENCODING 10258
SWIDTH 1500 0
DWIDTH 6 0
BBX 5 2 1 4
BITMAP
D8
D8
ENDCHAR
STARTCHAR BRAILLE
ENCODING 10259
SWIDTH 1500 0
DWIDTH 6 0
BBX 5 5 1 4
BITMAP
C0
C0
00
D8
D8
ENDCHAR
STARTCHAR BRAILLE
ENCODING 10260
SWIDTH 1500 0
DWIDTH 6 0
BBX 5 5 1 1
BITMAP
18
18
00
C0
C0
ENDCHAR
STARTCHAR BRAILLE
ENCODING 10261
SWIDTH 1500 0
DWIDTH 6 0
BBX 5 8 1 1
BITMAP
C0
C0
00
18
18
00
C0
C0
ENDCHAR
STARTCHAR BRAILLE
ENCODING 10262
SWIDTH 1500 0
DWIDTH 6 0
BBX 5 5 1 1
BITMAP
D8
D8
00
C0
C0
ENDCHAR
STARTCHAR BRAILLE
ENCODING 10263
SWIDTH 1500 0
DWIDTH 6 0
BBX 5 8 1 1
BITMAP
C0
C0
00
D8
D8
00
C0
C0
ENDCHAR
STARTCHAR BRAILLE
ENCODING 10264
SWIDTH 1500 0
DWIDTH 6 0
BBX 2 5 4 4
BITMAP
C0
C0
00
C0
C0
ENDCHAR
STARTCHAR BRAILLE
ENCODING 10265
SWIDTH 1500 0
DWIDTH 6 0
BBX 5 5 1 4
BITMAP
D8
D8
00
18
18
ENDCHAR
STARTCHAR BRAILLE
ENCODING 10266
SWIDTH 1500 0
DWIDTH 6 0
BBX 5 5 1 4
BITMAP
18
18
00
D8
D8
ENDCHAR
STARTCHAR BRAILLE
ENCODING 10267
SWIDTH 1500 0
DWIDTH 6 0
BBX 5 5 1 4
BITMAP
D8
D8
00
D8
D8
ENDCHAR
STARTCHAR BRAILLE
ENCODING 10268
SWIDTH 1500 0
DWIDTH 6 0
BBX 5 8 1 1
BITMAP
18
18
00
18
18
00
C0
C0
ENDCHAR
STARTCHAR BRAILLE
ENCODING 10269
SWIDTH 1500 0
DWIDTH 6 0
BBX 5 8 1 1
BITMAP
D8
D8
00
18
18
00
C0
C0
ENDCHAR
STARTCHAR BRAILLE
ENCODING 10270
SWIDTH 1500 0
DWIDTH 6 0
BBX 5 8 1 1
BITMAP
18
18
00
D8
D8
00
C0
C0
ENDCHAR
STARTCHAR BRAILLE
ENCODING 10271
SWIDTH 1500 0
DWIDTH 6 0
BBX 5 8 1 1
BITMAP
D8
D8
00
D8
D8
00
C0
C0
ENDCHAR
STARTCHAR BRAILLE
ENCODING 10272
SWIDTH 1500 0
DWIDTH 6 0
BBX 2 2 4 1
BITMAP
C0
C0
ENDCHAR
STARTCHAR BRAILLE
ENCODING 10273
SWIDTH 1500 0
DWIDTH 6 0
BBX 5 8 1 1
BITMAP
C0
C0
00
00
00
00
18
18
ENDCHAR
STARTCHAR BRAILLE
ENCODING 10274
SWIDTH 1500 0
DWIDTH 6 0
BBX 5 5 1 1
BITMAP
C0
C0
00
18
18
ENDCHAR
STARTCHAR BRAILLE
ENCODING 10275
SWIDTH 1500 0
DWIDTH 6 0
BBX 5 8 1 1
BITMAP
C0
C0
00
C0
C0
00
18
18
ENDCHAR
STARTCHAR BRAILLE
ENCODING 10276
SWIDTH 1500 0
DWIDTH 6 0
BBX 5 2 1 1
BITMAP
D8
D8
ENDCHAR
STARTCHAR BRAILLE
ENCODING 10277
SWIDTH 1500 0
DWIDTH 6 0
BBX 5 8 1 1
BITMAP
C0
C0
00
00
00
00
D8
D8
ENDCHAR
STARTCHAR BRAILLE
ENCODING 10278
SWIDTH 1500 0
DWIDTH 6 0
BBX 5 5 1 1
BITMAP
C0
C0
00
D8
D8
ENDCHAR
STARTCHAR BRAILLE
ENCODING 10279
SWIDTH 1500 0
DWIDTH 6 0
BBX 5 8 1 1
BITMAP
C0
C0
00
C0
C0
00
D8
D8
ENDCHAR
STARTCHAR BRAILLE
ENCODING 10280
SWIDTH 1500 0
DWIDTH 6 0
BBX 2 8 4 1
BITMAP
C0
C0
00
00
00
00
C0
C0
ENDCHAR
STARTCHAR BRAILLE
ENCODING 10281
SWIDTH 1500 0
DWIDTH 6 0
BBX 5 8 1 1
BITMAP
D8
D8
00
00
00
00
18
18
ENDCHAR
STARTCHAR BRAILLE
ENCODING 10282
SWIDTH 1500 0
DWIDTH 6 0
BBX 5 8 1 1
BITMAP
18
18
00
C0
C0
00
18
18
ENDCHAR
STARTCHAR BRAILLE
ENCODING 10283
SWIDTH 1500 0
DWIDTH 6 0
BBX 5 8 1 1
BITMAP
D8
D8
00
C0
C0
00
18
18
ENDCHAR
STARTCHAR BRAILLE
ENCODING 10284
SWIDTH 1500 0
DWIDTH 6 0
BBX 5 8 1 1
BITMAP
18
18
00
00
00
00
D8
D8
ENDCHAR
STARTCHAR BRAILLE
ENCODING 10285
SWIDTH 1500 0
DWIDTH 6 0
BBX 5 8 1 1
BITMAP
D8
D8
00
00
00
00
D8
D8
ENDCHAR
STARTCHAR BRAILLE
ENCODING 10286
SWIDTH 1500 0
DWIDTH 6 0
BBX 5 8 1 1
BITMAP
18
18
00
C0
C0
00
D8
D8
ENDCHAR
STARTCHAR BRAILLE
ENCODING 10287
SWIDTH 1500 0
DWIDTH 6 0
BBX 5 8 1 1
BITMAP
D8
D8
00
C0
C0
00
D8
D8
ENDCHAR
STARTCHAR BRAILLE
ENCODING 10288
SWIDTH 1500 0
DWIDTH 6 0
BBX 2 5 4 1
BITMAP
C0
C0
00
C0
C0
ENDCHAR
STARTCHAR BRAILLE
ENCODING 10289
SWIDTH 1500 0
DWIDTH 6 0
BBX 5 8 1 1
BITMAP
C0
C0
00
18
18
00
18
18
ENDCHAR
STARTCHAR BRAILLE
ENCODING 10290
SWIDTH 1500 0
DWIDTH 6 0
BBX 5 5 1 1
BITMAP
D8
D8
00
18
18
ENDCHAR
STARTCHAR BRAILLE
ENCODING 10291
SWIDTH 1500 0
DWIDTH 6 0
BBX 5 8 1 1
BITMAP
C0
C0
00
D8
D8
00
18
18
ENDCHAR
STARTCHAR BRAILLE
ENCODING 10292
SWIDTH 1500 0
DWIDTH 6 0
BBX 5 5 1 1
BITMAP
18
18
00
D8
D8
ENDCHAR
STARTCHAR BRAILLE
ENCODING 10293
SWIDTH 1500 0
DWIDTH 6 0
BBX 5 8 1 1
BITMAP
C0
C0
00
18
18
00
D8
D8
ENDCHAR
STARTCHAR BRAILLE
ENCODING 10294
SWIDTH 1500 0
DWIDTH 6 0
BBX 5 5 1 1
BITMAP
D8
D8
00
D8
D8
ENDCHAR
STARTCHAR BRAILLE
ENCODING 10295
SWIDTH 1500 0
DWIDTH 6 0
BBX 5 8 1 1
BITMAP
C0
C0
00
D8
D8
00
D8
D8
ENDCHAR
STARTCHAR BRAILLE
ENCODING 10296
SWIDTH 1500 0
DWIDTH 6 0
BBX 2 8 4 1
BITMAP
C0
C0
00
C0
C0
00
C0
C0
ENDCHAR
STARTCHAR BRAILLE
ENCODING 10297
SWIDTH 1500 0
DWIDTH 6 0
BBX 5 8 1 1
BITMAP
D8
D8
00
18
18
00
18
18
ENDCHAR
STARTCHAR BRAILLE
ENCODING 10298
SWIDTH 1500 0
DWIDTH 6 0
BBX 5 8 1 1
BITMAP
18
18
00
D8
D8
00
18
18
ENDCHAR
STARTCHAR BRAILLE
ENCODING 10299
SWIDTH 1500 0
DWIDTH 6 0
BBX 5 8 1 1
BITMAP
D8
D8
00
D8
D8
00
18
18
ENDCHAR
STARTCHAR BRAILLE
ENCODING 10300
SWIDTH 1500 0
DWIDTH 6 0
BBX 5 8 1 1
BITMAP
18
18
00
18
18
00
D8
D8
ENDCHAR
STARTCHAR BRAILLE
ENCODING 10301
SWIDTH 1500 0
DWIDTH 6 0
BBX 5 8 1 1
BITMAP
D8
D8
00
18
18
00
D8
D8
ENDCHAR
STARTCHAR BRAILLE
ENCODING 10302
SWIDTH 1500 0
DWIDTH 6 0
BBX 5 8 1 1
BITMAP
18
18
00
D8
D8
00
D8
D8
ENDCHAR
STARTCHAR BRAILLE
ENCODING 10303
SWIDTH 1500 0
DWIDTH 6 0
BBX 5 8 1 1
BITMAP
D8
D8
00
D8
D8
00
D8
D8
ENDCHAR
STARTCHAR BRAILLE
ENCODING 10304
SWIDTH 1500 0
DWIDTH 6 0
BBX 2 2 1 -2
BITMAP
C0
C0
ENDCHAR
STARTCHAR BRAILLE
ENCODING 10305
SWIDTH 1500 0
DWIDTH 6 0
BBX 2 11 1 -2
BITMAP
C0
C0
00
00
00
00
00
00
00
C0
C0
ENDCHAR
STARTCHAR BRAILLE
ENCODING 10306
SWIDTH 1500 0
DWIDTH 6 0
BBX 2 8 1 -2
BITMAP
C0
C0
00
00
00
00
C0
C0
ENDCHAR
STARTCHAR BRAILLE
ENCODING 10307
SWIDTH 1500 0
DWIDTH 6 0
BBX 2 11 1 -2
BITMAP
C0
C0
00
C0
C0
00
00
00
00
C0
C0
ENDCHAR
STARTCHAR BRAILLE
ENCODING 10308
SWIDTH 1500 0
DWIDTH 6 0
BBX 2 5 1 -2
BITMAP
C0
C0
00
C0
C0
ENDCHAR
STARTCHAR BRAILLE
ENCODING 10309
SWIDTH 1500 0
DWIDTH 6 0
BBX 2 11 1 -2
BITMAP
C0
C0
00
00
00
00
C0
C0
00
C0
C0
ENDCHAR
STARTCHAR BRAILLE
ENCODING 10310
SWIDTH 1500 0
DWIDTH 6 0
BBX 2 8 1 -2
BITMAP
C0
C0
00
C0
C0
00
C0
C0
ENDCHAR
STARTCHAR BRAILLE
ENCODING 10311
SWIDTH 1500 0
DWIDTH 6 0
BBX 2 11 1 -2
BITMAP
C0
C0
00
C0
C0
00
C0
C0
00
C0
C0
ENDCHAR
STARTCHAR BRAILLE
ENCODING 10312
SWIDTH 1500 0
DWIDTH 6 0
BBX 5 11 1 -2
BITMAP
18
18
00
00
00
00
00
00
00
C0
C0
ENDCHAR
STARTCHAR BRAILLE
ENCODING 10313
SWIDTH 1500 0
DWIDTH 6 0
BBX 5 11 1 -2
BITMAP
D8
D8
00
00
00
00
00
00
00
C0
C0
ENDCHAR
STARTCHAR BRAILLE
ENCODING 10314
SWIDTH 1500 0
DWIDTH 6 0
BBX 5 11 1 -2
BITMAP
18
18
00
C0
C0
00
00
00
00
C0
C0
ENDCHAR
STARTCHAR BRAILLE
ENCODING 10315
SWIDTH 1500 0
DWIDTH 6 0
BBX 5 11 1 -2
BITMAP
D8
D8
00
C0
C0
00
00
00
00
C0
C0
ENDCHAR
STARTCHAR BRAILLE
ENCODING 10316
SWIDTH 1500 0
DWIDTH 6 0
BBX 5 11 1 -2
BITMAP
18
18
00
00
00
00
C0
C0
00
C0
C0
ENDCHAR
STARTCHAR BRAILLE
ENCODING 10317
SWIDTH 1500 0
DWIDTH 6 0
BBX 5 11 1 -2
BITMAP
D8
D8
00
00
00
00
C0
C0
00
C0
C0
ENDCHAR
STARTCHAR BRAILLE
ENCODING 10318
SWIDTH 1500 0
DWIDTH 6 0
BBX 5 11 1 -2
BITMAP
18
18
00
C0
C0
00
C0
C0
00
C0
C0
ENDCHAR
STARTCHAR BRAILLE
ENCODING 10319
SWIDTH 1500 0
DWIDTH 6 0
BBX 5 11 1 -2
BITMAP
D8
D8
00
C0
C0
00
C0
C0
00
C0
C0
ENDCHAR
STARTCHAR BRAILLE
ENCODING 10320
SWIDTH 1500 0
DWIDTH 6 0
BBX 5 8 1 -2
BITMAP
18
18
00
00
00
00
C0
C0
ENDCHAR
STARTCHAR BRAILLE
ENCODING 10321
SWIDTH 1500 0
DWIDTH 6 0
BBX 5 11 1 -2
BITMAP
C0
C0
00
18
18
00
00
00
00
C0
C0
ENDCHAR
STARTCHAR BRAILLE
ENCODING 10322
SWIDTH 1500 0
DWIDTH 6 0
BBX 5 8 1 -2
BITMAP
D8
D8
00
00
00
00
C0
C0
ENDCHAR
STARTCHAR BRAILLE
ENCODING 10323
SWIDTH 1500 0
DWIDTH 6 0
BBX 5 11 1 -2
BITMAP
C0
C0
00
D8
D8
00
00
00
00
C0
C0
ENDCHAR
STARTCHAR BRAILLE
ENCODING 10324
SWIDTH 1500 0
DWIDTH 6 0
BBX 5 8 1 -2
BITMAP
18
18
00
C0
C0
00
C0
C0
ENDCHAR
STARTCHAR BRAILLE
ENCODING 10325
SWIDTH 1500 0
DWIDTH 6 0
BBX 5 11 1 -2
BITMAP
C0
C0
00
18
18
00
C0
C0
00
C0
C0
ENDCHAR
STARTCHAR BRAILLE
ENCODING 10326
SWIDTH 1500 0
DWIDTH 6 0
BBX 5 8 1 -2
BITMAP
D8
D8
00
C0
C0
00
C0
C0
ENDCHAR
STARTCHAR BRAILLE
ENCODING 10327
SWIDTH 1500 0
DWIDTH 6 0
BBX 5 11 1 -2
BITMAP
C0
C0
00
D8
D8
00
C0
C0
00
C0
C0
ENDCHAR
STARTCHAR BRAILLE
ENCODING 10328
SWIDTH 1500 0
DWIDTH 6 0
BBX 5 11 1 -2
BITMAP
18
18
00
18
18
00
00
00
00
C0
C0
ENDCHAR
STARTCHAR BRAILLE
ENCODING 10329
SWIDTH 1500 0
DWIDTH 6 0
BBX 5 11 1 -2
BITMAP
D8
D8
00
18
18
00
00
00
00
C0
C0
ENDCHAR
STARTCHAR BRAILLE
ENCODING 10330
SWIDTH 1500 0
DWIDTH 6 0
BBX 5 11 1 -2
BITMAP
18
18
00
D8
D8
00
00
00
00
C0
C0
ENDCHAR
STARTCHAR BRAILLE
ENCODING 10331
SWIDTH 1500 0
DWIDTH 6 0
BBX 5 11 1 -2
BITMAP
D8
D8
00
D8
D8
00
00
00
00
C0
C0
ENDCHAR
STARTCHAR BRAILLE
ENCODING 10332
SWIDTH 1500 0
DWIDTH 6 0
BBX 5 11 1 -2
BITMAP
18
18
00
18
18
00
C0
C0
00
C0
C0
ENDCHAR
STARTCHAR BRAILLE
ENCODING 10333
SWIDTH 1500 0
DWIDTH 6 0
BBX 5 11 1 -2
BITMAP
D8
D8
00
18
18
00
C0
C0
00
C0
C0
ENDCHAR
STARTCHAR BRAILLE
ENCODING 10334
SWIDTH 1500 0
DWIDTH 6 0
BBX 5 11 1 -2
BITMAP
18
18
00
D8
D8
00
C0
C0
00
C0
C0
ENDCHAR
STARTCHAR BRAILLE
ENCODING 10335
SWIDTH 1500 0
DWIDTH 6 0
BBX 5 11 1 -2
BITMAP
D8
D8
00
D8
D8
00
C0
C0
00
C0
C0
ENDCHAR
STARTCHAR BRAILLE
ENCODING 10336
SWIDTH 1500 0
DWIDTH 6 0
BBX 5 5 1 -2
BITMAP
18
18
00
C0
C0
ENDCHAR
STARTCHAR BRAILLE
ENCODING 10337
SWIDTH 1500 0
DWIDTH 6 0
BBX 5 11 1 -2
BITMAP
C0
C0
00
00
00
00
18
18
00
C0
C0
ENDCHAR
STARTCHAR BRAILLE
ENCODING 10338
SWIDTH 1500 0
DWIDTH 6 0
BBX 5 8 1 -2
BITMAP
C0
C0
00
18
18
00
C0
C0
ENDCHAR
STARTCHAR BRAILLE
ENCODING 10339
SWIDTH 1500 0
DWIDTH 6 0
BBX 5 11 1 -2
BITMAP
C0
C0
00
C0
C0
00
18
18
00
C0
C0
ENDCHAR
STARTCHAR BRAILLE
ENCODING 10340
SWIDTH 1500 0
DWIDTH 6 0
BBX 5 5 1 -2
BITMAP
D8
D8
00
C0
C0
ENDCHAR
STARTCHAR BRAILLE
ENCODING 10341
SWIDTH 1500 0
DWIDTH 6 0
BBX 5 11 1 -2
BITMAP
C0
C0
00
00
00
00
D8
D8
00
C0
C0
ENDCHAR
STARTCHAR BRAILLE
ENCODING 10342
SWIDTH 1500 0
DWIDTH 6 0
BBX 5 8 1 -2
BITMAP
C0
C0
00
D8
D8
00
C0
C0
ENDCHAR
STARTCHAR BRAILLE
ENCODING 10343
SWIDTH 1500 0
DWIDTH 6 0
BBX 5 11 1 -2
BITMAP
C0
C0
00
C0
C0
00
D8
D8
00
C0
C0
ENDCHAR
STARTCHAR BRAILLE
ENCODING 10344
SWIDTH 1500 0
DWIDTH 6 0
BBX 5 11 1 -2
BITMAP
18
18
00
00
00
00
18
18
00
C0
C0
ENDCHAR
STARTCHAR BRAILLE
ENCODING 10345
SWIDTH 1500 0
DWIDTH 6 0
BBX 5 11 1 -2
BITMAP
D8
D8
00
00
00
00
18
18
00
C0
C0
ENDCHAR
STARTCHAR BRAILLE
ENCODING 10346
SWIDTH 1500 0
DWIDTH 6 0
BBX 5 11 1 -2
BITMAP
18
18
00
C0
C0
00
18
18
00
C0
C0
ENDCHAR
STARTCHAR BRAILLE
ENCODING 10347
SWIDTH 1500 0
DWIDTH 6 0
BBX 5 11 1 -2
BITMAP
D8
D8
00
C0
C0
00
18
18
00
C0
C0
ENDCHAR
STARTCHAR BRAILLE
ENCODING 10348
SWIDTH 1500 0
DWIDTH 6 0
BBX 5 11 1 -2
BITMAP
18
18
00
00
00
00
D8
D8
00
C0
C0
ENDCHAR
STARTCHAR BRAILLE
ENCODING 10349
SWIDTH 1500 0
DWIDTH 6 0
BBX 5 11 1 -2
BITMAP
D8
D8
00
00
00
00
D8
D8
00
C0
C0
ENDCHAR
STARTCHAR BRAILLE
ENCODING 10350
SWIDTH 1500 0
DWIDTH 6 0
BBX 5 11 1 -2
BITMAP
18
18
00
C0
C0
00
D8
D8
00
C0
C0
ENDCHAR
STARTCHAR BRAILLE
ENCODING 10351
SWIDTH 1500 0
DWIDTH 6 0
BBX 5 11 1 -2
BITMAP
D8
D8
00
C0
C0
00
D8
D8
00
C0
C0
ENDCHAR
STARTCHAR BRAILLE
ENCODING 10352
SWIDTH 1500 0
DWIDTH 6 0
BBX 5 8 1 -2
BITMAP
18
18
00
18
18
00
C0
C0
ENDCHAR
STARTCHAR BRAILLE
ENCODING 10353
SWIDTH 1500 0
DWIDTH 6 0
BBX 5 11 1 -2
BITMAP
C0
C0
00
18
18
00
18
18
00
C0
C0
ENDCHAR
STARTCHAR BRAILLE
ENCODING 10354
SWIDTH 1500 0
DWIDTH 6 0
BBX 5 8 1 -2
BITMAP
D8
D8
00
18
18
00
C0
C0
ENDCHAR
STARTCHAR BRAILLE
ENCODING 10355
SWIDTH 1500 0
DWIDTH 6 0
BBX 5 11 1 -2
BITMAP
C0
C0
00
D8
D8
00
18
18
00
C0
C0
ENDCHAR
STARTCHAR BRAILLE
ENCODING 10356
SWIDTH 1500 0
DWIDTH 6 0
BBX 5 8 1 -2
BITMAP
18
18
00
D8
D8
00
C0
C0
ENDCHAR
STARTCHAR BRAILLE
ENCODING 10357
SWIDTH 1500 0
DWIDTH 6 0
BBX 5 11 1 -2
BITMAP
C0
C0
00
18
18
00
D8
D8
00
C0
C0
ENDCHAR
STARTCHAR BRAILLE
ENCODING 10358
SWIDTH 1500 0
DWIDTH 6 0
BBX 5 8 1 -2
BITMAP
D8
D8
00
D8
D8
00
C0
C0
ENDCHAR
STARTCHAR BRAILLE
ENCODING 10359
SWIDTH 1500 0
DWIDTH 6 0
BBX 5 11 1 -2
BITMAP
C0
C0
00
D8
D8
00
D8
D8
00
C0
C0
ENDCHAR
STARTCHAR BRAILLE
ENCODING 10360
SWIDTH 1500 0
DWIDTH 6 0
BBX 5 11 1 -2
BITMAP
18
18
00
18
18
00
18
18
00
C0
C0
ENDCHAR
STARTCHAR BRAILLE
ENCODING 10361
SWIDTH 1500 0
DWIDTH 6 0
BBX 5 11 1 -2
BITMAP
D8
D8
00
18
18
00
18
18
00
C0
C0
ENDCHAR
STARTCHAR BRAILLE
ENCODING 10362
SWIDTH 1500 0
DWIDTH 6 0
BBX 5 11 1 -2
BITMAP
18
18
00
D8
D8
00
18
18
00
C0
C0
ENDCHAR
STARTCHAR BRAILLE
ENCODING 10363
SWIDTH 1500 0
DWIDTH 6 0
BBX 5 11 1 -2
BITMAP
D8
D8
00
D8
D8
00
18
18
00
C0
C0
ENDCHAR
STARTCHAR BRAILLE
ENCODING 10364
SWIDTH 1500 0
DWIDTH 6 0
BBX 5 11 1 -2
BITMAP
18
18
00
18
18
00
D8
D8
00
C0
C0
ENDCHAR
STARTCHAR BRAILLE
ENCODING 10365
SWIDTH 1500 0
DWIDTH 6 0
BBX 5 11 1 -2
BITMAP
D8
D8
00
18
18
00
D8
D8
00
C0
C0
ENDCHAR
STARTCHAR BRAILLE
ENCODING 10366
SWIDTH 1500 0
DWIDTH 6 0
BBX 5 11 1 -2
BITMAP
18
18
00
D8
D8
00
D8
D8
00
C0
C0
ENDCHAR
STARTCHAR BRAILLE
ENCODING 10367
SWIDTH 1500 0
DWIDTH 6 0
BBX 5 11 1 -2
BITMAP
D8
D8
00
D8
D8
00
D8
D8
00
C0
C0
ENDCHAR
STARTCHAR BRAILLE
ENCODING 10368
SWIDTH 1500 0
DWIDTH 6 0
BBX 2 2 4 -2
BITMAP
C0
C0
ENDCHAR
STARTCHAR BRAILLE
ENCODING 10369
SWIDTH 1500 0
DWIDTH 6 0
BBX 5 11 1 -2
BITMAP
C0
C0
00
00
00
00
00
00
00
18
18
ENDCHAR
STARTCHAR BRAILLE
ENCODING 10370
SWIDTH 1500 0
DWIDTH 6 0
BBX 5 8 1 -2
BITMAP
C0
C0
00
00
00
00
18
18
ENDCHAR
STARTCHAR BRAILLE
ENCODING 10371
SWIDTH 1500 0
DWIDTH 6 0
BBX 5 11 1 -2
BITMAP
C0
C0
00
C0
C0
00
00
00
00
18
18
ENDCHAR
STARTCHAR BRAILLE
ENCODING 10372
SWIDTH 1500 0
DWIDTH 6 0
BBX 5 5 1 -2
BITMAP
C0
C0
00
18
18
ENDCHAR
STARTCHAR BRAILLE
ENCODING 10373
SWIDTH 1500 0
DWIDTH 6 0
BBX 5 11 1 -2
BITMAP
C0
C0
00
00
00
00
C0
C0
00
18
18
ENDCHAR
STARTCHAR BRAILLE
ENCODING 10374
SWIDTH 1500 0
DWIDTH 6 0
BBX 5 8 1 -2
BITMAP
C0
C0
00
C0
C0
00
18
18
ENDCHAR
STARTCHAR BRAILLE
ENCODING 10375
SWIDTH 1500 0
DWIDTH 6 0
BBX 5 11 1 -2
BITMAP
C0
C0
00
C0
C0
00
C0
C0
00
18
18
ENDCHAR
STARTCHAR BRAILLE
ENCODING 10376
SWIDTH 1500 0
DWIDTH 6 0
BBX 2 11 4 -2
BITMAP
C0
C0
00
00
00
00
00
00
00
C0
C0
ENDCHAR
STARTCHAR BRAILLE
ENCODING 10377
SWIDTH 1500 0
DWIDTH 6 0
BBX 5 11 1 -2
BITMAP
D8
D8
00
00
00
00
00
00
00
18
18
ENDCHAR
STARTCHAR BRAILLE
ENCODING 10378
SWIDTH 1500 0
DWIDTH 6 0
BBX 5 11 1 -2
BITMAP
18
18
00
C0
C0
00
00
00
00
18
18
ENDCHAR
STARTCHAR BRAILLE
ENCODING 10379
SWIDTH 1500 0
DWIDTH 6 0
BBX 5 11 1 -2
BITMAP
D8
D8
00
C0
C0
00
00
00
00
18
18
ENDCHAR
STARTCHAR BRAILLE
ENCODING 10380
SWIDTH 1500 0
DWIDTH 6 0
BBX 5 11 1 -2
BITMAP
18
18
00
00
00
00
C0
C0
00
18
18
ENDCHAR
STARTCHAR BRAILLE
ENCODING 10381
SWIDTH 1500 0
DWIDTH 6 0
BBX 5 11 1 -2
BITMAP
D8
D8
00
00
00
00
C0
C0
00
18
18
ENDCHAR
STARTCHAR BRAILLE
ENCODING 10382
SWIDTH 1500 0
DWIDTH 6 0
BBX 5 11 1 -2
BITMAP
18
18
00
C0
C0
00
C0
C0
00
18
18
ENDCHAR
STARTCHAR BRAILLE
ENCODING 10383
SWIDTH 1500 0
DWIDTH 6 0
BBX 5 11 1 -2
BITMAP
D8
D8
00
C0
C0
00
C0
C0
00
18
18
ENDCHAR
STARTCHAR BRAILLE
ENCODING 10384
SWIDTH 1500 0
DWIDTH 6 0
BBX 2 8 4 -2
BITMAP
C0
C0
00
00
00
00
C0
C0
ENDCHAR
STARTCHAR BRAILLE
ENCODING 10385
SWIDTH 1500 0
DWIDTH 6 0
BBX 5 11 1 -2
BITMAP
C0
C0
00
18
18
00
00
00
00
18
18
ENDCHAR
STARTCHAR BRAILLE
ENCODING 10386
SWIDTH 1500 0
DWIDTH 6 0
BBX 5 8 1 -2
BITMAP
D8
D8
00
00
00
00
18
18
ENDCHAR
STARTCHAR BRAILLE
ENCODING 10387
SWIDTH 1500 0
DWIDTH 6 0
BBX 5 11 1 -2
BITMAP
C0
C0
00
D8
D8
00
00
00
00
18
18
ENDCHAR
STARTCHAR BRAILLE
ENCODING 10388
SWIDTH 1500 0
DWIDTH 6 0
BBX 5 8 1 -2
BITMAP
18
18
00
C0
C0
00
18
18
ENDCHAR
STARTCHAR BRAILLE
ENCODING 10389
SWIDTH 1500 0
DWIDTH 6 0
BBX 5 11 1 -2
BITMAP
C0
C0
00
18
18
00
C0
C0
00
18
18
ENDCHAR
STARTCHAR BRAILLE
ENCODING 10390
SWIDTH 1500 0
DWIDTH 6 0
BBX 5 8 1 -2
BITMAP
D8
D8
00
C0
C0
00
18
18
ENDCHAR
STARTCHAR BRAILLE
ENCODING 10391
SWIDTH 1500 0
DWIDTH 6 0
BBX 5 11 1 -2
BITMAP
C0
C0
00
D8
D8
00
C0
C0
00
18
18
ENDCHAR
STARTCHAR BRAILLE
ENCODING 10392
SWIDTH 1500 0
DWIDTH 6 0
BBX 2 11 4 -2
BITMAP
C0
C0
00
C0
C0
00
00
00
00
C0
C0
ENDCHAR
STARTCHAR BRAILLE
ENCODING 10393
SWIDTH 1500 0
DWIDTH 6 0
BBX 5 11 1 -2
BITMAP
D8
D8
00
18
18
00
00
00
00
18
18
ENDCHAR
STARTCHAR BRAILLE
ENCODING 10394
SWIDTH 1500 0
DWIDTH 6 0
BBX 5 11 1 -2
BITMAP
18
18
00
D8
D8
00
00
00
00
18
18
ENDCHAR
STARTCHAR BRAILLE
ENCODING 10395
SWIDTH 1500 0
DWIDTH 6 0
BBX 5 11 1 -2
BITMAP
D8
D8
00
D8
D8
00
00
00
00
18
18
ENDCHAR
STARTCHAR BRAILLE
ENCODING 10396
SWIDTH 1500 0
DWIDTH 6 0
BBX 5 11 1 -2
BITMAP
18
18
00
18
18
00
C0
C0
00
18
18
ENDCHAR
STARTCHAR BRAILLE
ENCODING 10397
SWIDTH 1500 0
DWIDTH 6 0
BBX 5 11 1 -2
BITMAP
D8
D8
00
18
18
00
C0
C0
00
18
18
ENDCHAR
STARTCHAR BRAILLE
ENCODING 10398
SWIDTH 1500 0
DWIDTH 6 0
BBX 5 11 1 -2
BITMAP
18
18
00
D8
D8
00
C0
C0
00
18
18
ENDCHAR
STARTCHAR BRAILLE
ENCODING 10399
SWIDTH 1500 0
DWIDTH 6 0
BBX 5 11 1 -2
BITMAP
D8
D8
00
D8
D8
00
C0
C0
00
18
18
ENDCHAR
STARTCHAR BRAILLE
ENCODING 10400
SWIDTH 1500 0
DWIDTH 6 0
BBX 2 5 4 -2
BITMAP
C0
C0
00
C0
C0
ENDCHAR
STARTCHAR BRAILLE
ENCODING 10401
SWIDTH 1500 0
DWIDTH 6 0
BBX 5 11 1 -2
BITMAP
C0
C0
00
00
00
00
18
18
00
18
18
ENDCHAR
STARTCHAR BRAILLE
ENCODING 10402
SWIDTH 1500 0
DWIDTH 6 0
BBX 5 8 1 -2
BITMAP
C0
C0
00
18
18
00
18
18
ENDCHAR
STARTCHAR BRAILLE
ENCODING 10403
SWIDTH 1500 0
DWIDTH 6 0
BBX 5 11 1 -2
BITMAP
C0
C0
00
C0
C0
00
18
18
00
18
18
ENDCHAR
STARTCHAR BRAILLE
ENCODING 10404
SWIDTH 1500 0
DWIDTH 6 0
BBX 5 5 1 -2
BITMAP
D8
D8
00
18
18
ENDCHAR
STARTCHAR BRAILLE
ENCODING 10405
SWIDTH 1500 0
DWIDTH 6 0
BBX 5 11 1 -2
BITMAP
C0
C0
00
00
00
00
D8
D8
00
18
18
ENDCHAR
STARTCHAR BRAILLE
ENCODING 10406
SWIDTH 1500 0
DWIDTH 6 0
BBX 5 8 1 -2
BITMAP
C0
C0
00
D8
D8
00
18
18
ENDCHAR
STARTCHAR BRAILLE
ENCODING 10407
SWIDTH 1500 0
DWIDTH 6 0
BBX 5 11 1 -2
BITMAP
C0
C0
00
C0
C0
00
D8
D8
00
18
18
ENDCHAR
STARTCHAR BRAILLE
ENCODING 10408
SWIDTH 1500 0
DWIDTH 6 0
BBX 2 11 4 -2
BITMAP
C0
C0
00
00
00
00
C0
C0
00
C0
C0
ENDCHAR
STARTCHAR BRAILLE
ENCODING 10409
SWIDTH 1500 0
DWIDTH 6 0
BBX 5 11 1 -2
BITMAP
D8
D8
00
00
00
00
18
18
00
18
18
ENDCHAR
STARTCHAR BRAILLE
ENCODING 10410
SWIDTH 1500 0
DWIDTH 6 0
BBX 5 11 1 -2
BITMAP
18
18
00
C0
C0
00
18
18
00
18
18
ENDCHAR
STARTCHAR BRAILLE
ENCODING 10411
SWIDTH 1500 0
DWIDTH 6 0
BBX 5 11 1 -2
BITMAP
D8
D8
00
C0
C0
00
18
18
00
18
18
ENDCHAR
STARTCHAR BRAILLE
ENCODING 10412
SWIDTH 1500 0
DWIDTH 6 0
BBX 5 11 1 -2
BITMAP
18
18
00
00
00
00
D8
D8
00
18
18
ENDCHAR
STARTCHAR BRAILLE
ENCODING 10413
SWIDTH 1500 0
DWIDTH 6 0
BBX 5 11 1 -2
BITMAP
D8
D8
00
00
00
00
D8
D8
00
18
18
ENDCHAR
STARTCHAR BRAILLE
ENCODING 10414
SWIDTH 1500 0
DWIDTH 6 0
BBX 5 11 1 -2
BITMAP
18
18
00
C0
C0
00
D8
D8
00
18
18
ENDCHAR
STARTCHAR BRAILLE
ENCODING 10415
SWIDTH 1500 0
DWIDTH 6 0
BBX 5 11 1 -2
BITMAP
D8
D8
00
C0
C0
00
D8
D8
00
18
18
ENDCHAR
STARTCHAR BRAILLE
ENCODING 10416
SWIDTH 1500 0
DWIDTH 6 0
BBX 2 8 4 -2
BITMAP
C0
C0
00
C0
C0
00
C0
C0
ENDCHAR
STARTCHAR BRAILLE
ENCODING 10417
SWIDTH 1500 0
DWIDTH 6 0
BBX 5 11 1 -2
BITMAP
C0
C0
00
18
18
00
18
18
00
18
18
ENDCHAR
STARTCHAR BRAILLE
ENCODING 10418
SWIDTH 1500 0
DWIDTH 6 0
BBX 5 8 1 -2
BITMAP
D8
D8
00
18
18
00
18
18
ENDCHAR
STARTCHAR BRAILLE
ENCODING 10419
SWIDTH 1500 0
DWIDTH 6 0
BBX 5 11 1 -2
BITMAP
C0
C0
00
D8
D8
00
18
18
00
18
18
ENDCHAR
STARTCHAR BRAILLE
ENCODING 10420
SWIDTH 1500 0
DWIDTH 6 0
BBX 5 8 1 -2
BITMAP
18
18
00
D8
D8
00
18
18
ENDCHAR
STARTCHAR BRAILLE
ENCODING 10421
SWIDTH 1500 0
DWIDTH 6 0
BBX 5 11 1 -2
BITMAP
C0
C0
00
18
18
00
D8
D8
00
18
18
ENDCHAR
STARTCHAR BRAILLE
ENCODING 10422
SWIDTH 1500 0
DWIDTH 6 0
BBX 5 8 1 -2
BITMAP
D8
D8
00
D8
D8
00
18
18
ENDCHAR
STARTCHAR BRAILLE
ENCODING 10423
SWIDTH 1500 0
DWIDTH 6 0
BBX 5 11 1 -2
BITMAP
C0
C0
00
D8
D8
00
D8
D8
00
18
18
ENDCHAR
STARTCHAR BRAILLE
ENCODING 10424
SWIDTH 1500 0
DWIDTH 6 0
BBX 2 11 4 -2
BITMAP
C0
C0
00
C0
C0
00
C0
C0
00
C0
C0
ENDCHAR
STARTCHAR BRAILLE
ENCODING 10425
SWIDTH 1500 0
DWIDTH 6 0
BBX 5 11 1 -2
BITMAP
D8
D8
00
18
18
00
18
18
00
18
18
ENDCHAR
STARTCHAR BRAILLE
ENCODING 10426
SWIDTH 1500 0
DWIDTH 6 0
BBX 5 11 1 -2
BITMAP
18
18
00
D8
D8
00
18
18
00
18
18
ENDCHAR
STARTCHAR BRAILLE
ENCODING 10427
SWIDTH 1500 0
DWIDTH 6 0
BBX 5 11 1 -2
BITMAP
D8
D8
00
D8
D8
00
18
18
00
18
18
ENDCHAR
STARTCHAR BRAILLE
ENCODING 10428
SWIDTH 1500 0
DWIDTH 6 0
BBX 5 11 1 -2
BITMAP
18
18
00
18
18
00
D8
D8
00
18
18
ENDCHAR
STARTCHAR BRAILLE
ENCODING 10429
SWIDTH 1500 0
DWIDTH 6 0
BBX 5 11 1 -2
BITMAP
D8
D8
00
18
18
00
D8
D8
00
18
18
ENDCHAR
STARTCHAR BRAILLE
ENCODING 10430
SWIDTH 1500 0
DWIDTH 6 0
BBX 5 11 1 -2
BITMAP
18
18
00
D8
D8
00
D8
D8
00
18
18
ENDCHAR
STARTCHAR BRAILLE
ENCODING 10431
SWIDTH 1500 0
DWIDTH 6 0
BBX 5 11 1 -2
BITMAP
D8
D8
00
D8
D8
00
D8
D8
00
18
18
ENDCHAR
STARTCHAR BRAILLE
ENCODING 10432
SWIDTH 1500 0
DWIDTH 6 0
BBX 5 2 1 -2
BITMAP
D8
D8
ENDCHAR
STARTCHAR BRAILLE
ENCODING 10433
SWIDTH 1500 0
DWIDTH 6 0
BBX 5 11 1 -2
BITMAP
C0
C0
00
00
00
00
00
00
00
D8
D8
ENDCHAR
STARTCHAR BRAILLE
ENCODING 10434
SWIDTH 1500 0
DWIDTH 6 0
BBX 5 8 1 -2
BITMAP
C0
C0
00
00
00
00
D8
D8
ENDCHAR
STARTCHAR BRAILLE
ENCODING 10435
SWIDTH 1500 0
DWIDTH 6 0
BBX 5 11 1 -2
BITMAP
C0
C0
00
C0
C0
00
00
00
00
D8
D8
ENDCHAR
STARTCHAR BRAILLE
ENCODING 10436
SWIDTH 1500 0
DWIDTH 6 0
BBX 5 5 1 -2
BITMAP
C0
C0
00
D8
D8
ENDCHAR
STARTCHAR BRAILLE
ENCODING 10437
SWIDTH 1500 0
DWIDTH 6 0
BBX 5 11 1 -2
BITMAP
C0
C0
00
00
00
00
C0
C0
00
D8
D8
ENDCHAR
STARTCHAR BRAILLE
ENCODING 10438
SWIDTH 1500 0
DWIDTH 6 0
BBX 5 8 1 -2
BITMAP
C0
C0
00
C0
C0
00
D8
D8
ENDCHAR
STARTCHAR BRAILLE
ENCODING 10439
SWIDTH 1500 0
DWIDTH 6 0
BBX 5 11 1 -2
BITMAP
C0
C0
00
C0
C0
00
C0
C0
00
D8
D8
ENDCHAR
STARTCHAR BRAILLE
ENCODING 10440
SWIDTH 1500 0
DWIDTH 6 0
BBX 5 11 1 -2
BITMAP
18
18
00
00
00
00
00
00
00
D8
D8
ENDCHAR
STARTCHAR BRAILLE
ENCODING 10441
SWIDTH 1500 0
DWIDTH 6 0
BBX 5 11 1 -2
BITMAP
D8
D8
00
00
00
00
00
00
00
D8
D8
ENDCHAR
STARTCHAR BRAILLE
ENCODING 10442
SWIDTH 1500 0
DWIDTH 6 0
BBX 5 11 1 -2
BITMAP
18
18
00
C0
C0
00
00
00
00
D8
D8
ENDCHAR
STARTCHAR BRAILLE
ENCODING 10443
SWIDTH 1500 0
DWIDTH 6 0
BBX 5 11 1 -2
BITMAP
D8
D8
00
C0
C0
00
00
00
00
D8
D8
ENDCHAR
STARTCHAR BRAILLE
ENCODING 10444
SWIDTH 1500 0
DWIDTH 6 0
BBX 5 11 1 -2
BITMAP
18
18
00
00
00
00
C0
C0
00
D8
D8
ENDCHAR
STARTCHAR BRAILLE
ENCODING 10445
SWIDTH 1500 0
DWIDTH 6 0
BBX 5 11 1 -2
BITMAP
D8
D8
00
00
00
00
C0
C0
00
D8
D8
ENDCHAR
STARTCHAR BRAILLE
ENCODING 10446
SWIDTH 1500 0
DWIDTH 6 0
BBX 5 11 1 -2
BITMAP
18
18
00
C0
C0
00
C0
C0
00
D8
D8
ENDCHAR
STARTCHAR BRAILLE
ENCODING 10447
SWIDTH 1500 0
DWIDTH 6 0
BBX 5 11 1 -2
BITMAP
D8
D8
00
C0
C0
00
C0
C0
00
D8
D8
ENDCHAR
STARTCHAR BRAILLE
ENCODING 10448
SWIDTH 1500 0
DWIDTH 6 0
BBX 5 8 1 -2
BITMAP
18
18
00
00
00
00
D8
D8
ENDCHAR
STARTCHAR BRAILLE
ENCODING 10449
SWIDTH 1500 0
DWIDTH 6 0
BBX 5 11 1 -2
BITMAP
C0
C0
00
18
18
00
00
00
00
D8
D8
ENDCHAR
STARTCHAR BRAILLE
ENCODING 10450
SWIDTH 1500 0
DWIDTH 6 0
BBX 5 8 1 -2
BITMAP
D8
D8
00
00
00
00
D8
D8
ENDCHAR
STARTCHAR BRAILLE
ENCODING 10451
SWIDTH 1500 0
DWIDTH 6 0
BBX 5 11 1 -2
BITMAP
C0
C0
00
D8
D8
00
00
00
00
D8
D8
ENDCHAR
STARTCHAR BRAILLE
ENCODING 10452
SWIDTH 1500 0
DWIDTH 6 0
BBX 5 8 1 -2
BITMAP
18
18
00
C0
C0
00
D8
D8
ENDCHAR
STARTCHAR BRAILLE
ENCODING 10453
SWIDTH 1500 0
DWIDTH 6 0
BBX 5 11 1 -2
BITMAP
C0
C0
00
18
18
00
C0
C0
00
D8
D8
ENDCHAR
STARTCHAR BRAILLE
ENCODING 10454
SWIDTH 1500 0
DWIDTH 6 0
BBX 5 8 1 -2
BITMAP
D8
D8
00
C0
C0
00
D8
D8
ENDCHAR
STARTCHAR BRAILLE
ENCODING 10455
SWIDTH 1500 0
DWIDTH 6 0
BBX 5 11 1 -2
BITMAP
C0
C0
00
D8
D8
00
C0
C0
00
D8
D8
ENDCHAR
STARTCHAR BRAILLE
ENCODING 10456
SWIDTH 1500 0
DWIDTH 6 0
BBX 5 11 1 -2
BITMAP
18
18
00
18
18
00
00
00
00
D8
D8
ENDCHAR
STARTCHAR BRAILLE
ENCODING 10457
SWIDTH 1500 0
DWIDTH 6 0
BBX 5 11 1 -2
BITMAP
D8
D8
00
18
18
00
00
00
00
D8
D8
ENDCHAR
STARTCHAR BRAILLE
ENCODING 10458
SWIDTH 1500 0
DWIDTH 6 0
BBX 5 11 1 -2
BITMAP
18
18
00
D8
D8
00
00
00
00
D8
D8
ENDCHAR
STARTCHAR BRAILLE
ENCODING 10459
SWIDTH 1500 0
DWIDTH 6 0
BBX 5 11 1 -2
BITMAP
D8
D8
00
D8
D8
00
00
00
00
D8
D8
ENDCHAR
STARTCHAR BRAILLE
ENCODING 10460
SWIDTH 1500 0
DWIDTH 6 0
BBX 5 11 1 -2
BITMAP
18
18
00
18
18
00
C0
C0
00
D8
D8
ENDCHAR
STARTCHAR BRAILLE
ENCODING 10461
SWIDTH 1500 0
DWIDTH 6 0
BBX 5 11 1 -2
BITMAP
D8
D8
00
18
18
00
C0
C0
00
D8
D8
ENDCHAR
STARTCHAR BRAILLE
ENCODING 10462
SWIDTH 1500 0
DWIDTH 6 0
BBX 5 11 1 -2
BITMAP
18
18
00
D8
D8
00
C0
C0
00
D8
D8
ENDCHAR
STARTCHAR BRAILLE
ENCODING 10463
SWIDTH 1500 0
DWIDTH 6 0
BBX 5 11 1 -2
BITMAP
D8
D8
00
D8
D8
00
C0
C0
00
D8
D8
ENDCHAR
STARTCHAR BRAILLE
ENCODING 10464
SWIDTH 1500 0
DWIDTH 6 0
BBX 5 5 1 -2
BITMAP
18
18
00
D8
D8
ENDCHAR
STARTCHAR BRAILLE
ENCODING 10465
SWIDTH 1500 0
DWIDTH 6 0
BBX 5 11 1 -2
BITMAP
C0
C0
00
00
00
00
18
18
00
D8
D8
ENDCHAR
STARTCHAR BRAILLE
ENCODING 10466
SWIDTH 1500 0
DWIDTH 6 0
BBX 5 8 1 -2
BITMAP
C0
C0
00
18
18
00
D8
D8
ENDCHAR
STARTCHAR BRAILLE
ENCODING 10467
SWIDTH 1500 0
DWIDTH 6 0
BBX 5 11 1 -2
BITMAP
C0
C0
00
C0
C0
00
18
18
00
D8
D8
ENDCHAR
STARTCHAR BRAILLE
ENCODING 10468
SWIDTH 1500 0
DWIDTH 6 0
BBX 5 5 1 -2
BITMAP
D8
D8
00
D8
D8
ENDCHAR
STARTCHAR BRAILLE
ENCODING 10469
SWIDTH 1500 0
DWIDTH 6 0
BBX 5 11 1 -2
BITMAP
C0
C0
00
00
00
00
D8
D8
00
D8
D8
ENDCHAR
STARTCHAR BRAILLE
ENCODING 10470
SWIDTH 1500 0
DWIDTH 6 0
BBX 5 8 1 -2
BITMAP
C0
C0
00
D8
D8
00
D8
D8
ENDCHAR
STARTCHAR BRAILLE
ENCODING 10471
SWIDTH 1500 0
DWIDTH 6 0
BBX 5 11 1 -2
BITMAP
C0
C0
00
C0
C0
00
D8
D8
00
D8
D8
ENDCHAR
STARTCHAR BRAILLE
ENCODING 10472
SWIDTH 1500 0
DWIDTH 6 0
BBX 5 11 1 -2
BITMAP
18
18
00
00
00
00
18
18
00
D8
D8
ENDCHAR
STARTCHAR BRAILLE
ENCODING 10473
SWIDTH 1500 0
DWIDTH 6 0
BBX 5 11 1 -2
BITMAP
D8
D8
00
00
00
00
18
18
00
D8
D8
ENDCHAR
STARTCHAR BRAILLE
ENCODING 10474
SWIDTH 1500 0
DWIDTH 6 0
BBX 5 11 1 -2
BITMAP
18
18
00
C0
C0
00
18
18
00
D8
D8
ENDCHAR
STARTCHAR BRAILLE
ENCODING 10475
SWIDTH 1500 0
DWIDTH 6 0
BBX 5 11 1 -2
BITMAP
D8
D8
00
C0
C0
00
18
18
00
D8
D8
ENDCHAR
STARTCHAR BRAILLE
ENCODING 10476
SWIDTH 1500 0
DWIDTH 6 0
BBX 5 11 1 -2
BITMAP
18
18
00
00
00
00
D8
D8
00
D8
D8
ENDCHAR
STARTCHAR BRAILLE
ENCODING 10477
SWIDTH 1500 0
DWIDTH 6 0
BBX 5 11 1 -2
BITMAP
D8
D8
00
00
00
00
D8
D8
00
D8
D8
ENDCHAR
STARTCHAR BRAILLE
ENCODING 10478
SWIDTH 1500 0
DWIDTH 6 0
BBX 5 11 1 -2
BITMAP
18
18
00
C0
C0
00
D8
D8
00
D8
D8
ENDCHAR
STARTCHAR BRAILLE
ENCODING 10479
SWIDTH 1500 0
DWIDTH 6 0
BBX 5 11 1 -2
BITMAP
D8
D8
00
C0
C0
00
D8
D8
00
D8
D8
ENDCHAR
STARTCHAR BRAILLE
ENCODING 10480
SWIDTH 1500 0
DWIDTH 6 0
BBX 5 8 1 -2
BITMAP
18
18
00
18
18
00
D8
D8
ENDCHAR
STARTCHAR BRAILLE
ENCODING 10481
SWIDTH 1500 0
DWIDTH 6 0
BBX 5 11 1 -2
BITMAP
C0
C0
00
18
18
00
18
18
00
D8
D8
ENDCHAR
STARTCHAR BRAILLE
ENCODING 10482
SWIDTH 1500 0
DWIDTH 6 0
BBX 5 8 1 -2
BITMAP
D8
D8
00
18
18
00
D8
D8
ENDCHAR
STARTCHAR BRAILLE
ENCODING 10483
SWIDTH 1500 0
DWIDTH 6 0
BBX 5 11 1 -2
BITMAP
C0
C0
00
D8
D8
00
18
18
00
D8
D8
ENDCHAR
STARTCHAR BRAILLE
ENCODING 10484
SWIDTH 1500 0
DWIDTH 6 0
BBX 5 8 1 -2
BITMAP
18
18
00
D8
D8
00
D8
D8
ENDCHAR
STARTCHAR BRAILLE
ENCODING 10485
SWIDTH 1500 0
DWIDTH 6 0
BBX 5 11 1 -2
BITMAP
C0
C0
00
18
18
00
D8
D8
00
D8
D8
ENDCHAR
STARTCHAR BRAILLE
ENCODING 10486
SWIDTH 1500 0
DWIDTH 6 0
BBX 5 8 1 -2
BITMAP
D8
D8
00
D8
D8
00
D8
D8
ENDCHAR
STARTCHAR BRAILLE
ENCODING 10487
SWIDTH 1500 0
DWIDTH 6 0
BBX 5 11 1 -2
BITMAP
C0
C0
00
D8
D8
00
D8
D8
00
D8
D8
ENDCHAR
STARTCHAR BRAILLE
ENCODING 10488
SWIDTH 1500 0
DWIDTH 6 0
BBX 5 11 1 -2
BITMAP
18
18
00
18
18
00
18
18
00
D8
D8
ENDCHAR
STARTCHAR BRAILLE
ENCODING 10489
SWIDTH 1500 0
DWIDTH 6 0
BBX 5 11 1 -2
BITMAP
D8
D8
00
18
18
00
18
18
00
D8
D8
ENDCHAR
STARTCHAR BRAILLE
ENCODING 10490
SWIDTH 1500 0
DWIDTH 6 0
BBX 5 11 1 -2
BITMAP
18
18
00
D8
D8
00
18
18
00
D8
D8
ENDCHAR
STARTCHAR BRAILLE
ENCODING 10491
SWIDTH 1500 0
DWIDTH 6 0
BBX 5 11 1 -2
BITMAP
D8
D8
00
D8
D8
00
18
18
00
D8
D8
ENDCHAR
STARTCHAR BRAILLE
ENCODING 10492
SWIDTH 1500 0
DWIDTH 6 0
BBX 5 11 1 -2
BITMAP
18
18
00
18
18
00
D8
D8
00
D8
D8
ENDCHAR
STARTCHAR BRAILLE
ENCODING 10493
SWIDTH 1500 0
DWIDTH 6 0
BBX 5 11 1 -2
BITMAP
D8
D8
00
18
18
00
D8
D8
00
D8
D8
ENDCHAR
STARTCHAR BRAILLE
ENCODING 10494
SWIDTH 1500 0
DWIDTH 6 0
BBX 5 11 1 -2
BITMAP
18
18
00
D8
D8
00
D8
D8
00
D8
D8
ENDCHAR
STARTCHAR BRAILLE
ENCODING 10495
SWIDTH 1500 0
DWIDTH 6 0
BBX 5 11 1 -2
BITMAP
D8
D8
00
D8
D8
00
D8
D8
00
D8
D8
ENDCHAR
STARTCHAR GLAGOLITIC
ENCODING 11264
SWIDTH 1500 0
DWIDTH 6 0
BBX 5 7 1 0
BITMAP
20
20
20
F8
A8
A8
20
ENDCHAR
STARTCHAR GLAGOLITIC
ENCODING 11265
SWIDTH 1500 0
DWIDTH 6 0
BBX 5 7 1 0
BITMAP
A8
A8
A8
F8
80
80
F8
ENDCHAR
STARTCHAR GLAGOLITIC
ENCODING 11266
SWIDTH 1500 0
DWIDTH 6 0
BBX 5 7 1 0
BITMAP
D8
A8
A8
A8
A8
A8
F8
ENDCHAR
STARTCHAR GLAGOLITIC
ENCODING 11267
SWIDTH 1500 0
DWIDTH 6 0
BBX 5 7 1 0
BITMAP
F0
A0
A0
78
68
A8
B8
ENDCHAR
STARTCHAR GLAGOLITIC
ENCODING 11268
SWIDTH 1500 0
DWIDTH 6 0
BBX 5 7 1 0
BITMAP
E0
A0
A0
B8
A8
A8
F8
ENDCHAR
STARTCHAR GLAGOLITIC
ENCODING 11269
SWIDTH 1500 0
DWIDTH 6 0
BBX 5 7 1 0
BITMAP
F0
08
08
78
08
08
F0
ENDCHAR
STARTCHAR GLAGOLITIC
ENCODING 11270
SWIDTH 1500 0
DWIDTH 6 0
BBX 5 9 1 0
BITMAP
D8
20
F8
A8
A8
A8
A8
A8
F8
ENDCHAR
STARTCHAR GLAGOLITIC
ENCODING 11271
SWIDTH 1500 0
DWIDTH 6 0
BBX 5 7 1 0
BITMAP
38
28
30
F8
A8
A8
F8
ENDCHAR
STARTCHAR GLAGOLITIC
ENCODING 11272
SWIDTH 1500 0
DWIDTH 6 0
BBX 5 7 1 0
BITMAP
C0
A0
A0
F8
A8
A8
F8
ENDCHAR
STARTCHAR GLAGOLITIC
ENCODING 11273
SWIDTH 1500 0
DWIDTH 6 0
BBX 5 7 1 0
BITMAP
F8
A8
A8
70
20
20
70
ENDCHAR
STARTCHAR GLAGOLITIC
ENCODING 11274
SWIDTH 1500 0
DWIDTH 6 0
BBX 5 7 1 0
BITMAP
F8
A8
A8
70
20
50
70
ENDCHAR
STARTCHAR GLAGOLITIC
ENCODING 11275
SWIDTH 1500 0
DWIDTH 6 0
BBX 5 7 1 0
BITMAP
F8
88
88
70
88
88
F8
ENDCHAR
STARTCHAR GLAGOLITIC
ENCODING 11276
SWIDTH 1500 0
DWIDTH 6 0
BBX 5 7 1 0
BITMAP
F8
A8
A8
B0
A0
A0
A0
ENDCHAR
STARTCHAR GLAGOLITIC
ENCODING 11277
SWIDTH 1500 0
DWIDTH 6 0
BBX 5 7 1 0
BITMAP
40
40
80
F8
08
08
08
ENDCHAR
STARTCHAR GLAGOLITIC
ENCODING 11278
SWIDTH 1500 0
DWIDTH 6 0
BBX 5 7 1 0
BITMAP
70
50
50
F8
A8
A8
F8
ENDCHAR
STARTCHAR GLAGOLITIC
ENCODING 11279
SWIDTH 1500 0
DWIDTH 6 0
BBX 5 7 1 0
BITMAP
50
A8
A8
A8
A8
A8
A8
ENDCHAR
STARTCHAR GLAGOLITIC
ENCODING 11280
SWIDTH 1500 0
DWIDTH 6 0
BBX 5 7 1 0
BITMAP
F8
88
88
F0
80
80
80
ENDCHAR
STARTCHAR GLAGOLITIC
ENCODING 11281
SWIDTH 1500 0
DWIDTH 6 0
BBX 5 7 1 0
BITMAP
F8
88
88
78
88
88
F8
ENDCHAR
STARTCHAR GLAGOLITIC
ENCODING 11282
SWIDTH 1500 0
DWIDTH 6 0
BBX 5 7 1 0
BITMAP
F8
A8
A8
B8
80
80
80
ENDCHAR
STARTCHAR GLAGOLITIC
ENCODING 11283
SWIDTH 1500 0
DWIDTH 6 0
BBX 5 7 1 0
BITMAP
80
80
80
E0
90
88
F8
ENDCHAR
STARTCHAR GLAGOLITIC
ENCODING 11284
SWIDTH 1500 0
DWIDTH 6 0
BBX 5 7 1 0
BITMAP
70
88
88
A8
50
50
70
ENDCHAR
STARTCHAR GLAGOLITIC
ENCODING 11285
SWIDTH 1500 0
DWIDTH 6 0
BBX 5 7 1 0
BITMAP
F8
A8
A8
A8
A8
A8
D8
ENDCHAR
STARTCHAR GLAGOLITIC
ENCODING 11286
SWIDTH 1500 0
DWIDTH 6 0
BBX 5 7 1 0
BITMAP
F8
A8
A8
78
A8
A8
F8
ENDCHAR
STARTCHAR GLAGOLITIC
ENCODING 11287
SWIDTH 1500 0
DWIDTH 6 0
BBX 5 7 1 0
BITMAP
20
70
A8
A8
A8
70
20
ENDCHAR
STARTCHAR GLAGOLITIC
ENCODING 11288
SWIDTH 1500 0
DWIDTH 6 0
BBX 5 7 1 0
BITMAP
F0
20
20
78
68
A8
B8
ENDCHAR
STARTCHAR GLAGOLITIC
ENCODING 11289
SWIDTH 1500 0
DWIDTH 6 0
BBX 5 7 1 0
BITMAP
70
A8
88
88
88
A8
70
ENDCHAR
STARTCHAR GLAGOLITIC
ENCODING 11290
SWIDTH 1500 0
DWIDTH 6 0
BBX 5 7 1 0
BITMAP
38
28
28
E8
A8
A8
E8
ENDCHAR
STARTCHAR GLAGOLITIC
ENCODING 11291
SWIDTH 1500 0
DWIDTH 6 0
BBX 5 7 1 0
BITMAP
A8
A8
A8
F8
50
50
70
ENDCHAR
STARTCHAR GLAGOLITIC
ENCODING 11292
SWIDTH 1500 0
DWIDTH 6 0
BBX 5 7 1 0
BITMAP
E8
A8
A8
68
10
10
10
ENDCHAR
STARTCHAR GLAGOLITIC
ENCODING 11293
SWIDTH 1500 0
DWIDTH 6 0
BBX 5 7 1 0
BITMAP
50
70
A8
F8
50
50
70
ENDCHAR
STARTCHAR GLAGOLITIC
ENCODING 11294
SWIDTH 1500 0
DWIDTH 6 0
BBX 5 7 1 0
BITMAP
A8
A8
A8
A8
A8
A8
F8
ENDCHAR
STARTCHAR GLAGOLITIC
ENCODING 11295
SWIDTH 1500 0
DWIDTH 6 0
BBX 5 7 1 0
BITMAP
38
28
28
70
A8
68
38
ENDCHAR
STARTCHAR GLAGOLITIC
ENCODING 11296
SWIDTH 1500 0
DWIDTH 6 0
BBX 5 7 1 0
BITMAP
38
28
28
F0
E8
28
38
ENDCHAR
STARTCHAR GLAGOLITIC
ENCODING 11297
SWIDTH 1500 0
DWIDTH 6 0
BBX 5 7 1 0
BITMAP
20
20
50
70
D8
A8
F8
ENDCHAR
STARTCHAR GLAGOLITIC
ENCODING 11298
SWIDTH 1500 0
DWIDTH 6 0
BBX 5 7 1 0
BITMAP
A0
F0
88
88
88
78
28
ENDCHAR
STARTCHAR GLAGOLITIC
ENCODING 11299
SWIDTH 1500 0
DWIDTH 6 0
BBX 5 7 1 0
BITMAP
F8
A8
A8
B0
A0
C0
80
ENDCHAR
STARTCHAR GLAGOLITIC
ENCODING 11300
SWIDTH 1500 0
DWIDTH 6 0
BBX 5 7 1 0
BITMAP
38
40
40
F8
40
40
38
ENDCHAR
STARTCHAR GLAGOLITIC
ENCODING 11301
SWIDTH 1500 0
DWIDTH 6 0
BBX 5 7 1 0
BITMAP
18
20
20
F8
A0
20
18
ENDCHAR
STARTCHAR GLAGOLITIC
ENCODING 11302
SWIDTH 1500 0
DWIDTH 6 0
BBX 5 7 1 0
BITMAP
20
70
A8
F8
50
50
70
ENDCHAR
STARTCHAR GLAGOLITIC
ENCODING 11303
SWIDTH 1500 0
DWIDTH 6 0
BBX 5 7 1 0
BITMAP
D8
20
20
F8
20
20
D8
ENDCHAR
STARTCHAR GLAGOLITIC
ENCODING 11304
SWIDTH 1500 0
DWIDTH 6 0
BBX 5 7 1 0
BITMAP
F8
A0
A0
78
A0
A0
F8
ENDCHAR
STARTCHAR GLAGOLITIC
ENCODING 11305
SWIDTH 1500 0
DWIDTH 6 0
BBX 6 7 0 0
BITMAP
7C
A8
A8
FC
58
58
7C
ENDCHAR
STARTCHAR GLAGOLITIC
ENCODING 11306
SWIDTH 1500 0
DWIDTH 6 0
BBX 5 7 1 0
BITMAP
20
50
50
F8
50
50
20
ENDCHAR
STARTCHAR GLAGOLITIC
ENCODING 11307
SWIDTH 1500 0
DWIDTH 6 0
BBX 5 7 1 0
BITMAP
F0
90
60
98
60
90
F0
ENDCHAR
STARTCHAR GLAGOLITIC
ENCODING 11308
SWIDTH 1500 0
DWIDTH 6 0
BBX 3 7 2 0
BITMAP
E0
20
20
20
20
20
20
ENDCHAR
STARTCHAR GLAGOLITIC
ENCODING 11309
SWIDTH 1500 0
DWIDTH 6 0
BBX 5 7 1 0
BITMAP
88
C8
A8
F8
A8
C8
88
ENDCHAR
STARTCHAR GLAGOLITIC
ENCODING 11310
SWIDTH 1500 0
DWIDTH 6 0
BBX 5 7 1 0
BITMAP
70
A8
A8
A8
A8
70
F8
ENDCHAR
STARTCHAR GLAGOLITIC
ENCODING 11312
SWIDTH 1500 0
DWIDTH 6 0
BBX 5 5 1 0
BITMAP
20
20
F8
A8
20
ENDCHAR
STARTCHAR GLAGOLITIC
ENCODING 11313
SWIDTH 1500 0
DWIDTH 6 0
BBX 5 5 1 0
BITMAP
A8
A8
F8
80
F8
ENDCHAR
STARTCHAR GLAGOLITIC
ENCODING 11314
SWIDTH 1500 0
DWIDTH 6 0
BBX 5 5 1 0
BITMAP
D8
A8
A8
A8
F8
ENDCHAR
STARTCHAR GLAGOLITIC
ENCODING 11315
SWIDTH 1500 0
DWIDTH 6 0
BBX 5 5 1 0
BITMAP
E0
A0
B8
68
B8
ENDCHAR
STARTCHAR GLAGOLITIC
ENCODING 11316
SWIDTH 1500 0
DWIDTH 6 0
BBX 5 5 1 0
BITMAP
E0
A0
B8
A8
F8
ENDCHAR
STARTCHAR GLAGOLITIC
ENCODING 11317
SWIDTH 1500 0
DWIDTH 6 0
BBX 5 5 1 0
BITMAP
F0
08
38
08
F0
ENDCHAR
STARTCHAR GLAGOLITIC
ENCODING 11318
SWIDTH 1500 0
DWIDTH 6 0
BBX 5 7 1 0
BITMAP
D8
20
F8
A8
A8
A8
F8
ENDCHAR
STARTCHAR GLAGOLITIC
ENCODING 11319
SWIDTH 1500 0
DWIDTH 6 0
BBX 5 5 1 0
BITMAP
38
28
F8
A8
F8
ENDCHAR
STARTCHAR GLAGOLITIC
ENCODING 11320
SWIDTH 1500 0
DWIDTH 6 0
BBX 5 5 1 0
BITMAP
C0
A0
F8
A8
F8
ENDCHAR
STARTCHAR GLAGOLITIC
ENCODING 11321
SWIDTH 1500 0
DWIDTH 6 0
BBX 5 5 1 0
BITMAP
F8
A8
70
20
70
ENDCHAR
STARTCHAR GLAGOLITIC
ENCODING 11322
SWIDTH 1500 0
DWIDTH 6 0
BBX 5 5 1 0
BITMAP
F8
A8
70
50
70
ENDCHAR
STARTCHAR GLAGOLITIC
ENCODING 11323
SWIDTH 1500 0
DWIDTH 6 0
BBX 5 5 1 0
BITMAP
F8
88
70
88
F8
ENDCHAR
STARTCHAR GLAGOLITIC
ENCODING 11324
SWIDTH 1500 0
DWIDTH 6 0
BBX 5 5 1 0
BITMAP
F8
A8
A8
B0
A0
ENDCHAR
STARTCHAR GLAGOLITIC
ENCODING 11325
SWIDTH 1500 0
DWIDTH 6 0
BBX 5 5 1 0
BITMAP
40
40
F8
08
08
ENDCHAR
STARTCHAR GLAGOLITIC
ENCODING 11326
SWIDTH 1500 0
DWIDTH 6 0
BBX 5 5 1 0
BITMAP
70
50
F8
A8
F8
ENDCHAR
STARTCHAR GLAGOLITIC
ENCODING 11327
SWIDTH 1500 0
DWIDTH 6 0
BBX 5 5 1 0
BITMAP
50
A8
A8
A8
A8
ENDCHAR
STARTCHAR GLAGOLITIC
ENCODING 11328
SWIDTH 1500 0
DWIDTH 6 0
BBX 5 5 1 0
BITMAP
F8
88
88
F0
80
ENDCHAR
STARTCHAR GLAGOLITIC
ENCODING 11329
SWIDTH 1500 0
DWIDTH 6 0
BBX 5 5 1 0
BITMAP
F8
88
78
88
F8
ENDCHAR
STARTCHAR GLAGOLITIC
ENCODING 11330
SWIDTH 1500 0
DWIDTH 6 0
BBX 5 5 1 0
BITMAP
F8
A8
B8
80
80
ENDCHAR
STARTCHAR GLAGOLITIC
ENCODING 11331
SWIDTH 1500 0
DWIDTH 6 0
BBX 5 5 1 0
BITMAP
80
80
F0
88
F8
ENDCHAR
STARTCHAR GLAGOLITIC
ENCODING 11332
SWIDTH 1500 0
DWIDTH 6 0
BBX 5 5 1 0
BITMAP
70
88
A8
50
70
ENDCHAR
STARTCHAR GLAGOLITIC
ENCODING 11333
SWIDTH 1500 0
DWIDTH 6 0
BBX 5 5 1 0
BITMAP
F8
A8
A8
A8
D8
ENDCHAR
STARTCHAR GLAGOLITIC
ENCODING 11334
SWIDTH 1500 0
DWIDTH 6 0
BBX 5 5 1 0
BITMAP
F8
A8
78
A8
F8
ENDCHAR
STARTCHAR GLAGOLITIC
ENCODING 11335
SWIDTH 1500 0
DWIDTH 6 0
BBX 5 9 1 -2
BITMAP
20
20
70
A8
A8
A8
70
20
20
ENDCHAR
STARTCHAR GLAGOLITIC
ENCODING 11336
SWIDTH 1500 0
DWIDTH 6 0
BBX 5 5 1 0
BITMAP
E0
20
78
A8
B8
ENDCHAR
STARTCHAR GLAGOLITIC
ENCODING 11337
SWIDTH 1500 0
DWIDTH 6 0
BBX 5 5 1 0
BITMAP
70
A8
88
A8
70
ENDCHAR
STARTCHAR GLAGOLITIC
ENCODING 11338
SWIDTH 1500 0
DWIDTH 6 0
BBX 5 5 1 0
BITMAP
38
28
E8
A8
E8
ENDCHAR
STARTCHAR GLAGOLITIC
ENCODING 11339
SWIDTH 1500 0
DWIDTH 6 0
BBX 5 5 1 0
BITMAP
A8
A8
F8
50
70
ENDCHAR
STARTCHAR GLAGOLITIC
ENCODING 11340
SWIDTH 1500 0
DWIDTH 6 0
BBX 5 5 1 0
BITMAP
E8
A8
68
10
10
ENDCHAR
STARTCHAR GLAGOLITIC
ENCODING 11341
SWIDTH 1500 0
DWIDTH 6 0
BBX 5 6 1 0
BITMAP
50
A8
A8
F8
50
70
ENDCHAR
STARTCHAR GLAGOLITIC
ENCODING 11342
SWIDTH 1500 0
DWIDTH 6 0
BBX 5 5 1 0
BITMAP
A8
A8
A8
A8
F8
ENDCHAR
STARTCHAR GLAGOLITIC
ENCODING 11343
SWIDTH 1500 0
DWIDTH 6 0
BBX 5 5 1 0
BITMAP
38
28
70
A8
78
ENDCHAR
STARTCHAR GLAGOLITIC
ENCODING 11344
SWIDTH 1500 0
DWIDTH 6 0
BBX 5 5 1 0
BITMAP
38
28
F0
A8
38
ENDCHAR
STARTCHAR GLAGOLITIC
ENCODING 11345
SWIDTH 1500 0
DWIDTH 6 0
BBX 5 5 1 0
BITMAP
20
50
F8
A8
F8
ENDCHAR
STARTCHAR GLAGOLITIC
ENCODING 11346
SWIDTH 1500 0
DWIDTH 6 0
BBX 5 5 1 0
BITMAP
A0
F0
88
78
28
ENDCHAR
STARTCHAR GLAGOLITIC
ENCODING 11347
SWIDTH 1500 0
DWIDTH 6 0
BBX 5 5 1 0
BITMAP
F8
A8
B0
A0
C0
ENDCHAR
STARTCHAR GLAGOLITIC
ENCODING 11348
SWIDTH 1500 0
DWIDTH 6 0
BBX 5 5 1 0
BITMAP
38
40
F8
40
38
ENDCHAR
STARTCHAR GLAGOLITIC
ENCODING 11349
SWIDTH 1500 0
DWIDTH 6 0
BBX 5 5 1 0
BITMAP
18
20
F8
A0
18
ENDCHAR
STARTCHAR GLAGOLITIC
ENCODING 11350
SWIDTH 1500 0
DWIDTH 6 0
BBX 5 6 1 0
BITMAP
20
70
A8
F8
50
70
ENDCHAR
STARTCHAR GLAGOLITIC
ENCODING 11351
SWIDTH 1500 0
DWIDTH 6 0
BBX 5 5 1 0
BITMAP
D8
20
F8
20
D8
ENDCHAR
STARTCHAR GLAGOLITIC
ENCODING 11352
SWIDTH 1500 0
DWIDTH 6 0
BBX 5 5 1 0
BITMAP
F8
A0
78
A0
F8
ENDCHAR
STARTCHAR GLAGOLITIC
ENCODING 11353
SWIDTH 1500 0
DWIDTH 6 0
BBX 6 5 0 0
BITMAP
7C
A8
FC
58
7C
ENDCHAR
STARTCHAR GLAGOLITIC
ENCODING 11354
SWIDTH 1500 0
DWIDTH 6 0
BBX 5 5 1 0
BITMAP
20
50
F8
50
20
ENDCHAR
STARTCHAR GLAGOLITIC
ENCODING 11355
SWIDTH 1500 0
DWIDTH 6 0
BBX 5 5 1 0
BITMAP
E0
A0
F8
A0
E0
ENDCHAR
STARTCHAR GLAGOLITIC
ENCODING 11356
SWIDTH 1500 0
DWIDTH 6 0
BBX 2 5 2 0
BITMAP
C0
40
40
40
40
ENDCHAR
STARTCHAR GLAGOLITIC
ENCODING 11357
SWIDTH 1500 0
DWIDTH 6 0
BBX 5 5 1 0
BITMAP
C8
A8
F8
A8
C8
ENDCHAR
STARTCHAR GLAGOLITIC
ENCODING 11358
SWIDTH 1500 0
DWIDTH 6 0
BBX 5 5 1 0
BITMAP
70
A8
A8
70
F8
ENDCHAR
STARTCHAR uni3374
ENCODING 13172
SWIDTH 1000 0
DWIDTH 12 0
BBX 11 8 1 0
BITMAP
8000
8000
8000
C4A0
A2C0
A680
AA80
C680
ENDCHAR
STARTCHAR Private
ENCODING 57344
SWIDTH 1500 0
DWIDTH 6 0
BBX 6 8 0 0
BITMAP
80
80
80
84
88
8C
88
64
ENDCHAR
STARTCHAR char57345
ENCODING 57345
SWIDTH 1500 0
DWIDTH 6 0
BBX 6 5 0 0
BITMAP
C4
28
E8
08
C4
ENDCHAR
STARTCHAR char57346
ENCODING 57346
SWIDTH 1500 0
DWIDTH 6 0
BBX 6 7 0 -2
BITMAP
E4
28
28
28
E4
20
C0
ENDCHAR
STARTCHAR char57347
ENCODING 57347
SWIDTH 1500 0
DWIDTH 6 0
BBX 6 9 0 -2
BITMAP
04
00
EC
24
24
24
E4
20
C0
ENDCHAR
STARTCHAR char57348
ENCODING 57348
SWIDTH 1500 0
DWIDTH 6 0
BBX 5 5 1 0
BITMAP
70
88
F8
80
70
ENDCHAR
STARTCHAR char57349
ENCODING 57349
SWIDTH 1500 0
DWIDTH 6 0
BBX 5 7 1 0
BITMAP
F8
D8
00
20
00
88
70
ENDCHAR
STARTCHAR POWERLINE
ENCODING 57504
SWIDTH 1500 0
DWIDTH 6 0
BBX 6 12 0 -2
BITMAP
80
80
90
B8
D4
90
90
20
40
80
80
80
ENDCHAR
STARTCHAR POWERLINE
ENCODING 57505
SWIDTH 1500 0
DWIDTH 6 0
BBX 5 11 1 -2
BITMAP
80
80
80
80
F0
00
48
68
58
48
48
ENDCHAR
STARTCHAR POWERLINE
ENCODING 57506
SWIDTH 1500 0
DWIDTH 6 0
BBX 5 9 1 -1
BITMAP
70
88
88
F8
D8
D8
F8
F8
70
ENDCHAR
STARTCHAR POWERLINE
ENCODING 57520
SWIDTH 1500 0
DWIDTH 6 0
BBX 6 12 0 -2
BITMAP
80
C0
E0
F0
F8
FC
FC
F8
F0
E0
C0
80
ENDCHAR
STARTCHAR POWERLINE
ENCODING 57521
SWIDTH 1500 0
DWIDTH 6 0
BBX 6 12 0 -2
BITMAP
80
40
20
10
08
04
04
08
10
20
40
80
ENDCHAR
STARTCHAR POWERLINE
ENCODING 57522
SWIDTH 1500 0
DWIDTH 6 0
BBX 6 12 0 -2
BITMAP
04
0C
1C
3C
7C
FC
FC
7C
3C
1C
0C
04
ENDCHAR
STARTCHAR POWERLINE
ENCODING 57523
SWIDTH 1500 0
DWIDTH 6 0
BBX 6 12 0 -2
BITMAP
04
08
10
20
40
80
80
40
20
10
08
04
ENDCHAR
STARTCHAR KEYBOARD
ENCODING 61440
SWIDTH 1500 0
DWIDTH 6 0
BBX 5 5 1 0
BITMAP
D8
D8
00
D8
D8
ENDCHAR
STARTCHAR LATIN
ENCODING 61441
SWIDTH 1500 0
DWIDTH 6 0
BBX 5 8 1 0
BITMAP
60
88
80
D8
88
88
88
88
ENDCHAR
STARTCHAR LATIN
ENCODING 61442
SWIDTH 1500 0
DWIDTH 6 0
BBX 5 8 1 0
BITMAP
70
90
90
D0
90
90
90
88
ENDCHAR
STARTCHAR DEC
ENCODING 63488
SWIDTH 1500 0
DWIDTH 6 0
BBX 6 1 0 9
BITMAP
FC
ENDCHAR
STARTCHAR DEC
ENCODING 63489
SWIDTH 1500 0
DWIDTH 6 0
BBX 6 1 0 6
BITMAP
FC
ENDCHAR
STARTCHAR DEC
ENCODING 63490
SWIDTH 1500 0
DWIDTH 6 0
BBX 6 1 0 1
BITMAP
FC
ENDCHAR
STARTCHAR DEC
ENCODING 63491
SWIDTH 1500 0
DWIDTH 6 0
BBX 6 1 0 -2
BITMAP
FC
ENDCHAR
STARTCHAR KEYBOARD
ENCODING 63504
SWIDTH 1500 0
DWIDTH 6 0
BBX 5 5 1 0
BITMAP
D8
D8
00
D8
D8
ENDCHAR
STARTCHAR KEYBOARD
ENCODING 63505
SWIDTH 1500 0
DWIDTH 6 0
BBX 5 5 1 0
BITMAP
F8
00
F8
00
F8
ENDCHAR
STARTCHAR KEYBOARD
ENCODING 63506
SWIDTH 1500 0
DWIDTH 6 0
BBX 6 8 0 0
BITMAP
10
10
78
84
88
88
84
78
ENDCHAR
STARTCHAR KEYBOARD
ENCODING 63507
SWIDTH 1500 0
DWIDTH 6 0
BBX 6 8 0 0
BITMAP
10
10
78
FC
F8
F8
FC
78
ENDCHAR
STARTCHAR Private
ENCODING 63743
SWIDTH 1500 0
DWIDTH 6 0
BBX 6 8 0 0
BITMAP
10
10
78
FC
F8
F8
FC
78
ENDCHAR
STARTCHAR LATIN
ENCODING 64256
SWIDTH 1500 0
DWIDTH 6 0
BBX 5 8 1 0
BITMAP
68
90
90
D8
90
90
90
90
ENDCHAR
STARTCHAR LATIN
ENCODING 64257
SWIDTH 1500 0
DWIDTH 6 0
BBX 5 8 1 0
BITMAP
60
88
80
D8
88
88
88
88
ENDCHAR
STARTCHAR LATIN
ENCODING 64258
SWIDTH 1500 0
DWIDTH 6 0
BBX 5 8 1 0
BITMAP
70
90
90
D0
90
90
90
88
ENDCHAR
STARTCHAR LATIN
ENCODING 64259
SWIDTH 1500 0
DWIDTH 6 0
BBX 5 8 1 0
BITMAP
78
A0
A0
F8
A8
A8
A8
A8
ENDCHAR
STARTCHAR LATIN
ENCODING 64260
SWIDTH 1500 0
DWIDTH 6 0
BBX 5 8 1 0
BITMAP
78
A8
A8
F8
A8
A8
A8
A8
ENDCHAR
STARTCHAR LATIN
ENCODING 64261
SWIDTH 1500 0
DWIDTH 6 0
BBX 5 8 1 0
BITMAP
60
A0
A0
B0
A0
A0
A0
98
ENDCHAR
STARTCHAR LATIN
ENCODING 64262
SWIDTH 1500 0
DWIDTH 6 0
BBX 5 8 1 0
BITMAP
10
10
10
78
90
50
30
C8
ENDCHAR
STARTCHAR ARMENIAN
ENCODING 64275
SWIDTH 1500 0
DWIDTH 6 0
BBX 5 7 1 0
BITMAP
50
A0
68
28
A8
A8
58
ENDCHAR
STARTCHAR ARMENIAN
ENCODING 64276
SWIDTH 1500 0
DWIDTH 6 0
BBX 5 8 1 0
BITMAP
20
60
20
B8
A0
A8
A8
78
ENDCHAR
STARTCHAR ARMENIAN
ENCODING 64277
SWIDTH 1500 0
DWIDTH 6 0
BBX 5 10 1 -2
BITMAP
20
60
20
B0
A8
A8
A8
68
08
08
ENDCHAR
STARTCHAR ARMENIAN
ENCODING 64278
SWIDTH 1500 0
DWIDTH 6 0
BBX 5 10 1 -2
BITMAP
60
A0
60
28
A8
A8
A8
78
20
30
ENDCHAR
STARTCHAR ARMENIAN
ENCODING 64279
SWIDTH 1500 0
DWIDTH 6 0
BBX 6 10 0 -2
BITMAP
20
60
20
B4
B4
BC
AC
6C
20
20
ENDCHAR
STARTCHAR SMALL
ENCODING 65104
SWIDTH 1500 0
DWIDTH 6 0
BBX 2 2 2 0
BITMAP
40
80
ENDCHAR
STARTCHAR SMALL
ENCODING 65105
SWIDTH 1500 0
DWIDTH 6 0
BBX 2 2 2 1
BITMAP
80
40
ENDCHAR
STARTCHAR SMALL
ENCODING 65106
SWIDTH 1500 0
DWIDTH 6 0
BBX 1 1 3 0
BITMAP
80
ENDCHAR
STARTCHAR SMALL
ENCODING 65108
SWIDTH 1500 0
DWIDTH 6 0
BBX 2 4 2 0
BITMAP
40
00
40
80
ENDCHAR
STARTCHAR SMALL
ENCODING 65109
SWIDTH 1500 0
DWIDTH 6 0
BBX 1 4 3 0
BITMAP
80
00
00
80
ENDCHAR
STARTCHAR SMALL
ENCODING 65110
SWIDTH 1500 0
DWIDTH 6 0
BBX 5 5 1 0
BITMAP
F0
08
30
00
20
ENDCHAR
STARTCHAR SMALL
ENCODING 65111
SWIDTH 1500 0
DWIDTH 6 0
BBX 1 5 3 0
BITMAP
80
80
80
00
80
ENDCHAR
STARTCHAR SMALL
ENCODING 65112
SWIDTH 1500 0
DWIDTH 6 0
BBX 6 1 0 1
BITMAP
FC
ENDCHAR
STARTCHAR SMALL
ENCODING 65113
SWIDTH 1500 0
DWIDTH 6 0
BBX 2 5 3 0
BITMAP
40
80
80
80
40
ENDCHAR
STARTCHAR SMALL
ENCODING 65114
SWIDTH 1500 0
DWIDTH 6 0
BBX 2 5 2 0
BITMAP
80
40
40
40
80
ENDCHAR
STARTCHAR SMALL
ENCODING 65115
SWIDTH 1500 0
DWIDTH 6 0
BBX 3 5 2 0
BITMAP
60
40
80
40
60
ENDCHAR
STARTCHAR SMALL
ENCODING 65116
SWIDTH 1500 0
DWIDTH 6 0
BBX 3 5 2 0
BITMAP
C0
40
20
40
C0
ENDCHAR
STARTCHAR SMALL
ENCODING 65117
SWIDTH 1500 0
DWIDTH 6 0
BBX 2 5 3 0
BITMAP
C0
80
80
80
C0
ENDCHAR
STARTCHAR SMALL
ENCODING 65118
SWIDTH 1500 0
DWIDTH 6 0
BBX 2 5 2 0
BITMAP
C0
40
40
40
C0
ENDCHAR
STARTCHAR SMALL
ENCODING 65119
SWIDTH 1500 0
DWIDTH 6 0
BBX 5 5 1 0
BITMAP
50
F8
50
F8
50
ENDCHAR
STARTCHAR SMALL
ENCODING 65120
SWIDTH 1500 0
DWIDTH 6 0
BBX 5 5 1 0
BITMAP
60
90
68
90
68
ENDCHAR
STARTCHAR SMALL
ENCODING 65121
SWIDTH 1500 0
DWIDTH 6 0
BBX 3 3 2 1
BITMAP
A0
40
A0
ENDCHAR
STARTCHAR SMALL
ENCODING 65122
SWIDTH 1500 0
DWIDTH 6 0
BBX 3 3 2 1
BITMAP
40
E0
40
ENDCHAR
STARTCHAR SMALL
ENCODING 65123
SWIDTH 1500 0
DWIDTH 6 0
BBX 3 1 2 2
BITMAP
E0
ENDCHAR
STARTCHAR SMALL
ENCODING 65124
SWIDTH 1500 0
DWIDTH 6 0
BBX 3 5 2 0
BITMAP
20
40
80
40
20
ENDCHAR
STARTCHAR SMALL
ENCODING 65125
SWIDTH 1500 0
DWIDTH 6 0
BBX 3 5 2 0
BITMAP
80
40
20
40
80
ENDCHAR
STARTCHAR SMALL
ENCODING 65126
SWIDTH 1500 0
DWIDTH 6 0
BBX 3 3 2 1
BITMAP
E0
00
E0
ENDCHAR
STARTCHAR SMALL
ENCODING 65128
SWIDTH 1500 0
DWIDTH 6 0
BBX 5 5 1 0
BITMAP
80
40
20
10
08
ENDCHAR
STARTCHAR SMALL
ENCODING 65129
SWIDTH 1500 0
DWIDTH 6 0
BBX 5 5 1 0
BITMAP
78
A0
70
28
F0
ENDCHAR
STARTCHAR SMALL
ENCODING 65130
SWIDTH 1500 0
DWIDTH 6 0
BBX 5 5 1 0
BITMAP
C8
D0
20
58
98
ENDCHAR
STARTCHAR SMALL
ENCODING 65131
SWIDTH 1500 0
DWIDTH 6 0
BBX 5 5 1 0
BITMAP
70
A8
A8
90
40
ENDCHAR
STARTCHAR ZERO
ENCODING 65279
SWIDTH 1500 0
DWIDTH 6 0
BBX 1 1 5 -2
BITMAP
00
ENDCHAR
STARTCHAR REPLACEMENT
ENCODING 65533
SWIDTH 1500 0
DWIDTH 6 0
BBX 6 11 0 -2
BITMAP
30
78
8C
F4
F4
EC
DC
FC
DC
78
30
ENDCHAR
STARTCHAR UNIMPLEMENTED
ENCODING 65535
SWIDTH 1500 0
DWIDTH 6 0
BBX 5 10 1 -1
BITMAP
F8
88
D8
D8
A8
A8
D8
D8
88
F8
ENDCHAR
ENDFONT
